<svg width="10" height="10" viewBox="0 0 10 10" fill="none" xmlns="http://www.w3.org/2000/svg">
<path d="M5.74887 9.09514L5.25333 9.59068C5.04351 9.8005 4.70422 9.8005 4.49663 9.59068L0.157349 5.25362C-0.0524727 5.0438 -0.0524726 4.70452 0.157349 4.49693L4.49663 0.157637C4.70646 -0.0521846 5.04574 -0.0521845 5.25333 0.157637L5.74887 0.653173C5.96092 0.865226 5.95646 1.21121 5.73994 1.4188L3.05021 3.9813L9.46538 3.9813C9.76226 3.9813 10.0011 4.22014 10.0011 4.51702L10.0011 5.2313C10.0011 5.52818 9.76226 5.76702 9.46538 5.76702L3.05021 5.76702L5.73994 8.32952C5.95869 8.53711 5.96315 8.88309 5.74887 9.09514Z" fill="#16A0CC"/>
</svg>
