<svg width="10" height="10" viewBox="0 0 10 10" fill="none" xmlns="http://www.w3.org/2000/svg">
<path d="M5.74777 9.09319L5.25223 9.58873C5.04241 9.79855 4.70312 9.79855 4.49554 9.58873L0.15625 5.25167C-0.0535712 5.04185 -0.0535712 4.70256 0.15625 4.49497L4.49554 0.155684C4.70536 -0.0541374 5.04464 -0.0541373 5.25223 0.155684L5.74777 0.65122C5.95982 0.863274 5.95536 1.20926 5.73884 1.41685L3.04911 3.97935L9.46429 3.97935C9.76116 3.97935 10 4.21819 10 4.51506L10 5.22935C10 5.52622 9.76116 5.76506 9.46429 5.76506L3.04911 5.76506L5.73884 8.32757C5.95759 8.53516 5.96205 8.88114 5.74777 9.09319Z" fill="#16A0CC"/>
</svg>
