<svg width="20" height="20" viewBox="0 0 20 20" fill="none" xmlns="http://www.w3.org/2000/svg">
<path d="M16.9059 12.5086C16.6622 12.3809 16.3612 12.475 16.2336 12.7187C15.1316 14.8225 12.9729 16.1294 10.6001 16.1294C7.10011 16.1294 4.252 13.2853 4.24516 9.78685L4.64483 10.1865C4.74208 10.2838 4.86955 10.3324 4.99698 10.3324C5.12441 10.3324 5.25191 10.2838 5.34913 10.1865C5.54364 9.99201 5.54364 9.67668 5.34913 9.48218L4.12167 8.25468C4.03037 8.15026 3.89652 8.08398 3.74694 8.08398C3.59185 8.08398 3.45336 8.15491 3.36202 8.26604L2.14588 9.48218C1.95137 9.67665 1.95137 9.99201 2.14588 10.1865C2.34035 10.381 2.65572 10.381 2.85022 10.1865L3.24906 9.78771C3.25254 11.7462 4.01675 13.5871 5.40203 14.9723C6.79049 16.3608 8.63656 17.1255 10.6002 17.1255C13.3448 17.1255 15.8414 15.614 17.116 13.1809C17.2436 12.9372 17.1496 12.6362 16.9059 12.5086Z" fill="white" stroke="white" stroke-width="0.5"/>
<path d="M18.8543 8.93896C18.6598 8.74445 18.3444 8.74445 18.1499 8.93896L17.751 9.3378C17.7476 7.37923 16.9834 5.53844 15.5981 4.15313C14.2096 2.76467 12.3636 2 10.4 2C7.65537 2 5.15868 3.51148 3.88413 5.94459C3.75647 6.18823 3.85053 6.48925 4.09421 6.61689C4.33782 6.74452 4.63885 6.65046 4.76648 6.40681C5.8685 4.30301 8.02715 2.9961 10.4 2.9961C13.8999 2.9961 16.748 5.84016 16.7549 9.33856L16.3553 8.93893C16.1608 8.74442 15.8455 8.74442 15.651 8.93893C15.4565 9.13343 15.4565 9.44876 15.651 9.64327L16.8781 10.8704C16.9694 10.975 17.1034 11.0415 17.2532 11.0415C17.4082 11.0415 17.5466 10.9706 17.638 10.8595L18.8542 9.6433C19.0488 9.44876 19.0488 9.13343 18.8543 8.93896Z" fill="white" stroke="white" stroke-width="0.5"/>
<path d="M11.1809 8.98998C10.7304 8.8307 10.2321 8.63836 9.95265 8.41918C9.86479 8.35032 9.82684 8.1926 9.85809 8.02675C9.87366 7.94401 9.94651 7.66746 10.2294 7.58222C10.6938 7.44237 11.0124 7.62788 11.1277 7.71414C11.3481 7.8788 11.6601 7.83374 11.8248 7.61344C11.9896 7.39313 11.9445 7.08102 11.7242 6.9163C11.6197 6.83814 11.3578 6.66681 10.9824 6.5836V6.38086C10.9824 6.10581 10.7594 5.88281 10.4843 5.88281C10.2093 5.88281 9.98628 6.10581 9.98628 6.38086V6.61604C9.97154 6.62016 9.95693 6.62394 9.94209 6.62843C9.39663 6.79275 8.98936 7.25786 8.87922 7.84224C8.77785 8.38013 8.9536 8.90152 9.33789 9.20294C9.65452 9.45127 10.0923 9.66165 10.849 9.92913C11.3527 10.1072 11.3418 10.5149 11.3137 10.682C11.2568 11.0206 10.9719 11.3866 10.481 11.3898C9.9996 11.3932 9.84959 11.3692 9.47977 11.1273C9.2496 10.9767 8.94091 11.0412 8.7903 11.2714C8.63973 11.5016 8.70424 11.8103 8.93444 11.9608C9.33331 12.2218 9.62762 12.3276 9.98628 12.3663V12.5939C9.98628 12.869 10.2093 13.0919 10.4843 13.0919C10.7594 13.0919 10.9824 12.869 10.9824 12.5939V12.3184C11.2568 12.2429 11.5068 12.1049 11.7205 11.9085C12.0234 11.6303 12.2277 11.2533 12.296 10.8471C12.4349 10.0212 11.9868 9.27483 11.1809 8.98998Z" fill="white" stroke="white" stroke-width="0.5"/>
</svg>
