<svg width="18" height="18" viewBox="0 0 18 18" fill="none" xmlns="http://www.w3.org/2000/svg">
<path d="M1.96875 16.875H13.2188C13.4425 16.875 13.6571 16.7861 13.8154 16.6279C13.9736 16.4696 14.0625 16.255 14.0625 16.0312V4.5C14.0625 4.35082 14.0032 4.20774 13.8977 4.10225C13.7923 3.99676 13.6492 3.9375 13.5 3.9375H1.96875C1.74497 3.9375 1.53036 4.02639 1.37213 4.18463C1.2139 4.34286 1.125 4.55747 1.125 4.78125V16.0312C1.125 16.255 1.2139 16.4696 1.37213 16.6279C1.53036 16.7861 1.74497 16.875 1.96875 16.875Z" fill="white"/>
<path d="M14.0625 2.8125H3.9375V1.96875C3.9375 1.74497 4.02639 1.53036 4.18463 1.37213C4.34286 1.21389 4.55747 1.125 4.78125 1.125H15.8906C16.1517 1.125 16.4021 1.22871 16.5867 1.41332C16.7713 1.59792 16.875 1.8483 16.875 2.10938V13.2188C16.875 13.4425 16.7861 13.6571 16.6279 13.8154C16.4696 13.9736 16.255 14.0625 16.0312 14.0625H15.1875V3.9375C15.1875 3.63913 15.069 3.35298 14.858 3.142C14.647 2.93103 14.3609 2.8125 14.0625 2.8125Z" fill="white"/>
</svg>
