<svg width="18" height="29" viewBox="0 0 18 29" fill="none" xmlns="http://www.w3.org/2000/svg">
<path d="M5.46875 7.66797C5.46875 5.88672 6.45312 4.86719 8.42188 4.60938C8.49219 4.60938 8.53906 4.60938 8.5625 4.60938V11.8867C6.59375 10.5742 5.5625 9.16797 5.46875 7.66797ZM12.957 20.5703C12.9102 22.6562 11.7852 23.8633 9.58203 24.1914V16.2812C11.5508 17.3594 12.6523 18.5547 12.8867 19.8672C12.9336 20.1016 12.957 20.3359 12.957 20.5703ZM9.58203 28.1992V25.3164C12.6055 25.1055 14.75 24.1445 16.0156 22.4336C16.6953 21.4961 17.0352 20.4297 17.0352 19.2344C17.0352 17.4062 15.9805 15.8594 13.8711 14.5938C13.5664 14.3828 12.2656 13.7148 9.96875 12.5898C9.82812 12.5195 9.69922 12.4609 9.58203 12.4141V4.57422C10.7773 4.57422 11.5273 5.07813 11.832 6.08594C11.9023 6.29688 11.9727 6.625 12.043 7.07031C12.2539 8.125 12.5586 8.80469 12.957 9.10938C13.332 9.36719 13.8242 9.49609 14.4336 9.49609C15.4883 9.49609 16.1094 8.98047 16.2969 7.94922C16.3203 7.76172 16.332 7.58594 16.332 7.42188C16.332 6.08594 15.3594 5.04297 13.4141 4.29297C12.2656 3.87109 10.9883 3.625 9.58203 3.55469V0.425781H8.5625V3.55469C5.75 3.67188 3.6875 4.46875 2.375 5.94531C1.60156 6.83594 1.21484 7.87891 1.21484 9.07422C1.21484 10.8789 2.30469 12.4375 4.48438 13.75C4.76562 13.9141 6.07812 14.5703 8.42188 15.7188C8.49219 15.7422 8.53906 15.7656 8.5625 15.7891V24.2969H8.28125C6.875 24.2969 5.98438 23.7461 5.60938 22.6445C5.51562 22.4102 5.42188 22.0469 5.32812 21.5547C5.09375 20.4531 4.76562 19.7383 4.34375 19.4102C3.94531 19.1289 3.41797 18.9883 2.76172 18.9883C1.66016 18.9883 0.945312 19.4453 0.617188 20.3594C0.546875 20.5938 0.511719 20.8398 0.511719 21.0977C0.511719 22.4102 1.34375 23.4766 3.00781 24.2969C4.46094 25 6.3125 25.3516 8.5625 25.3516V28.1992H9.58203Z" fill="white"/>
</svg>
