<svg width="10" height="10" viewBox="0 0 10 10" fill="none" xmlns="http://www.w3.org/2000/svg">
<path d="M4.25223 0.652902L4.74777 0.157366C4.95759 -0.0524554 5.29688 -0.0524554 5.50446 0.157366L9.84375 4.49442C10.0536 4.70424 10.0536 5.04353 9.84375 5.25112L5.50446 9.59041C5.29464 9.80023 4.95536 9.80023 4.74777 9.59041L4.25223 9.09487C4.04018 8.88282 4.04464 8.53684 4.26116 8.32925L6.95089 5.76675H0.535714C0.238839 5.76675 0 5.52791 0 5.23103V4.51674C0 4.21987 0.238839 3.98103 0.535714 3.98103H6.95089L4.26116 1.41853C4.04241 1.21094 4.03795 0.864956 4.25223 0.652902Z" fill="#16A0CC"/>
</svg>
