<svg width="25" height="31" viewBox="0 0 25 31" fill="none" xmlns="http://www.w3.org/2000/svg">
<path fill-rule="evenodd" clip-rule="evenodd" d="M19.7071 10.3253H4.20152C2.97817 10.3253 1.98645 11.317 1.98645 12.5404V26.9384C1.98645 28.1617 2.97817 29.1534 4.20152 29.1534H19.7071C20.9304 29.1534 21.9221 28.1617 21.9221 26.9384V12.5404C21.9221 11.317 20.9304 10.3253 19.7071 10.3253ZM4.20152 9.21774C2.36649 9.21774 0.878906 10.7053 0.878906 12.5404V26.9384C0.878906 28.7734 2.36649 30.261 4.20152 30.261H19.7071C21.5421 30.261 23.0297 28.7734 23.0297 26.9384V12.5404C23.0297 10.7053 21.5421 9.21774 19.7071 9.21774H4.20152Z" fill="white"/>
<path fill-rule="evenodd" clip-rule="evenodd" d="M20.0282 10.329H18.1699V9.2215H20.0282C22.7306 9.2215 24.9213 10.957 24.9213 13.0979V26.3881C24.9213 28.5289 22.7306 30.2644 20.0282 30.2644H18.1699V29.1569H20.0282C21.9585 29.1569 23.5233 27.9172 23.5233 26.3881V13.0979C23.5233 11.5687 21.9585 10.329 20.0282 10.329Z" fill="white"/>
<path fill-rule="evenodd" clip-rule="evenodd" d="M19.2294 10.3291H17.3711V9.22153H19.2294C21.9318 9.22153 24.1225 10.957 24.1225 13.0979V26.3881C24.1225 28.529 21.9318 30.2645 19.2294 30.2645H17.3711V29.1569H19.2294C21.1597 29.1569 22.7245 27.9173 22.7245 26.3881V13.0979C22.7245 11.5687 21.1597 10.3291 19.2294 10.3291Z" fill="white"/>
<path fill-rule="evenodd" clip-rule="evenodd" d="M11.8117 16.1334C12.0491 16.0977 12.2895 16.0959 12.5276 16.1285C12.8238 16.1691 13.2853 16.2521 13.7299 16.415C14.1644 16.5743 14.6366 16.829 14.8884 17.2461C15.0843 17.5705 15.0472 17.976 14.9486 18.334C14.8466 18.7038 14.6593 19.0936 14.4627 19.4413C14.2648 19.7913 14.0505 20.1109 13.8864 20.3421C13.8107 20.4487 13.7454 20.537 13.6967 20.6016L15.4258 25.7381H8.46484L10.4046 20.5808C10.3644 20.5153 10.3101 20.4252 10.2474 20.3164C10.113 20.083 9.93822 19.761 9.77943 19.4093C9.62158 19.0597 9.47447 18.67 9.40179 18.3035C9.33134 17.9482 9.3186 17.5554 9.50236 17.2474C9.74522 16.8403 10.2071 16.5879 10.6314 16.4283C11.0663 16.2646 11.5194 16.1773 11.8117 16.1334ZM10.9442 20.399L11.0205 20.5164L9.26478 25.1843H14.655L13.0766 20.4954L13.1704 20.3775L13.1713 20.3764L13.1747 20.3721L13.1887 20.3542C13.2011 20.3383 13.2195 20.3144 13.2429 20.2836C13.2897 20.2218 13.3563 20.1321 13.4348 20.0216C13.5921 19.7999 13.7951 19.497 13.9807 19.1687C14.1676 18.8381 14.3302 18.4935 14.4147 18.1869C14.5025 17.8684 14.4885 17.6552 14.4143 17.5323C14.2629 17.2815 13.9413 17.0823 13.5394 16.935C13.1476 16.7914 12.73 16.7152 12.4524 16.6772C12.2669 16.6518 12.0795 16.6531 11.8941 16.681C11.6199 16.7222 11.2097 16.8023 10.8264 16.9466C10.4324 17.0949 10.1212 17.291 9.97794 17.5311C9.90258 17.6574 9.88178 17.877 9.94498 18.1957C10.006 18.5033 10.1342 18.8494 10.2841 19.1814C10.4331 19.5113 10.5985 19.8165 10.7273 20.04C10.7915 20.1515 10.8462 20.242 10.8847 20.3043C10.9039 20.3354 10.919 20.3595 10.9293 20.3756L10.9408 20.3936L10.9435 20.3979L10.9442 20.399Z" fill="white"/>
<path fill-rule="evenodd" clip-rule="evenodd" d="M11.8427 16.1285C12.0801 16.0928 12.7765 16.0959 13.0146 16.1285C13.3108 16.1691 13.7723 16.2521 14.2169 16.415C14.6514 16.5743 15.1236 16.829 15.3754 17.2461C15.5713 17.5705 15.5342 17.9759 15.4356 18.334C15.3337 18.7038 15.1464 19.0935 14.9498 19.4412C14.7518 19.7913 14.5375 20.1109 14.3734 20.3421C14.2978 20.4486 14.2324 20.537 14.1837 20.6016L15.9128 25.738H8.95186L10.8916 20.5808C10.8514 20.5153 10.7971 20.4252 10.7344 20.3164C10.6 20.083 10.4252 19.7609 10.2664 19.4093C10.1086 19.0597 9.96148 18.67 9.8888 18.3034C9.81835 17.9481 9.80561 17.5554 9.98937 17.2474C10.2322 16.8402 10.6941 16.5879 11.1184 16.4283C11.5533 16.2646 11.5504 16.1725 11.8427 16.1285ZM10.432 19.7559L10.7344 20.6016L8.78516 25.4191L15.142 25.1843L13.5636 20.4954L13.6575 20.3775L13.6583 20.3764L13.6617 20.3721L13.6757 20.3542C13.6881 20.3382 13.7065 20.3144 13.7299 20.2835C13.7767 20.2218 13.8433 20.1321 13.9218 20.0216C14.0791 19.7999 14.2821 19.497 14.4677 19.1687C14.6547 18.838 14.8172 18.4935 14.9017 18.1868C14.9895 17.8684 14.9755 17.6551 14.9014 17.5323C14.7499 17.2815 14.4283 17.0823 14.0264 16.935C13.6346 16.7914 13.217 16.7152 12.9394 16.6772C12.7539 16.6518 12.2167 16.3033 12.0313 16.3312C11.7572 16.3724 11.347 16.4526 10.9637 16.5968C10.5696 16.7451 10.0196 17.2909 9.87633 17.5311C9.80097 17.6574 9.78016 17.8769 9.84337 18.1957C9.90434 18.5032 9.83946 18.8494 9.98937 19.1814C10.1383 19.5113 10.3804 19.8788 10.5092 20.1023C10.5734 20.2138 10.6281 20.3043 10.6666 20.3666C10.2664 20.4379 10.432 20.4602 10.7112 20.4379L10.7227 20.4559L10.7254 20.4602L10.432 19.7559Z" fill="white"/>
<path fill-rule="evenodd" clip-rule="evenodd" d="M11.997 1.25872C9.1991 1.25877 7.63123 3.2322 7.25305 4.24739C7.16888 4.47332 7.09183 4.88413 7.03022 5.4214C6.97031 5.94381 6.92975 6.53901 6.90248 7.10471C6.87526 7.66925 6.86157 8.19827 6.85469 8.58652C6.85125 8.78049 6.84952 8.93892 6.84865 9.0486L6.84789 9.17483L6.84779 9.20737L6.84777 9.21737L5.74023 9.2175L5.74025 9.20516L5.74036 9.17056L5.74115 9.03982C5.74204 8.927 5.74381 8.76492 5.74732 8.5669C5.75433 8.17119 5.76831 7.63038 5.79622 7.05138C5.82408 6.47355 5.86609 5.85153 5.92989 5.29522C5.99198 4.75377 6.07974 4.22435 6.21519 3.86075C6.71547 2.51782 8.63311 0.151239 11.997 0.151184C13.6877 0.151156 15.0179 0.798795 15.9713 1.57637C16.9134 2.34478 17.5109 3.25854 17.743 3.85247C17.8715 4.18119 17.9493 4.7001 18.0035 5.22474C18.0599 5.7716 18.0971 6.3985 18.1216 6.98677C18.1463 7.57632 18.1586 8.13348 18.1647 8.54285C18.1678 8.74769 18.1693 8.9159 18.1701 9.03312L18.1707 9.16898L18.1708 9.20492L18.1708 9.21677L17.0633 9.21773L17.0633 9.20658L17.0632 9.17241L17.0626 9.0404C17.0618 8.92587 17.0603 8.76079 17.0573 8.55946C17.0512 8.15646 17.0392 7.60971 17.0151 7.033C16.9909 6.45502 16.9549 5.85333 16.9018 5.33851C16.8463 4.80147 16.7779 4.4256 16.7115 4.25567C16.5538 3.85231 16.0766 3.09148 15.2713 2.43464C14.4772 1.78697 13.3871 1.2587 11.997 1.25872Z" fill="white"/>
<path fill-rule="evenodd" clip-rule="evenodd" d="M11.9898 3.43107C10.1738 3.43111 9.13078 4.81798 8.87444 5.55964C8.81943 5.71881 8.76714 6.01589 8.72495 6.41241C8.68411 6.79625 8.65641 7.23413 8.63777 7.65093C8.61917 8.06675 8.60981 8.4565 8.60511 8.74259C8.60276 8.8855 8.60158 9.00222 8.60098 9.083L8.60046 9.17592L8.60039 9.19983L8.60038 9.20714L7.57227 9.20719L7.57228 9.198L7.57235 9.17238L7.57289 9.07573C7.57351 8.99235 7.57472 8.87262 7.57712 8.72636C7.58193 8.43409 7.59151 8.03459 7.61064 7.60679C7.62973 7.17997 7.65855 6.71986 7.70238 6.30789C7.74486 5.9086 7.80539 5.51204 7.90069 5.2363C8.24563 4.2383 9.58834 2.4234 11.9898 2.42336C13.1988 2.42333 14.1445 2.92325 14.8137 3.51158C15.4738 4.09187 15.8912 4.77989 16.0541 5.22922C16.1452 5.48043 16.1988 5.87047 16.2358 6.25647C16.2746 6.66137 16.3 7.125 16.3169 7.55944C16.3338 7.99495 16.3422 8.40646 16.3464 8.70875C16.3485 8.86002 16.3496 8.98426 16.3501 9.07086L16.3505 9.17126L16.3506 9.19785L16.3506 9.20665L15.3225 9.20738L15.3225 9.19922L15.3224 9.17409L15.322 9.07688C15.3215 8.99251 15.3204 8.87086 15.3184 8.72249C15.3142 8.42547 15.306 8.02258 15.2895 7.5977C15.273 7.17176 15.2484 6.72903 15.2122 6.35069C15.1741 5.95345 15.1277 5.68338 15.0854 5.56672C14.9815 5.28031 14.6632 4.73293 14.1273 4.26177C13.6005 3.79864 12.8896 3.43106 11.9898 3.43107Z" fill="white"/>
<path fill-rule="evenodd" clip-rule="evenodd" d="M15.818 2.35508C14.8132 1.6366 15.4169 0.690866 13.442 1.0151L11.1953 0.254941C13.4847 -0.120941 15.2409 0.580847 16.4622 1.45416C17.6639 2.31342 18.3593 3.40852 18.5927 4.00565C18.7211 4.33437 18.7989 4.85328 18.8531 5.37792C18.9096 5.92478 18.9467 6.55168 18.9713 7.13995C18.9959 7.7295 19.0082 8.28666 19.0143 8.69603C19.0174 8.90087 19.0189 9.06908 19.0197 9.1863L19.0204 9.32216L19.0205 9.35809L19.0205 9.36994L17.9129 9.37091L17.9129 9.35976L17.9128 9.32559L17.9122 9.19357C17.9114 9.07904 17.9099 8.91397 17.9069 8.71263C17.9009 8.30964 17.8888 7.76289 17.8647 7.18618C17.8405 6.60819 17.8046 6.00651 17.7514 5.49169C17.6959 4.95465 17.6275 4.57878 17.5611 4.40885C17.4047 4.00868 16.8425 3.08763 15.818 2.35508Z" fill="white"/>
</svg>
