<svg width="24" height="24" viewBox="0 0 24 24" fill="none" xmlns="http://www.w3.org/2000/svg">
<path d="M16.9167 1H8.75455C7.59953 1 6.67551 1.92402 6.67551 3.07904V16.8623C6.67551 18.0174 7.59953 18.9414 8.75455 18.9414H19.3038C20.4588 18.9414 21.3828 18.0174 21.3828 16.8623V5.46609" stroke="white" stroke-linecap="round" stroke-linejoin="round"/>
<path d="M16.9167 1V4.00306C16.9167 4.77308 17.5327 5.46609 18.3798 5.46609H21.3828" stroke="white" stroke-linecap="round" stroke-linejoin="round"/>
<path d="M16.9167 1L21.3828 5.46609" stroke="white" stroke-linecap="round" stroke-linejoin="round"/>
<path d="M12.8581 5.05864H4.69596C3.54094 5.05864 2.61692 5.98266 2.61692 7.13768V20.921C2.61692 22.076 3.54094 23 4.69596 23H15.2452C16.4002 23 17.3242 22.076 17.3242 20.921V9.52473" stroke="white" stroke-linecap="round" stroke-linejoin="round"/>
<path d="M12.8581 5.05864V8.0617C12.8581 8.83172 13.4741 9.52473 14.3212 9.52473H17.3242" stroke="white" stroke-linecap="round" stroke-linejoin="round"/>
<path d="M12.8581 5.05864L17.3242 9.52473" stroke="white" stroke-linecap="round" stroke-linejoin="round"/>
</svg>
