<svg width="18" height="18" viewBox="0 0 18 18" fill="none" xmlns="http://www.w3.org/2000/svg">
<path d="M9.00012 17.3029C13.5857 17.3029 17.303 13.5856 17.303 9.00006C17.303 4.41452 13.5857 0.697205 9.00012 0.697205C4.41458 0.697205 0.697266 4.41452 0.697266 9.00006C0.697266 13.5856 4.41458 17.3029 9.00012 17.3029Z" fill="#219653"/>
<path d="M9 18C4.0378 18 0 13.9629 0 9C0 4.0378 4.0378 0 9 0C13.9629 0 18 4.0378 18 9C18 13.9629 13.9629 18 9 18ZM9 1.39426C4.80604 1.39426 1.39426 4.80604 1.39426 9C1.39426 13.194 4.80604 16.6057 9 16.6057C13.194 16.6057 16.6057 13.1933 16.6057 9C16.6057 4.80604 13.194 1.39426 9 1.39426Z" fill="#219653"/>
<path d="M7.91306 12.3114C7.72624 12.3114 7.54775 12.2368 7.41599 12.1029L4.84357 9.48869C4.57378 9.21401 4.57726 8.77343 4.85194 8.50294C5.12661 8.23386 5.56789 8.23664 5.83768 8.51131L7.89285 10.5999L12.1447 5.91728C12.4047 5.63216 12.8453 5.61195 13.129 5.86989C13.4141 6.12853 13.4351 6.56911 13.1764 6.85493L8.42894 12.0834C8.29999 12.2256 8.11873 12.3079 7.92702 12.312C7.92213 12.3114 7.91795 12.3114 7.91306 12.3114Z" fill="white"/>
</svg>
