<svg width="11" height="11" viewBox="0 0 11 11" fill="none" xmlns="http://www.w3.org/2000/svg">
<g clip-path="url(#clip0_1498_9805)">
<path d="M8.67188 5.84375C8.67188 6.70323 8.3364 7.51203 7.7268 8.12133C7.11752 8.73093 6.3087 9.06641 5.44922 9.06641C4.58974 9.06641 3.78094 8.73093 3.17164 8.12133C2.56204 7.51205 2.22656 6.70323 2.22656 5.84375C2.22656 4.98427 2.56204 4.17547 3.17164 3.56617C3.78094 2.95657 4.58974 2.62109 5.44922 2.62109C5.99273 2.62109 6.52019 2.75737 6.99352 3.01795L5.73593 4.55469H10.7052L9.46276 0L8.2297 1.5067C7.39667 0.969805 6.44152 0.6875 5.44922 0.6875C4.07173 0.6875 2.77667 1.22377 1.80328 2.19781C0.82924 3.1712 0.292969 4.46626 0.292969 5.84375C0.292969 7.22124 0.82924 8.5163 1.80328 9.48969C2.77669 10.4637 4.07173 11 5.44922 11C6.82671 11 8.12177 10.4637 9.09516 9.48969C10.0692 8.51628 10.6055 7.22124 10.6055 5.84375V5.52148H8.67188V5.84375Z" fill="url(#paint0_linear_1498_9805)"/>
</g>
<defs>
<linearGradient id="paint0_linear_1498_9805" x1="5.49911" y1="0" x2="5.49911" y2="11" gradientUnits="userSpaceOnUse">
<stop offset="0.171875" stop-color="#24E4F9"/>
<stop offset="0.682292" stop-color="#DA61E5"/>
</linearGradient>
<clipPath id="clip0_1498_9805">
<rect width="11" height="11" fill="white"/>
</clipPath>
</defs>
</svg>
