<svg width="18" height="18" viewBox="0 0 18 18" fill="none" xmlns="http://www.w3.org/2000/svg">
<path d="M9 18C4.03714 18 0 13.9629 0 9C0 4.03714 4.03714 0 9 0C13.9629 0 18 4.03714 18 9C18 13.9629 13.9629 18 9 18ZM9 1.71429C4.98257 1.71429 1.71429 4.98257 1.71429 9C1.71429 13.0174 4.98257 16.2857 9 16.2857C13.0174 16.2857 16.2857 13.0174 16.2857 9C16.2857 4.98257 13.0174 1.71429 9 1.71429Z" fill="white"/>
<path d="M8.99833 8.57366H7.71261C7.23861 8.57366 6.85547 8.19052 6.85547 7.71652C6.85547 7.24252 7.23861 6.85938 7.71261 6.85938H8.99833C9.47233 6.85938 9.85547 7.24252 9.85547 7.71652C9.85547 8.19052 9.47233 8.57366 8.99833 8.57366Z" fill="white"/>
<path d="M9.00167 12.856C8.52767 12.856 8.14453 12.4728 8.14453 11.9988V7.71652C8.14453 7.24252 8.52767 6.85938 9.00167 6.85938C9.47567 6.85938 9.85882 7.24252 9.85882 7.71652V11.9988C9.85882 12.4728 9.47567 12.856 9.00167 12.856Z" fill="white"/>
<path d="M10.284 12.8588H7.71261C7.23861 12.8588 6.85547 12.4757 6.85547 12.0017C6.85547 11.5277 7.23861 11.1445 7.71261 11.1445H10.284C10.758 11.1445 11.1412 11.5277 11.1412 12.0017C11.1412 12.4757 10.758 12.8588 10.284 12.8588Z" fill="white"/>
<path d="M9.02549 5.99554C8.55149 5.99554 8.16406 5.61239 8.16406 5.13839C8.16406 4.66439 8.54292 4.28125 9.01607 4.28125H9.02549C9.49864 4.28125 9.88264 4.66439 9.88264 5.13839C9.88264 5.61239 9.49864 5.99554 9.02549 5.99554V5.99554Z" fill="white"/>
</svg>
