<svg width="24" height="24" viewBox="0 0 24 24" fill="none" xmlns="http://www.w3.org/2000/svg">
<path d="M20.6586 1.64782C19.449 0.440309 17.4901 0.440309 16.2805 1.64782L15.1845 2.74977L3.51828 14.4098L3.49349 14.4348C3.48749 14.4408 3.48749 14.4472 3.48109 14.4472C3.4687 14.4658 3.4501 14.4842 3.4379 14.5028C3.4379 14.509 3.43151 14.509 3.43151 14.5152C3.41911 14.5338 3.41311 14.5462 3.40051 14.5648C3.39451 14.571 3.39451 14.577 3.38831 14.5834C3.38211 14.602 3.37592 14.6144 3.36952 14.633C3.36952 14.639 3.36352 14.639 3.36352 14.6454L0.775127 22.4289C0.699198 22.6505 0.75692 22.8959 0.923694 23.0604C1.04088 23.176 1.19894 23.2407 1.36339 23.2402C1.4306 23.239 1.49723 23.2285 1.56154 23.2092L9.33911 20.6146C9.34512 20.6146 9.34512 20.6146 9.35151 20.6086C9.37107 20.6028 9.38986 20.5944 9.4071 20.5836C9.41194 20.583 9.4162 20.5809 9.41969 20.5776C9.43809 20.5652 9.46289 20.5526 9.48148 20.5402C9.49988 20.528 9.51867 20.5094 9.53727 20.497C9.54346 20.4906 9.54947 20.4906 9.54947 20.4846C9.55586 20.4784 9.56826 20.4724 9.57446 20.4598L22.3367 7.6976C23.5442 6.48796 23.5442 4.52909 22.3367 3.31963L20.6586 1.64782ZM9.14096 19.1593L4.83117 14.8497L15.618 4.06285L19.9278 8.37245L9.14096 19.1593ZM4.22412 15.9953L7.98923 19.7602L2.33556 21.6425L4.22412 15.9953ZM21.4637 6.83061L20.8072 7.49325L16.4972 3.18327L17.1601 2.52082C17.8851 1.79639 19.0603 1.79639 19.7855 2.52082L21.4697 4.20503C22.1893 4.93334 22.1865 6.10579 21.4637 6.83061Z" fill="#8B98A4" stroke="#8B98A4" stroke-width="0.3"/>
</svg>
