<svg width="20" height="20" viewBox="0 0 20 20" fill="none" xmlns="http://www.w3.org/2000/svg">
<path d="M15.1942 4H5.80552C5.32684 4.00057 4.86793 4.19098 4.52946 4.52946C4.19098 4.86793 4.00057 5.32684 4 5.80552V15.1942C4.0005 15.6729 4.19088 16.1318 4.52937 16.4703C4.86786 16.8088 5.32682 16.9992 5.80552 16.9997H10.861C10.9567 16.9997 11.0486 16.9617 11.1163 16.8939C11.184 16.8262 11.2221 16.7344 11.2221 16.6386C11.2221 16.5428 11.184 16.451 11.1163 16.3833C11.0486 16.3155 10.9567 16.2775 10.861 16.2775H5.80552C5.5183 16.2772 5.24295 16.1629 5.03986 15.9598C4.83677 15.7568 4.72253 15.4814 4.72221 15.1942V5.80552C4.72253 5.5183 4.83677 5.24295 5.03986 5.03986C5.24295 4.83677 5.5183 4.72253 5.80552 4.72221H8.33324V8.69434C8.33324 8.79011 8.37128 8.88196 8.439 8.94968C8.50672 9.0174 8.59857 9.05544 8.69434 9.05544H12.3054C12.4011 9.05544 12.493 9.0174 12.5607 8.94968C12.6284 8.88196 12.6665 8.79011 12.6665 8.69434V4.72221H15.1942C15.4814 4.72253 15.7568 4.83677 15.9598 5.03986C16.1629 5.24295 16.2772 5.5183 16.2775 5.80552V11.5832C16.2775 11.6789 16.3155 11.7708 16.3833 11.8385C16.451 11.9062 16.5428 11.9443 16.6386 11.9443C16.7344 11.9443 16.8262 11.9062 16.8939 11.8385C16.9617 11.7708 16.9997 11.6789 16.9997 11.5832V5.80552C16.9991 5.32684 16.8087 4.86793 16.4703 4.52946C16.1318 4.19098 15.6729 4.00057 15.1942 4ZM11.9443 8.33324H9.05544V4.72221H11.9443V8.33324Z" fill="white" stroke="white" stroke-width="0.8"/>
<path d="M16.9998 15.1939C16.9998 15.2897 16.9618 15.3815 16.894 15.4492C16.8263 15.5169 16.7345 15.555 16.6387 15.555H13.8994L14.3663 16.0219C14.4008 16.0552 14.4283 16.095 14.4472 16.1391C14.4661 16.1832 14.4761 16.2305 14.4765 16.2785C14.4769 16.3264 14.4678 16.374 14.4496 16.4184C14.4315 16.4627 14.4047 16.5031 14.3707 16.537C14.3368 16.5709 14.2965 16.5977 14.2521 16.6158C14.2078 16.634 14.1602 16.6431 14.1123 16.6427C14.0643 16.6423 14.0169 16.6323 13.9729 16.6134C13.9288 16.5945 13.889 16.567 13.8557 16.5325L12.7728 15.4496C12.7051 15.3817 12.6671 15.2898 12.6671 15.1939C12.6671 15.098 12.7051 15.0061 12.7728 14.9381L13.8557 13.8553C13.9238 13.7895 14.015 13.7531 14.1097 13.7539C14.2044 13.7547 14.2949 13.7927 14.3619 13.8597C14.4288 13.9266 14.4668 14.0172 14.4676 14.1119C14.4684 14.2066 14.432 14.2978 14.3663 14.3659L13.8994 14.8328H16.6387C16.7345 14.8328 16.8263 14.8708 16.894 14.9385C16.9618 15.0063 16.9998 15.0981 16.9998 15.1939Z" fill="white" stroke="white" stroke-width="0.8"/>
</svg>
