<svg width="17" height="17" viewBox="0 0 17 17" fill="none" xmlns="http://www.w3.org/2000/svg">
<path d="M2.88531 2.88631C4.10171 1.6699 5.71899 1 7.43921 1C9.15944 1 10.7767 1.6699 11.9931 2.88631C13.2095 4.10269 13.8794 5.71996 13.8794 7.44016C13.8794 9.0129 13.3191 10.4994 12.2935 11.6723L15.8701 15.249C16.0419 15.4208 16.0419 15.6993 15.8701 15.8712C15.7842 15.957 15.6717 16 15.5591 16C15.4465 16 15.3339 15.9571 15.2481 15.8711L11.6714 12.2945C10.4984 13.3201 9.01195 13.8804 7.43921 13.8804C5.71896 13.8804 4.10174 13.2105 2.88533 11.9941C1.66896 10.7777 0.999057 9.16041 0.999057 7.44019C0.999057 5.71996 1.66893 4.10269 2.88531 2.88631ZM3.50745 11.3719C5.67545 13.5399 9.20294 13.5399 11.3709 11.3719C13.5389 9.20397 13.5389 5.67643 11.3709 3.50846C10.2868 2.42436 8.86324 1.88248 7.43918 1.88248C6.01547 1.88248 4.59129 2.42462 3.50742 3.50846C1.33951 5.6764 1.33952 9.20395 3.50745 11.3719Z" fill="#000A1D" stroke="#000A1D" stroke-width="0.5"/>
</svg>
