<svg width="33" height="33" viewBox="0 0 33 33" fill="none" xmlns="http://www.w3.org/2000/svg">
<path d="M16.5038 32.6443C25.4201 32.6443 32.6482 25.4162 32.6482 16.4999C32.6482 7.58358 25.4201 0.355469 16.5038 0.355469C7.58748 0.355469 0.359375 7.58358 0.359375 16.4999C0.359375 25.4162 7.58748 32.6443 16.5038 32.6443Z" fill="url(#paint0_linear_63_6816)"/>
<path d="M24.7442 10.2636C24.3928 9.91213 23.823 9.91213 23.4714 10.2636L12.6889 21.0463L8.54423 16.9016C8.19277 16.5502 7.62296 16.5502 7.27143 16.9016C6.91994 17.2531 6.91994 17.8229 7.27143 18.1744L12.0525 22.9554C12.4038 23.3068 12.9741 23.3066 13.3253 22.9554L24.7442 11.5364C25.0957 11.185 25.0957 10.6151 24.7442 10.2636Z" fill="white"/>
<defs>
<linearGradient id="paint0_linear_63_6816" x1="0.359375" y1="19.1906" x2="32.6482" y2="19.1906" gradientUnits="userSpaceOnUse">
<stop stop-color="#219653"/>
<stop offset="1" stop-color="#6FCF97"/>
</linearGradient>
</defs>
</svg>
