<svg width="19" height="18" viewBox="0 0 19 18" fill="none" xmlns="http://www.w3.org/2000/svg">
<g opacity="0.5">
<path d="M14.1059 1.00333L12.0311 1C9.70006 1 8.19366 2.54552 8.19366 4.93762V6.75313H6.1075C5.92723 6.75313 5.78125 6.89927 5.78125 7.07954V9.71001C5.78125 9.89028 5.9274 10.0363 6.1075 10.0363H8.19366V16.6738C8.19366 16.854 8.33964 17 8.51991 17H11.2418C11.422 17 11.568 16.8539 11.568 16.6738V10.0363H14.0072C14.1875 10.0363 14.3335 9.89028 14.3335 9.71001L14.3345 7.07954C14.3345 6.99299 14.3 6.91009 14.2389 6.84884C14.1778 6.78758 14.0946 6.75313 14.008 6.75313H11.568V5.2141C11.568 4.47438 11.7443 4.09886 12.7079 4.09886L14.1056 4.09836C14.2857 4.09836 14.4317 3.95222 14.4317 3.77211V1.32958C14.4317 1.14964 14.2859 1.00366 14.1059 1.00333Z" fill="#16A0CC"/>
</g>
</svg>
