<svg width="17" height="18" viewBox="0 0 17 18" fill="none" xmlns="http://www.w3.org/2000/svg">
<path d="M13.1875 11.375C12.2614 11.375 11.4385 11.8251 10.9257 12.5178L6.511 10.2618C6.58506 10.0101 6.625 9.74403 6.625 9.46875C6.625 9.09591 6.55191 8.73987 6.41956 8.41397L11.0464 5.63403C11.5627 6.23997 12.3309 6.625 13.1875 6.625C14.7383 6.625 16 5.36331 16 3.8125C16 2.26169 14.7383 1 13.1875 1C11.6367 1 10.375 2.26169 10.375 3.8125C10.375 4.17094 10.4425 4.51384 10.5653 4.82938L5.92688 7.61625C5.411 7.02819 4.65441 6.65625 3.8125 6.65625C2.26169 6.65625 1 7.91794 1 9.46875C1 11.0196 2.26169 12.2812 3.8125 12.2812C4.75381 12.2812 5.5885 11.8164 6.09928 11.1042L10.5012 13.3537C10.4192 13.6173 10.375 13.8973 10.375 14.1875C10.375 15.7383 11.6367 17 13.1875 17C14.7383 17 16 15.7383 16 14.1875C16 12.6367 14.7383 11.375 13.1875 11.375ZM13.1875 1.9375C14.2214 1.9375 15.0625 2.77863 15.0625 3.8125C15.0625 4.84637 14.2214 5.6875 13.1875 5.6875C12.1536 5.6875 11.3125 4.84637 11.3125 3.8125C11.3125 2.77863 12.1536 1.9375 13.1875 1.9375ZM3.8125 11.3438C2.77863 11.3438 1.9375 10.5026 1.9375 9.46875C1.9375 8.43488 2.77863 7.59375 3.8125 7.59375C4.84637 7.59375 5.6875 8.43488 5.6875 9.46875C5.6875 10.5026 4.84637 11.3438 3.8125 11.3438ZM13.1875 16.0625C12.1536 16.0625 11.3125 15.2214 11.3125 14.1875C11.3125 13.1536 12.1536 12.3125 13.1875 12.3125C14.2214 12.3125 15.0625 13.1536 15.0625 14.1875C15.0625 15.2214 14.2214 16.0625 13.1875 16.0625Z" fill="white" stroke="white" stroke-width="0.3"/>
</svg>
