<svg width="35" height="35" viewBox="0 0 35 35" fill="none" xmlns="http://www.w3.org/2000/svg">
<circle cx="17.5" cy="17.5" r="17.5" fill="url(#paint0_linear_63_6769)"/>
<path d="M25.6598 9.31206C25.3477 9 24.9577 8.92198 24.5676 9.07802L6.62412 15.3192C6.23405 15.4753 6 15.7093 6 16.0994C6 16.4894 6.15603 16.8015 6.54611 16.9575L14.2696 20.7023L18.0143 28.4258C18.1704 28.7378 18.4824 28.9719 18.8725 28.9719H18.9505C19.3406 28.9719 19.6526 28.7378 19.7307 28.3477L22.3052 21.0143C22.3052 20.9363 22.3832 20.9363 22.3832 20.8583L25.9719 10.4043C26.0499 10.0142 25.9719 9.62412 25.6598 9.31206ZM21.681 19.376C21.681 19.454 21.603 19.454 21.603 19.532L18.7945 27.5676L15.5959 20.9363C15.4398 20.6242 15.2058 20.3122 14.9717 20.0781C14.7377 19.8441 14.4256 19.6101 14.1136 19.454L7.40427 16.1774L23.6314 10.5603L24.8016 10.1702L24.4116 11.3405L21.681 19.376Z" fill="white" stroke="white" stroke-width="0.5"/>
<defs>
<linearGradient id="paint0_linear_63_6769" x1="1.41251e-07" y1="20.4167" x2="35" y2="20.4167" gradientUnits="userSpaceOnUse">
<stop stop-color="#2C91C0"/>
<stop offset="1" stop-color="#5BCBE4"/>
</linearGradient>
</defs>
</svg>
