<svg width="18" height="19" viewBox="0 0 18 19" fill="none" xmlns="http://www.w3.org/2000/svg">
<path d="M14.3554 3.83037C14.3655 3.9725 14.3655 4.11465 14.3655 4.25678C14.3655 8.5918 11.066 13.5868 5.03555 13.5868C3.17767 13.5868 1.45179 13.0487 0 12.1147C0.26397 12.1451 0.517752 12.1553 0.791878 12.1553C2.32485 12.1553 3.73605 11.6375 4.86296 10.7543C3.42133 10.7238 2.2132 9.77964 1.79694 8.48014C2.00001 8.51058 2.20304 8.53089 2.41626 8.53089C2.71067 8.53089 3.00511 8.49026 3.2792 8.41923C1.77666 8.11464 0.649721 6.79485 0.649721 5.20094V5.16035C1.08625 5.404 1.59391 5.55628 2.13195 5.57657C1.24869 4.98772 0.670034 3.98265 0.670034 2.84559C0.670034 2.23646 0.832441 1.67808 1.11672 1.19077C2.73095 3.18062 5.15736 4.48009 7.87816 4.62225C7.82741 4.37859 7.79694 4.12481 7.79694 3.871C7.79694 2.06387 9.25888 0.591797 11.0761 0.591797C12.0203 0.591797 12.8731 0.987736 13.4721 1.62733C14.2132 1.48521 14.9238 1.21108 15.5533 0.835454C15.3096 1.59689 14.7919 2.23649 14.1117 2.64255C14.7716 2.57152 15.4112 2.38874 16 2.13496C15.5534 2.78468 14.995 3.36334 14.3554 3.83037Z" fill="white"/>
</svg>
