<svg width="114" height="125" viewBox="0 0 114 125" fill="none" xmlns="http://www.w3.org/2000/svg">
<path d="M110.582 21.6384L56.9423 3L3.41654 21.6378C2.63307 21.9107 2.10046 22.6154 2.08325 23.4449C1.93785 30.453 1.52137 63.0373 5.77823 82.697C10.2201 103.211 50.4233 120.337 56.2417 122.718C56.7077 122.908 57.177 122.908 57.6432 122.718C63.4707 120.34 103.78 103.213 108.222 82.697C112.478 63.0382 112.062 30.456 111.917 23.4458C111.9 22.6159 111.366 21.9108 110.582 21.6384Z" stroke="url(#paint0_linear_1686_11327)" stroke-width="4"/>
<path d="M37.1414 56.8913L35.3157 58.9237C34.5856 59.7365 34.6429 60.9849 35.4444 61.7274L52.8367 77.84C54.0491 78.9631 55.9414 78.8942 57.0689 77.6859L85.6311 47.0766C86.3898 46.2635 86.3395 44.9876 85.5191 44.2367L83.4566 42.349C82.6491 41.61 81.3976 41.6574 80.6483 42.4553L54.5222 70.276L39.9912 56.7632C39.1724 56.0019 37.8885 56.0596 37.1414 56.8913Z" fill="url(#paint1_linear_1686_11327)"/>
<defs>
<linearGradient id="paint0_linear_1686_11327" x1="2" y1="3" x2="115.411" y2="6.31505" gradientUnits="userSpaceOnUse">
<stop stop-color="#DD5EE4"/>
<stop offset="1" stop-color="#20E7F9"/>
</linearGradient>
<linearGradient id="paint1_linear_1686_11327" x1="34" y1="60.3889" x2="68.8733" y2="26.7279" gradientUnits="userSpaceOnUse">
<stop stop-color="#DD5EE4"/>
<stop offset="1" stop-color="#20E7F9"/>
</linearGradient>
</defs>
</svg>
