<svg width="412" height="476" viewBox="0 0 412 476" fill="none" xmlns="http://www.w3.org/2000/svg">
<path d="M2.56191 8.48033H408.807M295.589 13.6808H115.78C112.701 13.6808 109.711 12.6414 107.297 10.7309L98.9775 4.14958C96.5626 2.2391 93.5735 1.19971 90.4943 1.19971H14.2628C6.71144 1.19971 0.589844 7.32129 0.589844 14.8727V461.808C0.589844 469.359 6.71145 475.481 14.2628 475.481H397.106C404.657 475.481 410.779 469.359 410.779 461.808V14.8727C410.779 7.3213 404.657 1.19971 397.106 1.19971H320.874C317.795 1.19971 314.806 2.2391 312.391 4.14958L304.072 10.7309C301.657 12.6414 298.668 13.6808 295.589 13.6808Z" stroke="white" stroke-opacity="0.6" stroke-miterlimit="10"/>
</svg>
