<svg width="25" height="24" viewBox="0 0 25 24" fill="none" xmlns="http://www.w3.org/2000/svg">
<g opacity="0.5" clip-path="url(#clip0_1019_4612)">
<path d="M12.375 0C5.73942 0 0.375 5.36442 0.375 12C0.375 18.6356 5.73942 24 12.375 24C19.0106 24 24.375 18.6356 24.375 12C24.375 5.36442 19.0106 0 12.375 0ZM8.75291 1.63436C8.11978 2.5227 7.57991 3.46012 7.12837 4.44172H4.40445C5.59218 3.18528 7.07929 2.2135 8.75291 1.63436ZM3.54555 5.46258H6.69647C5.95537 7.37178 5.54801 9.40859 5.48911 11.4896H1.41058C1.51365 9.23681 2.28911 7.16074 3.54555 5.46258ZM3.54555 18.5374C2.28911 16.8393 1.51365 14.7632 1.41058 12.5104H5.48911C5.54801 14.5914 5.97009 16.6282 6.7161 18.5374H3.54555ZM4.40445 19.5583H7.15291C7.60936 20.5399 8.14923 21.4871 8.77255 22.3755C7.09402 21.7963 5.59709 20.8196 4.40445 19.5583ZM11.8646 22.9693C11.3541 22.9448 10.8486 22.8859 10.3578 22.7975C9.5431 21.7914 8.84617 20.7067 8.28175 19.5632H11.8646V22.9693ZM11.8646 18.5374H7.81549C7.02531 16.6331 6.57377 14.5963 6.50997 12.5104H11.8646V18.5374ZM11.8646 11.4896H6.50997C6.57377 9.40859 7.0204 7.36687 7.80567 5.46258H11.8646V11.4896ZM11.8695 4.44172H11.8646H8.27193C8.84126 3.28834 9.53819 2.20368 10.3578 1.20736C10.8486 1.11411 11.3541 1.06012 11.8695 1.03558V4.44172ZM21.2044 5.46258C22.4609 7.16074 23.2413 9.2319 23.3394 11.4896H19.2609C19.202 9.40859 18.7799 7.37178 18.0339 5.46258H21.2044ZM20.3456 4.44172H17.5971C17.1406 3.46012 16.6008 2.51288 15.9725 1.62454C17.656 2.20368 19.1529 3.18037 20.3456 4.44172ZM12.8854 1.03558C13.3959 1.06012 13.9014 1.11902 14.3922 1.20736C15.2069 2.2135 15.9038 3.29816 16.4683 4.44172H12.8854V1.03558ZM12.8854 5.46258H16.9345C17.7247 7.36196 18.1762 9.40368 18.24 11.4896H12.8854V5.46258ZM12.8854 12.5104H18.24C18.1762 14.5914 17.7296 16.6331 16.9443 18.5374H12.8854V12.5104ZM12.8805 22.9644V19.5583H12.8854H16.4781C15.9087 20.7117 15.2118 21.7963 14.3922 22.7926C13.9014 22.8859 13.3959 22.9399 12.8805 22.9644ZM15.9725 22.3755C16.5959 21.4871 17.1357 20.5399 17.5873 19.5583H20.3505C19.1529 20.8196 17.656 21.7963 15.9725 22.3755ZM18.0192 18.5374C18.7554 16.6282 19.1725 14.5914 19.256 12.5104H23.3443C23.2413 14.7632 22.4658 16.8393 21.2094 18.5374H18.0192Z" fill="white"/>
</g>
<defs>
<clipPath id="clip0_1019_4612">
<rect width="24" height="24" fill="white" transform="translate(0.375)"/>
</clipPath>
</defs>
</svg>
