<svg width="497" height="318" viewBox="0 0 497 318" fill="none" xmlns="http://www.w3.org/2000/svg">
<path d="M6.912 70V1.456H24V56.176H51.744V70H6.912ZM64.683 70V1.456H109.035V15.28H81.579V28.528H104.715V42.352H81.579V56.176H109.611V70H64.683ZM139.4 70V15.28H121.736V1.456H174.152V15.28H156.488V70H139.4ZM184.789 27.856L187.669 1.456H204.469L198.613 27.856H184.789ZM211.104 58.48L224.064 50.224C225.6 52.848 227.456 54.704 229.632 55.792C231.872 56.88 234.816 57.424 238.464 57.424C244.416 57.424 247.392 55.152 247.392 50.608C247.392 48.816 246.848 47.408 245.76 46.384C244.736 45.296 242.976 44.432 240.48 43.792C234.4 42.32 230.304 41.232 228.192 40.528C226.144 39.824 224.192 38.864 222.336 37.648C217.024 34.256 214.368 28.784 214.368 21.232C214.368 14 216.704 8.592 221.376 5.008C225.408 1.872 231.072 0.303999 238.368 0.303999C244.64 0.303999 249.792 1.424 253.824 3.664C257.344 5.584 260.192 8.496 262.368 12.4L249.792 20.368C248.128 18 246.4 16.336 244.608 15.376C242.816 14.416 240.64 13.936 238.08 13.936C233.152 13.936 230.688 16.016 230.688 20.176C230.688 22.48 231.488 24.24 233.088 25.456C234.752 26.672 237.888 27.824 242.496 28.912C246.848 30 249.888 30.864 251.616 31.504C253.344 32.144 255.072 33.04 256.8 34.192C261.408 37.136 263.712 42.384 263.712 49.936C263.712 57.104 261.792 62.32 257.952 65.584C253.536 69.36 246.976 71.248 238.272 71.248C230.016 71.248 223.36 69.616 218.304 66.352C215.488 64.56 213.088 61.936 211.104 58.48ZM336.332 57.904H314.444L310.796 70H292.364L317.036 1.456H333.644L358.412 70H339.98L336.332 57.904ZM332.3 44.368L325.484 21.232L318.476 44.368H332.3ZM367.231 70V1.456H384.319V70H367.231ZM402.968 70V1.456H418.808L435.224 35.536L451.64 1.456H467.48V70H451.16V33.136L440.696 54.64H429.752L419.288 33.136V70H402.968ZM18.144 193V138.28H0.48V124.456H52.896V138.28H35.232V193H18.144ZM65.2072 166.6V150.856C65.2072 145.544 65.6232 141.352 66.4552 138.28C67.3512 135.144 68.8552 132.456 70.9672 130.216C73.3353 127.784 76.1193 126.024 79.3193 124.936C82.5833 123.848 86.7432 123.304 91.7992 123.304C97.2393 123.304 101.655 123.944 105.047 125.224C108.503 126.504 111.383 128.584 113.687 131.464C115.351 133.576 116.535 136.136 117.239 139.144C118.007 142.088 118.391 145.992 118.391 150.856V166.6C118.391 171.912 117.943 176.136 117.047 179.272C116.215 182.344 114.743 185 112.631 187.24C110.263 189.672 107.447 191.432 104.183 192.52C100.983 193.608 96.8553 194.152 91.7992 194.152C86.3593 194.152 81.9113 193.512 78.4552 192.232C75.0632 190.952 72.2152 188.872 69.9112 185.992C68.2472 183.88 67.0312 181.352 66.2632 178.408C65.5592 175.4 65.2072 171.464 65.2072 166.6ZM82.2953 165.256C82.3593 170.824 82.8713 174.568 83.8312 176.488C85.1753 179.112 87.8313 180.424 91.7992 180.424C95.7673 180.424 98.3913 179.24 99.6713 176.872C100.759 174.696 101.303 170.824 101.303 165.256V152.2C101.303 145.864 100.567 141.704 99.0953 139.72C97.7513 137.928 95.3193 137.032 91.7992 137.032C87.8313 137.032 85.2073 138.216 83.9273 140.584C82.8393 142.76 82.2953 146.632 82.2953 152.2V165.256ZM159.499 193V124.456H187.147C191.499 124.456 194.923 124.776 197.419 125.416C199.915 126.056 202.091 127.144 203.947 128.68C207.723 132.008 209.611 136.968 209.611 143.56C209.611 149.832 207.915 154.376 204.523 157.192C206.891 159.24 208.523 161.48 209.419 163.912C210.315 166.28 210.763 169.48 210.763 173.512C210.763 180.936 208.587 186.248 204.235 189.448C202.507 190.728 200.459 191.656 198.091 192.232C195.723 192.744 192.459 193 188.299 193H159.499ZM176.395 151.528H185.899C188.459 151.528 190.219 151.048 191.179 150.088C192.203 149.064 192.715 147.272 192.715 144.712C192.715 142.216 192.203 140.488 191.179 139.528C190.219 138.504 188.459 137.992 185.899 137.992H176.395V151.528ZM176.395 179.464H187.147C189.643 179.464 191.371 178.952 192.331 177.928C193.355 176.84 193.867 174.92 193.867 172.168C193.867 169.48 193.387 167.624 192.427 166.6C191.467 165.576 189.707 165.064 187.147 165.064H176.395V179.464ZM225.145 193V124.456H269.497V138.28H242.041V151.528H265.177V165.352H242.041V179.176H270.073V193H225.145ZM344.301 180.904H322.413L318.765 193H300.333L325.005 124.456H341.613L366.381 193H347.949L344.301 180.904ZM340.269 167.368L333.453 144.232L326.445 167.368H340.269ZM375.2 193V124.456H391.808L412.832 164.488V124.456H429.344V193H412.736L391.712 152.968V193H375.2ZM7.008 316V247.456H51.36V261.28H23.904V274.528H47.04V288.352H23.904V302.176H51.936V316H7.008ZM67.6807 316V247.456H83.5208L99.9368 281.536L116.353 247.456H132.193V316H115.873V279.136L105.409 300.64H94.4648L84.0008 279.136V316H67.6807ZM167.944 293.056V316H150.856V247.456H174.76C180.008 247.456 184.104 247.872 187.048 248.704C190.056 249.536 192.552 250.976 194.536 253.024C196.456 255.008 197.8 257.344 198.568 260.032C199.4 262.656 199.816 266.144 199.816 270.496C199.816 278.816 197.736 284.768 193.576 288.352C191.592 290.08 189.16 291.296 186.28 292C183.464 292.704 179.624 293.056 174.76 293.056H167.944ZM167.656 279.424H174.856C177.864 279.424 179.944 278.752 181.096 277.408C182.312 276.064 182.92 273.664 182.92 270.208C182.92 266.752 182.344 264.352 181.192 263.008C180.04 261.664 177.928 260.992 174.856 260.992H167.656V279.424ZM214.345 316V247.456H258.697V261.28H231.241V274.528H254.377V288.352H231.241V302.176H259.273V316H214.345ZM292.202 289.504V316H275.114V247.456H301.994C306.794 247.456 310.57 247.84 313.322 248.608C316.074 249.376 318.378 250.656 320.234 252.448C322.026 254.24 323.306 256.384 324.074 258.88C324.842 261.312 325.226 264.416 325.226 268.192C325.226 274.464 324.202 279.168 322.154 282.304C320.362 284.992 317.45 286.944 313.418 288.16L328.202 316H309.29L296.81 289.504H292.202ZM291.914 276.544H300.266C303.274 276.544 305.354 276 306.506 274.912C307.722 273.76 308.33 271.712 308.33 268.768C308.33 265.824 307.754 263.808 306.602 262.72C305.45 261.568 303.338 260.992 300.266 260.992H291.914V276.544ZM340.157 289.6V273.856C340.157 268.544 340.573 264.352 341.405 261.28C342.301 258.144 343.805 255.456 345.917 253.216C348.285 250.784 351.069 249.024 354.269 247.936C357.533 246.848 361.693 246.304 366.749 246.304C372.189 246.304 376.605 246.944 379.997 248.224C383.453 249.504 386.333 251.584 388.637 254.464C390.301 256.576 391.485 259.136 392.189 262.144C392.957 265.088 393.341 268.992 393.341 273.856V289.6C393.341 294.912 392.893 299.136 391.997 302.272C391.165 305.344 389.693 308 387.581 310.24C385.213 312.672 382.397 314.432 379.133 315.52C375.933 316.608 371.805 317.152 366.749 317.152C361.309 317.152 356.861 316.512 353.405 315.232C350.013 313.952 347.165 311.872 344.861 308.992C343.197 306.88 341.981 304.352 341.213 301.408C340.509 298.4 340.157 294.464 340.157 289.6ZM357.245 288.256C357.309 293.824 357.821 297.568 358.781 299.488C360.125 302.112 362.781 303.424 366.749 303.424C370.717 303.424 373.341 302.24 374.621 299.872C375.709 297.696 376.253 293.824 376.253 288.256V275.2C376.253 268.864 375.517 264.704 374.045 262.72C372.701 260.928 370.269 260.032 366.749 260.032C362.781 260.032 360.157 261.216 358.877 263.584C357.789 265.76 357.245 269.632 357.245 275.2V288.256ZM427.615 289.504V316H410.527V247.456H437.407C442.207 247.456 445.983 247.84 448.735 248.608C451.487 249.376 453.791 250.656 455.647 252.448C457.439 254.24 458.719 256.384 459.487 258.88C460.255 261.312 460.639 264.416 460.639 268.192C460.639 274.464 459.615 279.168 457.567 282.304C455.775 284.992 452.863 286.944 448.831 288.16L463.615 316H444.703L432.223 289.504H427.615ZM427.327 276.544H435.679C438.687 276.544 440.767 276 441.919 274.912C443.135 273.76 443.743 271.712 443.743 268.768C443.743 265.824 443.167 263.808 442.015 262.72C440.863 261.568 438.751 260.992 435.679 260.992H427.327V276.544ZM480.381 295.36L477.885 247.456H496.221L493.725 295.36H480.381ZM478.941 316V301.216H495.165V316H478.941Z" fill="white"/>
</svg>
