<svg width="20" height="24" viewBox="0 0 20 24" fill="none" xmlns="http://www.w3.org/2000/svg">
<circle cx="10" cy="12" r="10" fill="#828282"/>
<path d="M8.04688 9.25C7.98438 9.21875 7.92188 9.16146 7.85938 9.07812C7.79688 8.98438 7.76562 8.91146 7.76562 8.85938C7.76562 8.81771 7.77604 8.78646 7.79688 8.76562C9.55729 7.56771 10.4583 6.96875 10.5 6.96875H10.5312C10.6146 6.96875 10.6771 7.06771 10.7188 7.26562C10.6146 7.60938 10.5625 8.09896 10.5625 8.73438V14.8906C10.5625 15.4948 10.6042 15.9583 10.6875 16.2812C10.7083 16.3542 10.8594 16.4271 11.1406 16.5C11.4323 16.5625 11.6302 16.5938 11.7344 16.5938C11.776 16.5938 11.7969 16.6875 11.7969 16.875C11.7969 16.9688 11.7917 17.026 11.7812 17.0469C10.7396 16.9948 10.1094 16.9688 9.89062 16.9688C9.72396 16.9688 9.11979 16.9948 8.07812 17.0469C8.03646 17.0052 8.01562 16.9219 8.01562 16.7969C8.01562 16.6615 8.03646 16.5938 8.07812 16.5938C8.21354 16.5938 8.42188 16.5625 8.70312 16.5C8.99479 16.4271 9.15104 16.3542 9.17188 16.2812C9.23438 16.0312 9.26562 15.7344 9.26562 15.3906V9.76562C9.26562 9.46354 9.25521 9.23438 9.23438 9.07812C9.21354 8.92188 9.1875 8.82812 9.15625 8.79688C9.13542 8.75521 9.09896 8.73438 9.04688 8.73438C8.98438 8.73438 8.89062 8.76562 8.76562 8.82812C8.65104 8.89062 8.51562 8.96875 8.35938 9.0625C8.20312 9.15625 8.09896 9.21875 8.04688 9.25Z" fill="white"/>
</svg>
