<svg width="20" height="24" viewBox="0 0 20 24" fill="none" xmlns="http://www.w3.org/2000/svg">
<circle cx="10" cy="12" r="10" fill="#828282"/>
<path d="M10 6.96875C10.6979 6.96875 11.2448 7.22917 11.6406 7.75C12.0469 8.27083 12.25 8.85938 12.25 9.51562C12.25 9.90104 12.1823 10.3021 12.0469 10.7188C11.9219 11.125 11.7188 11.5417 11.4375 11.9688C11.1667 12.3958 10.9167 12.7708 10.6875 13.0938C10.4688 13.4062 10.1615 13.7708 9.76562 14.1875C9.36979 14.6042 9.09375 14.8906 8.9375 15.0469C8.79167 15.2031 8.55208 15.4427 8.21875 15.7656C8.1875 15.8177 8.19792 15.8542 8.25 15.875H11.2656C11.5573 15.875 11.7656 15.7917 11.8906 15.625C12.026 15.4583 12.1615 15.1406 12.2969 14.6719C12.3385 14.5573 12.4115 14.5 12.5156 14.5C12.651 14.5 12.7448 14.5208 12.7969 14.5625C12.5469 15.8125 12.4062 16.5417 12.375 16.75C12.3542 16.9167 12.25 17 12.0625 17H6.9375C6.89583 17 6.85417 16.9427 6.8125 16.8281C6.78125 16.7031 6.76562 16.6042 6.76562 16.5312C7.90104 15.3854 8.875 14.1979 9.6875 12.9688C10.5 11.7292 10.9062 10.6823 10.9062 9.82812C10.9062 9.26562 10.7656 8.83333 10.4844 8.53125C10.2031 8.21875 9.83333 8.0625 9.375 8.0625C8.51042 8.0625 7.81771 8.49479 7.29688 9.35938C7.23438 9.35938 7.16667 9.32812 7.09375 9.26562C7.03125 9.19271 7 9.14062 7 9.10938C7.03125 8.98438 7.11458 8.81771 7.25 8.60938C7.39583 8.39062 7.58333 8.15625 7.8125 7.90625C8.05208 7.64583 8.36458 7.42708 8.75 7.25C9.14583 7.0625 9.5625 6.96875 10 6.96875Z" fill="white"/>
</svg>
