<svg width="20" height="24" viewBox="0 0 20 24" fill="none" xmlns="http://www.w3.org/2000/svg">
<circle cx="10" cy="12" r="10" fill="#828282"/>
<path d="M9.90625 6.96875C10.3542 6.96875 10.7812 7.15625 11.1875 7.53125C11.6042 7.89583 11.8125 8.375 11.8125 8.96875C11.8125 9.42708 11.6979 9.81771 11.4688 10.1406C11.25 10.4531 10.9323 10.7656 10.5156 11.0781C11.0677 11.276 11.5677 11.6042 12.0156 12.0625C12.474 12.5208 12.7031 13.0938 12.7031 13.7812C12.7031 14.7708 12.3542 15.5677 11.6562 16.1719C10.9583 16.776 10.0938 17.0781 9.0625 17.0781C8.17708 17.0781 7.5 16.9219 7.03125 16.6094C6.92708 16.5365 6.875 16.3854 6.875 16.1562C6.875 15.6667 7.06771 15.4219 7.45312 15.4219C7.54688 15.4219 7.64062 15.4635 7.73438 15.5469C7.83854 15.6198 7.94792 15.7188 8.0625 15.8438C8.1875 15.9688 8.29167 16.0625 8.375 16.125C8.67708 16.3438 9.07292 16.4531 9.5625 16.4531C10.0208 16.4531 10.4323 16.276 10.7969 15.9219C11.1719 15.5573 11.3594 14.9792 11.3594 14.1875C11.3594 13.5729 11.1615 13.0521 10.7656 12.625C10.3698 12.1979 9.90625 11.9844 9.375 11.9844C8.98958 11.9844 8.65104 12.0208 8.35938 12.0938C8.28646 12 8.25 11.8646 8.25 11.6875C8.25 11.6146 8.26042 11.5625 8.28125 11.5312C9 11.4062 9.57292 11.1562 10 10.7812C10.4271 10.4062 10.6406 9.89583 10.6406 9.25C10.6406 8.89583 10.5 8.58333 10.2188 8.3125C9.94792 8.03125 9.63542 7.89062 9.28125 7.89062C9.05208 7.89062 8.83854 7.93229 8.64062 8.01562C8.45312 8.08854 8.30729 8.16667 8.20312 8.25C8.10938 8.33333 8.01562 8.42708 7.92188 8.53125C7.82812 8.625 7.77604 8.67708 7.76562 8.6875C7.72396 8.6875 7.68229 8.64062 7.64062 8.54688C7.59896 8.44271 7.57812 8.35417 7.57812 8.28125C7.85938 7.86458 8.17708 7.54167 8.53125 7.3125C8.88542 7.08333 9.34375 6.96875 9.90625 6.96875Z" fill="white"/>
</svg>
