<svg width="20" height="24" viewBox="0 0 20 24" fill="none" xmlns="http://www.w3.org/2000/svg">
<circle cx="10" cy="12" r="10" fill="#828282"/>
<path d="M11.6094 6.92188C11.7448 6.92188 11.8125 6.97396 11.8125 7.07812V13.375H12.7812C12.9479 13.375 13.0312 13.625 13.0312 14.125C13.0312 14.1875 13 14.2396 12.9375 14.2812C12.9375 14.2812 12.5625 14.2812 11.8125 14.2812V17.0156C11.7812 17.0677 11.5625 17.0938 11.1562 17.0938C10.7708 17.0938 10.5781 17.0521 10.5781 16.9688V14.2812H6.625C6.55208 14.1875 6.51562 14.026 6.51562 13.7969L11.25 7.10938C11.3438 6.98438 11.4635 6.92188 11.6094 6.92188ZM10.5781 13.375V9.21875C10.5781 9.125 10.5521 9.07812 10.5 9.07812C10.5 9.08854 10.4948 9.09896 10.4844 9.10938L7.64062 13.1875C7.63021 13.1979 7.625 13.2135 7.625 13.2344C7.625 13.3281 7.66146 13.375 7.73438 13.375H10.5781Z" fill="white"/>
</svg>
