<svg width="70" height="70" viewBox="0 0 70 70" fill="none" xmlns="http://www.w3.org/2000/svg">
<circle opacity="0.05" cx="35" cy="35" r="35" fill="#B42033"/>
<path d="M41.2303 32.0426C40.7691 31.8234 40.2985 31.6345 39.8197 31.4763C41.3705 30.3123 42.3755 28.4588 42.3755 26.375C42.3755 22.8598 39.5157 20 36.0005 20C32.4853 20 29.6255 22.8598 29.6255 26.375C29.6255 28.4611 30.6327 30.3164 32.1864 31.4802C30.7629 31.9489 29.4272 32.6781 28.2581 33.6397C26.1144 35.403 24.624 37.8625 24.0613 40.5651C23.885 41.412 24.0962 42.2818 24.6408 42.9515C25.1828 43.6178 25.9863 44 26.8455 44H38.3911C38.9089 44 39.3286 43.5803 39.3286 43.0625C39.3286 42.5447 38.9089 42.125 38.3911 42.125H26.8455C26.4452 42.125 26.2038 41.9016 26.0955 41.7685C25.9085 41.5385 25.8361 41.2393 25.8969 40.9473C26.8698 36.2741 30.9918 32.8603 35.7519 32.7452C35.8344 32.7484 35.9172 32.75 36.0005 32.75C36.0845 32.75 36.1682 32.7484 36.2514 32.7451C37.7102 32.7793 39.1132 33.1123 40.4254 33.7361C40.893 33.9583 41.4523 33.7595 41.6745 33.2918C41.8968 32.8242 41.698 32.2649 41.2303 32.0426ZM36.2291 30.8692C36.153 30.8679 36.0768 30.8672 36.0005 30.8672C35.9248 30.8672 35.8492 30.8679 35.7736 30.8693C33.3973 30.7508 31.5005 28.7802 31.5005 26.375C31.5005 23.8937 33.5191 21.875 36.0005 21.875C38.4818 21.875 40.5005 23.8937 40.5005 26.375C40.5005 28.7796 38.6046 30.7498 36.2291 30.8692Z" fill="#B42033" stroke="#B42033" stroke-width="0.5"/>
<path d="M47.0625 38.6094H44.4844V36.0312C44.4844 35.5135 44.0647 35.0938 43.5469 35.0938C43.0291 35.0938 42.6094 35.5135 42.6094 36.0312V38.6094H40.0312C39.5135 38.6094 39.0938 39.0291 39.0938 39.5469C39.0938 40.0647 39.5135 40.4844 40.0312 40.4844H42.6094V43.0625C42.6094 43.5803 43.0291 44 43.5469 44C44.0647 44 44.4844 43.5803 44.4844 43.0625V40.4844H47.0625C47.5803 40.4844 48 40.0647 48 39.5469C48 39.0291 47.5803 38.6094 47.0625 38.6094Z" fill="#B42033" stroke="#B42033" stroke-width="0.5"/>
</svg>
