<svg width="200" height="63" viewBox="0 0 200 63" fill="none" xmlns="http://www.w3.org/2000/svg">
<rect width="200" height="63" rx="10" fill="black"/>
<path d="M72.44 39.926L71.292 39.828C71.264 40.346 71.138 40.976 70.942 41.578C70.634 41.592 70.312 41.592 70.018 41.592C69.374 41.592 68.394 41.536 67.652 41.438V42.488C68.422 42.544 69.346 42.572 69.948 42.572C70.144 42.572 70.354 42.572 70.564 42.572C70.032 43.706 69.094 45.148 67.33 46.856L68.282 47.556C68.758 46.996 69.15 46.478 69.556 46.1C70.186 45.512 71.082 45.078 71.964 45.078C72.594 45.078 73.098 45.344 73.238 45.946C71.6 46.8 69.934 47.836 69.934 49.488C69.934 51.196 71.544 51.63 73.546 51.63C74.764 51.63 76.318 51.518 77.382 51.378L77.41 50.258C76.178 50.468 74.68 50.594 73.588 50.594C72.146 50.594 71.054 50.426 71.054 49.334C71.054 48.41 71.964 47.668 73.266 46.982C73.266 47.724 73.252 48.634 73.224 49.166H74.302C74.288 48.48 74.274 47.29 74.26 46.478C75.324 45.974 76.318 45.568 77.102 45.274C77.48 45.12 77.984 44.924 78.348 44.826L77.886 43.776C77.494 43.986 77.158 44.14 76.738 44.322C76.01 44.658 75.156 44.994 74.204 45.456C73.98 44.644 73.238 44.196 72.328 44.196C71.726 44.196 70.914 44.378 70.382 44.714C70.858 44.084 71.32 43.286 71.642 42.544C73.168 42.488 74.904 42.376 76.29 42.152L76.304 41.116C74.988 41.354 73.462 41.48 72.034 41.55C72.244 40.892 72.356 40.346 72.44 39.926ZM90.71 39.716L89.968 40.038C90.346 40.556 90.808 41.382 91.088 41.942L90.85 41.802C90.626 41.886 90.304 41.928 89.926 41.928H86.146C86.244 41.76 86.342 41.592 86.426 41.438C86.566 41.172 86.818 40.696 87.056 40.332L85.782 39.926C85.698 40.29 85.474 40.78 85.334 41.032C84.69 42.306 83.248 44.42 80.84 45.918L81.778 46.632C83.346 45.554 84.592 44.182 85.488 42.936H90.22C89.94 44.084 89.226 45.582 88.316 46.814C87.336 46.128 86.286 45.442 85.362 44.91L84.606 45.694C85.502 46.254 86.58 46.982 87.574 47.71C86.328 49.068 84.522 50.356 82.156 51.07L83.164 51.952C85.53 51.056 87.252 49.782 88.498 48.396C89.086 48.844 89.604 49.278 90.024 49.656L90.85 48.69C90.402 48.326 89.856 47.906 89.254 47.472C90.304 46.044 91.074 44.392 91.452 43.104C91.522 42.88 91.662 42.558 91.774 42.362L91.116 41.97L91.858 41.634C91.564 41.06 91.06 40.22 90.71 39.716ZM92.25 39.156L91.508 39.464C91.9 39.996 92.362 40.78 92.67 41.396L93.426 41.06C93.16 40.542 92.614 39.66 92.25 39.156ZM101.574 39.786H100.23C100.286 40.22 100.3 40.542 100.3 40.836V42.138H97.206C96.716 42.138 96.31 42.124 95.904 42.082C95.946 42.39 95.946 42.866 95.946 43.16V45.624C95.946 45.89 95.932 46.268 95.904 46.52H97.122C97.08 46.296 97.066 45.932 97.066 45.68V43.174H104.892C104.766 44.378 104.318 46.072 103.562 47.262C102.708 48.578 101.168 49.628 99.768 50.076C99.32 50.244 98.788 50.398 98.312 50.468L99.222 51.518C101.784 50.818 103.716 49.39 104.766 47.556C105.55 46.212 105.956 44.462 106.138 43.342C106.194 43.076 106.278 42.712 106.348 42.502L105.592 42.026C105.41 42.096 105.144 42.138 104.626 42.138H101.49V40.836C101.49 40.542 101.504 40.22 101.574 39.786ZM111.178 40.738L110.38 41.592C111.416 42.292 113.166 43.79 113.866 44.518L114.748 43.636C113.964 42.852 112.172 41.396 111.178 40.738ZM109.974 50.118L110.716 51.266C113.054 50.832 114.818 49.978 116.218 49.096C118.332 47.766 119.97 45.862 120.922 44.112L120.25 42.922C119.438 44.644 117.73 46.716 115.574 48.074C114.244 48.9 112.424 49.754 109.974 50.118ZM124.044 41.41C124.072 41.746 124.072 42.18 124.072 42.502V49.39C124.072 49.88 124.044 50.916 124.03 51.098H125.234C125.22 50.986 125.22 50.65 125.206 50.286H132.85C132.85 50.664 132.836 51 132.836 51.098H134.04C134.026 50.944 134.012 49.852 134.012 49.404V42.502C134.012 42.152 134.012 41.76 134.04 41.41C133.62 41.438 133.116 41.438 132.808 41.438H125.29C124.968 41.438 124.59 41.424 124.044 41.41ZM125.206 42.544H132.864V49.194H125.206V42.544ZM137.428 44.938V46.31C137.862 46.268 138.604 46.24 139.374 46.24H147.06C147.69 46.24 148.278 46.296 148.558 46.31V44.938C148.25 44.966 147.746 45.008 147.046 45.008H139.374C138.59 45.008 137.848 44.966 137.428 44.938ZM159.184 40.92L158.414 41.27C158.876 41.9 159.31 42.67 159.66 43.398L160.458 43.034C160.136 42.376 159.534 41.438 159.184 40.92ZM160.878 40.22L160.108 40.584C160.584 41.2 161.032 41.942 161.41 42.684L162.194 42.292C161.858 41.648 161.242 40.71 160.878 40.22ZM154.27 49.95C154.27 50.468 154.242 51.154 154.186 51.602H155.53C155.488 51.154 155.446 50.398 155.446 49.95V45.344C157 45.834 159.422 46.758 160.934 47.584L161.424 46.394C159.94 45.652 157.294 44.658 155.446 44.084V41.802C155.446 41.382 155.488 40.78 155.544 40.346H154.158C154.242 40.78 154.27 41.41 154.27 41.802V49.95Z" fill="white"/>
<path d="M84.85 33L77.513 12.7H73.511L66.145 33H69.77L71.191 28.911H79.833L81.254 33H84.85ZM75.512 16.615L78.731 25.779H72.293L75.512 16.615ZM87.0329 12.7V33H90.3679V26.04H94.5149C96.4289 26.04 98.0239 25.402 99.2999 24.126C100.605 22.821 101.243 21.255 101.243 19.37C101.243 17.485 100.605 15.89 99.2999 14.614C98.0239 13.338 96.4289 12.7 94.5149 12.7H87.0329ZM90.3679 22.908V15.832H94.5149C96.4869 15.832 97.9079 17.311 97.9079 19.37C97.9079 21.429 96.4869 22.908 94.5149 22.908H90.3679ZM110.953 22.589L119.16 12.7H115.187L107.473 21.806V12.7H104.138V33H107.473V23.343L115.477 33H119.45L110.953 22.589Z" fill="white"/>
<g clip-path="url(#clip0)">
<path d="M37.5931 52.9997C39.0643 52.9997 40.3473 51.7167 40.3473 50.2456V43.8135H42.1862C43.2898 43.8135 44.0252 43.0778 44.0252 41.9745V23.6038H21.9751V41.9747C21.9751 43.0781 22.7107 43.8137 23.8141 43.8137H25.6532V50.2457C25.6532 51.7169 26.9358 52.9999 28.4073 52.9999C29.8783 52.9999 31.1612 51.7169 31.1612 50.2457V43.8137H34.8392V50.2457C34.839 51.7167 36.122 52.9997 37.5931 52.9997Z" fill="#A6D864"/>
<path d="M48.6179 41.9747C50.089 41.9747 51.3717 40.6919 51.3717 39.2206V26.3567C51.3717 24.8932 50.0891 23.6038 48.6179 23.6038C47.1466 23.6038 45.8638 24.8933 45.8638 26.3567V39.2206C45.8638 40.6918 47.1465 41.9747 48.6179 41.9747Z" fill="#A6D864"/>
<path d="M17.3818 41.9747C18.8531 41.9747 20.1359 40.6919 20.1359 39.2206V26.3567C20.1359 24.8932 18.8533 23.6038 17.3818 23.6038C15.9106 23.6038 14.6279 24.8933 14.6279 26.3567V39.2206C14.628 40.6918 15.9106 41.9747 17.3818 41.9747Z" fill="#A6D864"/>
<path d="M41.8182 9.27723C41.4505 8.90727 40.9032 8.90727 40.5355 9.27723L38.0691 11.7355L37.9553 11.8491C36.4928 11.1167 34.853 10.751 33.027 10.7474C33.0181 10.7474 33.0093 10.7472 33.0003 10.7472H33.0001C32.9908 10.7472 32.9823 10.7474 32.9731 10.7474C31.1472 10.751 29.5075 11.1167 28.0451 11.8491L27.9311 11.7355L25.4646 9.27723C25.0967 8.90727 24.5496 8.90727 24.182 9.27723C23.8141 9.64512 23.8141 10.1912 24.182 10.5588L26.5678 12.9451C25.799 13.4584 25.1019 14.0865 24.4957 14.805C23.0444 16.5253 22.1186 18.7642 21.9913 21.19C21.9901 21.2153 21.9876 21.2402 21.9865 21.2655C21.9787 21.4306 21.9751 21.5967 21.9751 21.7634H44.0251C44.0251 21.5967 44.0212 21.4307 44.0137 21.2655C44.0125 21.2402 44.01 21.2153 44.0085 21.19C43.8815 18.7642 42.9555 16.5252 41.5041 14.8051C40.8982 14.0867 40.2008 13.4586 39.432 12.9453L41.8182 10.559C42.1861 10.1912 42.1861 9.64521 41.8182 9.27723ZM28.4037 18.5525C27.6429 18.5525 27.0261 17.9357 27.0261 17.1749C27.0261 16.414 27.6428 15.7972 28.4037 15.7972C29.1645 15.7972 29.7814 16.414 29.7814 17.1749C29.7814 17.9357 29.1645 18.5525 28.4037 18.5525ZM37.5964 18.5525C36.8356 18.5525 36.2188 17.9357 36.2188 17.1749C36.2188 16.414 36.8355 15.7972 37.5964 15.7972C38.3572 15.7972 38.9741 16.414 38.9741 17.1749C38.9741 17.9357 38.3573 18.5525 37.5964 18.5525Z" fill="#A6D864"/>
</g>
<defs>
<clipPath id="clip0">
<rect width="44" height="44" fill="white" transform="translate(11 9)"/>
</clipPath>
</defs>
</svg>
