<svg width="200" height="64" viewBox="0 0 200 64" fill="none" xmlns="http://www.w3.org/2000/svg">
<rect width="200" height="63" rx="10" fill="black"/>
<path d="M59.98 11.2V21H63.83C65.174 21 66.294 20.524 67.176 19.586C68.072 18.634 68.52 17.472 68.52 16.1C68.52 14.714 68.072 13.552 67.176 12.614C66.294 11.676 65.174 11.2 63.83 11.2H59.98ZM61.59 19.46V12.74H63.83C64.754 12.74 65.51 13.062 66.084 13.692C66.672 14.322 66.966 15.12 66.966 16.1C66.966 17.066 66.672 17.878 66.084 18.508C65.51 19.138 64.754 19.46 63.83 19.46H61.59ZM78.1778 19.712C79.1718 18.718 79.6618 17.514 79.6618 16.1C79.6618 14.686 79.1718 13.482 78.1778 12.502C77.1978 11.508 75.9938 11.018 74.5798 11.018C73.1658 11.018 71.9618 11.508 70.9678 12.502C69.9878 13.482 69.4978 14.686 69.4978 16.1C69.4978 17.514 69.9878 18.718 70.9678 19.712C71.9618 20.692 73.1658 21.182 74.5798 21.182C75.9938 21.182 77.1978 20.692 78.1778 19.712ZM72.1018 18.62C71.4438 17.948 71.1078 17.108 71.1078 16.1C71.1078 15.092 71.4438 14.252 72.1018 13.594C72.7738 12.922 73.5998 12.586 74.5798 12.586C75.5598 12.586 76.3858 12.922 77.0438 13.594C77.7158 14.252 78.0518 15.092 78.0518 16.1C78.0518 17.108 77.7158 17.948 77.0438 18.62C76.3858 19.278 75.5598 19.614 74.5798 19.614C73.5998 19.614 72.7738 19.278 72.1018 18.62ZM85.0644 21L87.1504 13.846L89.2224 21H91.0844L93.8564 11.2H92.1624L90.1044 18.858L87.8924 11.2H86.4084L84.1824 18.858L82.1244 11.2H80.4304L83.2024 21H85.0644ZM100.997 17.85L96.3767 11.2H95.1167V21H96.7267V14.35L101.347 21H102.607V11.2H100.997V17.85ZM106.174 11.2H104.564V21H110.164V19.46H106.174V11.2ZM119.549 19.712C120.543 18.718 121.033 17.514 121.033 16.1C121.033 14.686 120.543 13.482 119.549 12.502C118.569 11.508 117.365 11.018 115.951 11.018C114.537 11.018 113.333 11.508 112.339 12.502C111.359 13.482 110.869 14.686 110.869 16.1C110.869 17.514 111.359 18.718 112.339 19.712C113.333 20.692 114.537 21.182 115.951 21.182C117.365 21.182 118.569 20.692 119.549 19.712ZM113.473 18.62C112.815 17.948 112.479 17.108 112.479 16.1C112.479 15.092 112.815 14.252 113.473 13.594C114.145 12.922 114.971 12.586 115.951 12.586C116.931 12.586 117.757 12.922 118.415 13.594C119.087 14.252 119.423 15.092 119.423 16.1C119.423 17.108 119.087 17.948 118.415 18.62C117.757 19.278 116.931 19.614 115.951 19.614C114.971 19.614 114.145 19.278 113.473 18.62ZM130.252 21L126.71 11.2H124.778L121.222 21H122.972L123.658 19.026H127.83L128.516 21H130.252ZM125.744 13.09L127.298 17.514H124.19L125.744 13.09ZM131.306 11.2V21H135.156C136.5 21 137.62 20.524 138.502 19.586C139.398 18.634 139.846 17.472 139.846 16.1C139.846 14.714 139.398 13.552 138.502 12.614C137.62 11.676 136.5 11.2 135.156 11.2H131.306ZM132.916 19.46V12.74H135.156C136.08 12.74 136.836 13.062 137.41 13.692C137.998 14.322 138.292 15.12 138.292 16.1C138.292 17.066 137.998 17.878 137.41 18.508C136.836 19.138 136.08 19.46 135.156 19.46H132.916ZM152.934 21L149.392 11.2H147.46L143.904 21H145.654L146.34 19.026H150.512L151.198 21H152.934ZM148.426 13.09L149.98 17.514H146.872L148.426 13.09ZM153.988 11.2V21H155.598V17.64H157.6C158.524 17.64 159.294 17.332 159.91 16.716C160.54 16.086 160.848 15.33 160.848 14.42C160.848 13.51 160.54 12.74 159.91 12.124C159.294 11.508 158.524 11.2 157.6 11.2H153.988ZM155.598 16.128V12.712H157.6C158.552 12.712 159.238 13.426 159.238 14.42C159.238 15.414 158.552 16.128 157.6 16.128H155.598ZM165.536 15.974L169.498 11.2H167.58L163.856 15.596V11.2H162.246V21H163.856V16.338L167.72 21H169.638L165.536 15.974Z" fill="white"/>
<path d="M71.609 36.329C70.4 34.81 68.726 34.066 66.556 34.066C64.479 34.066 62.712 34.872 61.224 36.453C59.767 38.034 59.023 39.956 59.023 42.25C59.023 44.544 59.767 46.497 61.224 48.078C62.712 49.659 64.479 50.434 66.556 50.434C68.726 50.434 70.4 49.69 71.609 48.171V50H75.608V34.5H71.609V36.329ZM64.231 45.412C63.425 44.575 63.022 43.521 63.022 42.25C63.022 40.979 63.425 39.925 64.231 39.119C65.037 38.282 66.06 37.879 67.3 37.879C68.54 37.879 69.563 38.282 70.369 39.119C71.206 39.925 71.609 40.979 71.609 42.25C71.609 43.521 71.206 44.575 70.369 45.412C69.563 46.218 68.54 46.621 67.3 46.621C66.06 46.621 65.037 46.218 64.231 45.412ZM87.8523 34.066C85.7443 34.066 84.1943 34.779 83.2333 36.236V34.5H79.2343V50H83.2333V41.63C83.2333 39.057 84.5663 37.786 86.6433 37.786C88.5033 37.786 89.7123 38.902 89.7123 40.979V50H93.7113V40.483C93.7113 38.468 93.1533 36.918 92.0373 35.771C90.9523 34.624 89.5573 34.066 87.8523 34.066ZM108.875 36.329C107.697 34.81 106.023 34.066 103.853 34.066C101.776 34.066 99.9779 34.872 98.4899 36.453C97.0329 38.034 96.2889 39.956 96.2889 42.25C96.2889 44.544 97.0329 46.497 98.4899 48.078C99.9779 49.659 101.776 50.434 103.853 50.434C106.023 50.434 107.697 49.69 108.875 48.171V50H112.874V28.3H108.875V36.329ZM101.497 45.412C100.691 44.575 100.288 43.521 100.288 42.25C100.288 40.979 100.691 39.925 101.497 39.119C102.334 38.282 103.357 37.879 104.597 37.879C105.837 37.879 106.86 38.282 107.666 39.119C108.472 39.925 108.875 40.979 108.875 42.25C108.875 43.521 108.472 44.575 107.666 45.412C106.86 46.218 105.837 46.621 104.597 46.621C103.357 46.621 102.334 46.218 101.497 45.412ZM120.53 34.5H116.531V50H120.53V42.591C120.53 41.103 120.995 40.049 121.956 39.398C122.917 38.747 124.033 38.499 125.242 38.654V34.19C123.134 34.19 121.274 35.182 120.53 37.166V34.5ZM140.787 48.078C142.368 46.497 143.174 44.544 143.174 42.25C143.174 39.956 142.368 38.034 140.787 36.453C139.206 34.872 137.253 34.066 134.959 34.066C132.665 34.066 130.712 34.872 129.131 36.453C127.55 38.034 126.775 39.956 126.775 42.25C126.775 44.544 127.55 46.497 129.131 48.078C130.712 49.659 132.665 50.434 134.959 50.434C137.253 50.434 139.206 49.659 140.787 48.078ZM131.952 45.319C131.177 44.513 130.774 43.49 130.774 42.25C130.774 41.01 131.177 39.987 131.952 39.181C132.758 38.375 133.75 37.972 134.959 37.972C136.168 37.972 137.16 38.375 137.966 39.181C138.772 39.987 139.175 41.01 139.175 42.25C139.175 43.49 138.772 44.513 137.966 45.319C137.16 46.125 136.168 46.528 134.959 46.528C133.75 46.528 132.758 46.125 131.952 45.319ZM147.971 33.136C149.335 33.136 150.451 32.051 150.451 30.749C150.451 29.447 149.335 28.331 147.971 28.331C146.638 28.331 145.522 29.447 145.522 30.749C145.522 32.051 146.638 33.136 147.971 33.136ZM149.986 50V34.5H145.987V50H149.986ZM165.395 36.329C164.217 34.81 162.543 34.066 160.373 34.066C158.296 34.066 156.498 34.872 155.01 36.453C153.553 38.034 152.809 39.956 152.809 42.25C152.809 44.544 153.553 46.497 155.01 48.078C156.498 49.659 158.296 50.434 160.373 50.434C162.543 50.434 164.217 49.69 165.395 48.171V50H169.394V28.3H165.395V36.329ZM158.017 45.412C157.211 44.575 156.808 43.521 156.808 42.25C156.808 40.979 157.211 39.925 158.017 39.119C158.854 38.282 159.877 37.879 161.117 37.879C162.357 37.879 163.38 38.282 164.186 39.119C164.992 39.925 165.395 40.979 165.395 42.25C165.395 43.521 164.992 44.575 164.186 45.412C163.38 46.218 162.357 46.621 161.117 46.621C159.877 46.621 158.854 46.218 158.017 45.412Z" fill="white"/>
<g clip-path="url(#clip0)">
<path d="M37.5929 52.9999C39.0641 52.9999 40.347 51.717 40.347 50.2458V43.8138H42.186C43.2895 43.8138 44.025 43.0781 44.025 41.9748V23.604H21.9749V41.975C21.9749 43.0783 22.7105 43.8139 23.8138 43.8139H25.653V50.246C25.653 51.7171 26.9356 53.0001 28.4071 53.0001C29.8781 53.0001 31.1609 51.7171 31.1609 50.246V43.8139H34.839V50.246C34.8388 51.717 36.1217 52.9999 37.5929 52.9999Z" fill="#A6D864"/>
<path d="M48.6181 41.975C50.0893 41.975 51.372 40.6922 51.372 39.2209V26.3569C51.372 24.8935 50.0894 23.604 48.6181 23.604C47.1468 23.604 45.864 24.8936 45.864 26.3569V39.2209C45.864 40.692 47.1467 41.975 48.6181 41.975Z" fill="#A6D864"/>
<path d="M17.3818 41.975C18.8531 41.975 20.1359 40.6922 20.1359 39.2209V26.3569C20.1359 24.8935 18.8533 23.604 17.3818 23.604C15.9106 23.604 14.6279 24.8936 14.6279 26.3569V39.2209C14.628 40.692 15.9106 41.975 17.3818 41.975Z" fill="#A6D864"/>
<path d="M41.8182 9.27747C41.4505 8.90751 40.9032 8.90751 40.5355 9.27747L38.0691 11.7357L37.9553 11.8493C36.4928 11.117 34.853 10.7512 33.027 10.7477C33.0181 10.7477 33.0093 10.7474 33.0003 10.7474H33.0001C32.9908 10.7474 32.9823 10.7477 32.9731 10.7477C31.1472 10.7512 29.5075 11.117 28.0451 11.8493L27.9311 11.7357L25.4646 9.27747C25.0967 8.90751 24.5496 8.90751 24.182 9.27747C23.8141 9.64537 23.8141 10.1914 24.182 10.5591L26.5678 12.9454C25.799 13.4587 25.1019 14.0868 24.4957 14.8052C23.0444 16.5255 22.1186 18.7644 21.9913 21.1903C21.9901 21.2155 21.9876 21.2404 21.9865 21.2657C21.9787 21.4309 21.9751 21.5969 21.9751 21.7636H44.0251C44.0251 21.597 44.0212 21.431 44.0137 21.2657C44.0125 21.2404 44.01 21.2155 44.0085 21.1903C43.8815 18.7644 42.9555 16.5254 41.5041 14.8054C40.8982 14.0869 40.2008 13.4588 39.432 12.9455L41.8182 10.5592C42.1861 10.1914 42.1861 9.64545 41.8182 9.27747ZM28.4037 18.5528C27.6429 18.5528 27.0261 17.936 27.0261 17.1751C27.0261 16.4142 27.6428 15.7974 28.4037 15.7974C29.1645 15.7974 29.7814 16.4142 29.7814 17.1751C29.7814 17.936 29.1645 18.5528 28.4037 18.5528ZM37.5964 18.5528C36.8356 18.5528 36.2188 17.936 36.2188 17.1751C36.2188 16.4142 36.8355 15.7974 37.5964 15.7974C38.3572 15.7974 38.9741 16.4142 38.9741 17.1751C38.9741 17.936 38.3573 18.5528 37.5964 18.5528Z" fill="#A6D864"/>
</g>
<defs>
<clipPath id="clip0">
<rect width="44" height="44" fill="white" transform="translate(11 9)"/>
</clipPath>
</defs>
</svg>
