<svg width="70" height="71" viewBox="0 0 70 71" fill="none" xmlns="http://www.w3.org/2000/svg">
<circle opacity="0.05" cx="35" cy="35.0166" r="35" fill="#B42033"/>
<path d="M34.1001 40.7844C33.8001 40.7844 33.5001 40.6844 33.3001 40.4844L28.9001 36.0844C28.5001 35.6844 28.5001 34.8844 28.9001 34.4844C29.3001 34.0844 30.1001 33.9844 30.5001 34.3844L34.1001 37.9844L46.8001 25.2844C47.2001 24.8844 48.0001 24.8844 48.4001 25.2844C48.8001 25.6844 48.8001 26.4844 48.4001 26.8844L34.9001 40.4844C34.7001 40.6844 34.4001 40.7844 34.1001 40.7844Z" fill="#B42033" stroke="#B42033" stroke-width="0.3"/>
<path d="M45.8001 33.9845C45.2001 33.9845 44.7001 34.4845 44.7001 35.0845V43.3845C44.7001 44.0845 44.1001 44.6845 43.4001 44.6845H26.5001C25.8001 44.6845 25.2001 44.0845 25.2001 43.3845V29.5845C25.2001 28.8845 25.8001 28.2845 26.5001 28.2845H38.7001C39.3001 28.2845 39.8001 27.7845 39.8001 27.1845C39.8001 26.5845 39.3001 26.0845 38.7001 26.0845H26.5001C24.6001 26.1845 23.1001 27.6845 23.1001 29.5845V43.3845C23.1001 45.2845 24.6001 46.7845 26.5001 46.7845H43.4001C45.3001 46.7845 46.8001 45.2845 46.8001 43.3845V35.0845C46.9001 34.4845 46.4001 33.9845 45.8001 33.9845Z" fill="#B42033" stroke="#B42033" stroke-width="0.3"/>
</svg>
