<svg width="70" height="70" viewBox="0 0 70 70" fill="none" xmlns="http://www.w3.org/2000/svg">
<circle opacity="0.05" cx="35" cy="35" r="35" fill="#B42033"/>
<path d="M26.1416 29.5925C31.034 24.8025 38.9661 24.8025 43.8584 29.5925L44.4472 30.169C44.6918 30.4085 44.6918 30.7968 44.4472 31.0363L42.433 33.0084C42.3107 33.1281 42.1124 33.1281 41.9901 33.0084L41.1799 32.2151C37.7668 28.8734 32.2332 28.8734 28.8202 32.2151L27.9525 33.0646C27.8301 33.1844 27.6318 33.1844 27.5095 33.0646L25.4954 31.0926C25.2507 30.8531 25.2507 30.4648 25.4954 30.2253L26.1416 29.5925ZM48.0239 33.6709L49.8165 35.4261C50.0612 35.6656 50.0612 36.0539 49.8165 36.2934L41.7335 44.2075C41.4889 44.447 41.0923 44.447 40.8477 44.2075C40.8476 44.2075 40.8476 44.2075 40.8476 44.2075L35.1108 38.5906C35.0496 38.5307 34.9505 38.5307 34.8893 38.5906C34.8893 38.5906 34.8893 38.5906 34.8893 38.5906L29.1526 44.2075C28.908 44.447 28.5114 44.447 28.2667 44.2075C28.2667 44.2075 28.2667 44.2075 28.2667 44.2075L20.1835 36.2933C19.9388 36.0538 19.9388 35.6655 20.1835 35.426L21.9761 33.6708C22.2207 33.4313 22.6173 33.4313 22.8619 33.6708L28.5989 39.2878C28.66 39.3477 28.7592 39.3477 28.8203 39.2878C28.8203 39.2878 28.8203 39.2878 28.8203 39.2878L34.557 33.6708C34.8016 33.4313 35.1982 33.4313 35.4428 33.6708C35.4428 33.6708 35.4428 33.6708 35.4428 33.6708L41.1798 39.2878C41.2409 39.3477 41.3401 39.3477 41.4012 39.2878L47.1381 33.6709C47.3827 33.4314 47.7793 33.4314 48.0239 33.6709Z" fill="#B42033"/>
</svg>
