<svg width="70" height="70" viewBox="0 0 70 70" fill="none" xmlns="http://www.w3.org/2000/svg">
<circle opacity="0.05" cx="35" cy="35" r="35" fill="#B42033"/>
<path d="M29.9703 35.0166L34.5776 39.3483C34.803 39.5603 35.1543 39.5603 35.3797 39.3483L39.987 35.0166C40.2225 34.7953 40.2339 34.4248 40.0126 34.1893C39.791 33.9538 39.4206 33.9424 39.185 34.1637L35.564 37.568V22.5854C35.564 22.262 35.302 22 34.9786 22C34.6553 22 34.3933 22.262 34.3933 22.5854V37.568L30.7722 34.1639C30.5367 33.9424 30.1663 33.9538 29.9447 34.1893C29.7234 34.4251 29.7348 34.7953 29.9703 35.0166Z" fill="#B42033"/>
<path d="M43.4449 26.3493H40.4767C40.1534 26.3493 39.8913 26.6114 39.8913 26.9347C39.8913 27.258 40.1534 27.52 40.4767 27.52H43.4449C44.4144 27.5212 45.1999 28.3066 45.201 29.2761V43.0732C45.1999 44.0427 44.4144 44.8281 43.4449 44.8293H26.5123C25.5428 44.8281 24.7573 44.0427 24.7562 43.0732V29.2761C24.7573 28.3066 25.5428 27.5212 26.5123 27.52H29.4807C29.8038 27.52 30.0661 27.258 30.0661 26.9347C30.0661 26.6114 29.8038 26.3493 29.4807 26.3493H26.5123C24.8966 26.3511 23.5873 27.6604 23.5854 29.2761V43.0732C23.5873 44.6889 24.8966 45.9982 26.5123 46H43.4449C45.0606 45.9982 46.3699 44.6889 46.3717 43.0732V29.2761C46.3699 27.6604 45.0606 26.3511 43.4449 26.3493Z" fill="#B42033"/>
<path d="M29.9703 35.0166L34.5776 39.3483C34.803 39.5603 35.1543 39.5603 35.3797 39.3483L39.987 35.0166C40.2225 34.7953 40.2339 34.4248 40.0126 34.1893C39.791 33.9538 39.4206 33.9424 39.185 34.1637L35.564 37.568V22.5854C35.564 22.262 35.302 22 34.9786 22C34.6553 22 34.3933 22.262 34.3933 22.5854V37.568L30.7722 34.1639C30.5367 33.9424 30.1663 33.9538 29.9447 34.1893C29.7234 34.4251 29.7348 34.7953 29.9703 35.0166Z" stroke="#B42033"/>
<path d="M43.4449 26.3493H40.4767C40.1534 26.3493 39.8913 26.6114 39.8913 26.9347C39.8913 27.258 40.1534 27.52 40.4767 27.52H43.4449C44.4144 27.5212 45.1999 28.3066 45.201 29.2761V43.0732C45.1999 44.0427 44.4144 44.8281 43.4449 44.8293H26.5123C25.5428 44.8281 24.7573 44.0427 24.7562 43.0732V29.2761C24.7573 28.3066 25.5428 27.5212 26.5123 27.52H29.4807C29.8038 27.52 30.0661 27.258 30.0661 26.9347C30.0661 26.6114 29.8038 26.3493 29.4807 26.3493H26.5123C24.8966 26.3511 23.5873 27.6604 23.5854 29.2761V43.0732C23.5873 44.6889 24.8966 45.9982 26.5123 46H43.4449C45.0606 45.9982 46.3699 44.6889 46.3717 43.0732V29.2761C46.3699 27.6604 45.0606 26.3511 43.4449 26.3493Z" stroke="#B42033"/>
</svg>
