<svg width="70" height="70" viewBox="0 0 70 70" fill="none" xmlns="http://www.w3.org/2000/svg">
<circle opacity="0.05" cx="35" cy="35" r="35" fill="#B42033"/>
<path d="M24.8594 30.875C25.334 30.875 25.7188 30.4903 25.7188 30.0156V25.7188H30.0156C30.4903 25.7188 30.875 25.334 30.875 24.8594C30.875 24.3847 30.4903 24 30.0156 24H24.8594C24.3847 24 24 24.3847 24 24.8594V30.0156C24 30.4903 24.3847 30.875 24.8594 30.875Z" fill="#B42033"/>
<path d="M30.0156 44.2812H25.7188V39.9844C25.7188 39.5097 25.334 39.125 24.8594 39.125C24.3847 39.125 24 39.5097 24 39.9844V45.1406C24 45.6153 24.3847 46 24.8594 46H30.0156C30.4903 46 30.875 45.6153 30.875 45.1406C30.875 44.666 30.4903 44.2812 30.0156 44.2812Z" fill="#B42033"/>
<path d="M45.1406 24H39.9844C39.5097 24 39.125 24.3847 39.125 24.8594C39.125 25.334 39.5097 25.7188 39.9844 25.7188H44.2812V30.0156C44.2812 30.4903 44.666 30.875 45.1406 30.875C45.6153 30.875 46 30.4903 46 30.0156V24.8594C46 24.3847 45.6153 24 45.1406 24Z" fill="#B42033"/>
<path d="M45.1406 39.125C44.666 39.125 44.2812 39.5097 44.2812 39.9844V44.2812H39.9844C39.5097 44.2812 39.125 44.666 39.125 45.1406C39.125 45.6153 39.5097 46 39.9844 46H45.1406C45.6153 46 46 45.6153 46 45.1406V39.9844C46 39.5097 45.6153 39.125 45.1406 39.125Z" fill="#B42033"/>
<path d="M24.8594 30.875C25.334 30.875 25.7188 30.4903 25.7188 30.0156V25.7188H30.0156C30.4903 25.7188 30.875 25.334 30.875 24.8594C30.875 24.3847 30.4903 24 30.0156 24H24.8594C24.3847 24 24 24.3847 24 24.8594V30.0156C24 30.4903 24.3847 30.875 24.8594 30.875Z" stroke="#B42033"/>
<path d="M30.0156 44.2812H25.7188V39.9844C25.7188 39.5097 25.334 39.125 24.8594 39.125C24.3847 39.125 24 39.5097 24 39.9844V45.1406C24 45.6153 24.3847 46 24.8594 46H30.0156C30.4903 46 30.875 45.6153 30.875 45.1406C30.875 44.666 30.4903 44.2812 30.0156 44.2812Z" stroke="#B42033"/>
<path d="M45.1406 24H39.9844C39.5097 24 39.125 24.3847 39.125 24.8594C39.125 25.334 39.5097 25.7188 39.9844 25.7188H44.2812V30.0156C44.2812 30.4903 44.666 30.875 45.1406 30.875C45.6153 30.875 46 30.4903 46 30.0156V24.8594C46 24.3847 45.6153 24 45.1406 24Z" stroke="#B42033"/>
<path d="M45.1406 39.125C44.666 39.125 44.2812 39.5097 44.2812 39.9844V44.2812H39.9844C39.5097 44.2812 39.125 44.666 39.125 45.1406C39.125 45.6153 39.5097 46 39.9844 46H45.1406C45.6153 46 46 45.6153 46 45.1406V39.9844C46 39.5097 45.6153 39.125 45.1406 39.125Z" stroke="#B42033"/>
</svg>
