<svg width="71" height="71" viewBox="0 0 71 71" fill="none" xmlns="http://www.w3.org/2000/svg">
<rect x="0.929688" y="0.611572" width="69.5714" height="69.5714" rx="11.5" stroke="url(#paint0_linear_1567_11047)"/>
<path d="M24.5853 34.716L15.0813 44.508V48H33.7653V43.752H21.3813L27.8613 37.308C30.6693 34.428 32.6493 31.584 32.6493 28.992C32.6493 25.068 29.2293 22.548 24.2613 22.548C20.8413 22.548 17.4933 23.916 14.5773 26.22L16.5213 29.928C18.7173 27.984 21.3453 26.76 23.5773 26.76C26.0973 26.76 27.6093 27.84 27.6093 29.712C27.6093 31.044 26.3853 32.952 24.5853 34.716ZM46.588 22.548C41.404 22.548 38.128 25.032 38.128 28.992C38.128 31.368 39.532 33.348 41.872 34.5C38.812 35.58 36.868 37.956 36.868 40.98C36.868 45.444 40.648 48.216 46.624 48.216C52.6 48.216 56.38 45.408 56.38 40.908C56.38 37.92 54.508 35.58 51.592 34.5C53.752 33.456 55.084 31.512 55.084 29.172C55.084 25.068 51.844 22.548 46.588 22.548ZM46.624 26.004C49.432 26.004 51.016 27.264 51.016 29.424C51.016 31.584 49.432 32.844 46.624 32.844C43.816 32.844 42.196 31.584 42.196 29.424C42.196 27.264 43.816 26.004 46.624 26.004ZM46.588 36.588C49.9 36.588 51.844 38.028 51.844 40.476C51.844 42.996 49.9 44.436 46.624 44.436C43.312 44.436 41.404 42.996 41.404 40.44C41.404 37.992 43.312 36.588 46.588 36.588Z" fill="url(#paint1_linear_1567_11047)"/>
<defs>
<linearGradient id="paint0_linear_1567_11047" x1="35.7154" y1="0.111572" x2="35.7154" y2="70.683" gradientUnits="userSpaceOnUse">
<stop offset="0.171875" stop-color="#24E4F9"/>
<stop offset="0.682292" stop-color="#DA61E5"/>
</linearGradient>
<linearGradient id="paint1_linear_1567_11047" x1="35.5" y1="10" x2="35.5" y2="61" gradientUnits="userSpaceOnUse">
<stop offset="0.171875" stop-color="#24E4F9"/>
<stop offset="0.682292" stop-color="#DA61E5"/>
</linearGradient>
</defs>
</svg>
