<svg width="71" height="71" viewBox="0 0 71 71" fill="none" xmlns="http://www.w3.org/2000/svg">
<rect x="0.5" y="0.5" width="70" height="70" rx="11.5" stroke="url(#paint0_linear_1567_11026)"/>
<path d="M24.5701 33.8507C27.0421 34.0907 28.9261 34.8587 30.2221 36.1547C31.5181 37.4267 32.1661 39.0587 32.1661 41.0507C32.1661 42.4907 31.8061 43.7987 31.0861 44.9747C30.3661 46.1267 29.2861 47.0507 27.8461 47.7467C26.4301 48.4187 24.6901 48.7547 22.6261 48.7547C20.8261 48.7547 19.0981 48.4907 17.4421 47.9627C15.7861 47.4107 14.4301 46.6547 13.3741 45.6947L15.0301 42.8507C15.8941 43.6667 16.9981 44.3267 18.3421 44.8307C19.6861 45.3107 21.1141 45.5507 22.6261 45.5507C24.4981 45.5507 25.9501 45.1547 26.9821 44.3627C28.0381 43.5707 28.5661 42.4787 28.5661 41.0867C28.5661 39.6947 28.0501 38.6147 27.0181 37.8467C25.9861 37.0787 24.4261 36.6947 22.3381 36.6947H20.3221V34.1747L26.6581 26.3987H14.5261V23.2667H31.1581V25.7147L24.5701 33.8507ZM45.8197 48.7547C43.8277 48.7547 42.0517 48.2507 40.4917 47.2427C38.9557 46.2107 37.7437 44.7227 36.8557 42.7787C35.9677 40.8347 35.5237 38.5307 35.5237 35.8667C35.5237 33.2027 35.9677 30.8987 36.8557 28.9547C37.7437 27.0107 38.9557 25.5347 40.4917 24.5267C42.0517 23.4947 43.8277 22.9787 45.8197 22.9787C47.7877 22.9787 49.5397 23.4947 51.0757 24.5267C52.6357 25.5347 53.8597 27.0107 54.7477 28.9547C55.6357 30.8987 56.0797 33.2027 56.0797 35.8667C56.0797 38.5307 55.6357 40.8347 54.7477 42.7787C53.8597 44.7227 52.6357 46.2107 51.0757 47.2427C49.5397 48.2507 47.7877 48.7547 45.8197 48.7547ZM45.8197 45.5507C47.8357 45.5507 49.4437 44.7227 50.6437 43.0667C51.8677 41.4107 52.4797 39.0107 52.4797 35.8667C52.4797 32.7227 51.8677 30.3227 50.6437 28.6667C49.4437 27.0107 47.8357 26.1827 45.8197 26.1827C43.7797 26.1827 42.1477 27.0107 40.9237 28.6667C39.7237 30.3227 39.1237 32.7227 39.1237 35.8667C39.1237 39.0107 39.7237 41.4107 40.9237 43.0667C42.1477 44.7227 43.7797 45.5507 45.8197 45.5507Z" fill="url(#paint1_linear_1567_11026)"/>
<defs>
<linearGradient id="paint0_linear_1567_11026" x1="35.5" y1="0" x2="35.5" y2="71" gradientUnits="userSpaceOnUse">
<stop offset="0.171875" stop-color="#24E4F9"/>
<stop offset="0.682292" stop-color="#DA61E5"/>
</linearGradient>
<linearGradient id="paint1_linear_1567_11026" x1="35.5008" y1="13.4667" x2="35.5008" y2="57.4667" gradientUnits="userSpaceOnUse">
<stop offset="0.171875" stop-color="#24E4F9"/>
<stop offset="0.682292" stop-color="#DA61E5"/>
</linearGradient>
</defs>
</svg>
