<svg width="70" height="71" viewBox="0 0 70 71" fill="none" xmlns="http://www.w3.org/2000/svg">
<rect x="0.5" y="0.5" width="69" height="70" rx="11.5" stroke="url(#paint0_linear_1567_11029)"/>
<path d="M33.8033 45.3347V48.4667H15.6953V46.0187L25.9553 36.1187C27.2033 34.9187 28.0433 33.8867 28.4753 33.0227C28.9073 32.1347 29.1233 31.2467 29.1233 30.3587C29.1233 29.0387 28.6553 28.0187 27.7193 27.2987C26.8073 26.5547 25.4873 26.1827 23.7593 26.1827C20.9753 26.1827 18.8273 27.0947 17.3153 28.9187L14.8673 26.7947C15.8513 25.5947 17.1353 24.6587 18.7193 23.9867C20.3273 23.3147 22.1153 22.9787 24.0833 22.9787C26.7233 22.9787 28.8233 23.6147 30.3833 24.8867C31.9433 26.1347 32.7233 27.8387 32.7233 29.9987C32.7233 31.3427 32.4353 32.6147 31.8593 33.8147C31.2833 35.0147 30.1913 36.3827 28.5833 37.9187L20.8793 45.3347H33.8033ZM46.4112 33.8507C48.8832 34.0907 50.7672 34.8587 52.0632 36.1547C53.3592 37.4267 54.0072 39.0587 54.0072 41.0507C54.0072 42.4907 53.6472 43.7987 52.9272 44.9747C52.2072 46.1267 51.1272 47.0507 49.6872 47.7467C48.2712 48.4187 46.5312 48.7547 44.4672 48.7547C42.6672 48.7547 40.9392 48.4907 39.2832 47.9627C37.6272 47.4107 36.2712 46.6547 35.2152 45.6947L36.8712 42.8507C37.7352 43.6667 38.8392 44.3267 40.1832 44.8307C41.5272 45.3107 42.9552 45.5507 44.4672 45.5507C46.3392 45.5507 47.7912 45.1547 48.8232 44.3627C49.8792 43.5707 50.4072 42.4787 50.4072 41.0867C50.4072 39.6947 49.8912 38.6147 48.8592 37.8467C47.8272 37.0787 46.2672 36.6947 44.1792 36.6947H42.1632V34.1747L48.4992 26.3987H36.3672V23.2667H52.9992V25.7147L46.4112 33.8507Z" fill="url(#paint1_linear_1567_11029)"/>
<defs>
<linearGradient id="paint0_linear_1567_11029" x1="35" y1="0" x2="35" y2="71" gradientUnits="userSpaceOnUse">
<stop offset="0.171875" stop-color="#24E4F9"/>
<stop offset="0.682292" stop-color="#DA61E5"/>
</linearGradient>
<linearGradient id="paint1_linear_1567_11029" x1="35" y1="13.4667" x2="35" y2="57.4667" gradientUnits="userSpaceOnUse">
<stop offset="0.171875" stop-color="#24E4F9"/>
<stop offset="0.682292" stop-color="#DA61E5"/>
</linearGradient>
</defs>
</svg>
