<svg width="71" height="71" viewBox="0 0 71 71" fill="none" xmlns="http://www.w3.org/2000/svg">
<rect x="0.5" y="0.5" width="70" height="70" rx="11.5" stroke="url(#paint0_linear_1567_11018)"/>
<path d="M36.576 33.8507C39.048 34.0907 40.932 34.8587 42.228 36.1547C43.524 37.4267 44.172 39.0587 44.172 41.0507C44.172 42.4907 43.812 43.7987 43.092 44.9747C42.372 46.1267 41.292 47.0507 39.852 47.7467C38.436 48.4187 36.696 48.7547 34.632 48.7547C32.832 48.7547 31.104 48.4907 29.448 47.9627C27.792 47.4107 26.436 46.6547 25.38 45.6947L27.036 42.8507C27.9 43.6667 29.004 44.3267 30.348 44.8307C31.692 45.3107 33.12 45.5507 34.632 45.5507C36.504 45.5507 37.956 45.1547 38.988 44.3627C40.044 43.5707 40.572 42.4787 40.572 41.0867C40.572 39.6947 40.056 38.6147 39.024 37.8467C37.992 37.0787 36.432 36.6947 34.344 36.6947H32.328V34.1747L38.664 26.3987H26.532V23.2667H43.164V25.7147L36.576 33.8507Z" fill="url(#paint1_linear_1567_11018)"/>
<defs>
<linearGradient id="paint0_linear_1567_11018" x1="35.5" y1="0" x2="35.5" y2="71" gradientUnits="userSpaceOnUse">
<stop offset="0.171875" stop-color="#24E4F9"/>
<stop offset="0.682292" stop-color="#DA61E5"/>
</linearGradient>
<linearGradient id="paint1_linear_1567_11018" x1="35.5008" y1="13.4667" x2="35.5008" y2="57.4667" gradientUnits="userSpaceOnUse">
<stop offset="0.171875" stop-color="#24E4F9"/>
<stop offset="0.682292" stop-color="#DA61E5"/>
</linearGradient>
</defs>
</svg>
