<svg width="71" height="70" viewBox="0 0 71 70" fill="none" xmlns="http://www.w3.org/2000/svg">
<rect x="0.5" y="0.5" width="70" height="69" rx="11.5" stroke="url(#paint0_linear_1567_11017)"/>
<path d="M26.3728 22.1334V47.3334H22.8088V25.2654H17.1208V22.1334H26.3728ZM42.181 47.6214C40.189 47.6214 38.413 47.1174 36.853 46.1094C35.317 45.0774 34.105 43.5894 33.217 41.6454C32.329 39.7014 31.885 37.3974 31.885 34.7334C31.885 32.0694 32.329 29.7654 33.217 27.8214C34.105 25.8774 35.317 24.4014 36.853 23.3934C38.413 22.3614 40.189 21.8454 42.181 21.8454C44.149 21.8454 45.901 22.3614 47.437 23.3934C48.997 24.4014 50.221 25.8774 51.109 27.8214C51.997 29.7654 52.441 32.0694 52.441 34.7334C52.441 37.3974 51.997 39.7014 51.109 41.6454C50.221 43.5894 48.997 45.0774 47.437 46.1094C45.901 47.1174 44.149 47.6214 42.181 47.6214ZM42.181 44.4174C44.197 44.4174 45.805 43.5894 47.005 41.9334C48.229 40.2774 48.841 37.8774 48.841 34.7334C48.841 31.5894 48.229 29.1894 47.005 27.5334C45.805 25.8774 44.197 25.0494 42.181 25.0494C40.141 25.0494 38.509 25.8774 37.285 27.5334C36.085 29.1894 35.485 31.5894 35.485 34.7334C35.485 37.8774 36.085 40.2774 37.285 41.9334C38.509 43.5894 40.141 44.4174 42.181 44.4174Z" fill="url(#paint1_linear_1567_11017)"/>
<defs>
<linearGradient id="paint0_linear_1567_11017" x1="35.5" y1="0" x2="35.5" y2="70" gradientUnits="userSpaceOnUse">
<stop offset="0.171875" stop-color="#24E4F9"/>
<stop offset="0.682292" stop-color="#DA61E5"/>
</linearGradient>
<linearGradient id="paint1_linear_1567_11017" x1="35.5008" y1="12.3334" x2="35.5008" y2="56.3334" gradientUnits="userSpaceOnUse">
<stop offset="0.171875" stop-color="#24E4F9"/>
<stop offset="0.682292" stop-color="#DA61E5"/>
</linearGradient>
</defs>
</svg>
