<svg width="70" height="71" viewBox="0 0 70 71" fill="none" xmlns="http://www.w3.org/2000/svg">
<rect x="0.5" y="0.5" width="69" height="70" rx="11.5" stroke="url(#paint0_linear_1567_11024)"/>
<path d="M33.0474 45.3347V48.4667H14.9394V46.0187L25.1994 36.1187C26.4474 34.9187 27.2874 33.8867 27.7194 33.0227C28.1514 32.1347 28.3674 31.2467 28.3674 30.3587C28.3674 29.0387 27.8994 28.0187 26.9634 27.2987C26.0514 26.5547 24.7314 26.1827 23.0034 26.1827C20.2194 26.1827 18.0714 27.0947 16.5594 28.9187L14.1114 26.7947C15.0954 25.5947 16.3794 24.6587 17.9634 23.9867C19.5714 23.3147 21.3594 22.9787 23.3274 22.9787C25.9674 22.9787 28.0674 23.6147 29.6274 24.8867C31.1874 26.1347 31.9674 27.8387 31.9674 29.9987C31.9674 31.3427 31.6794 32.6147 31.1034 33.8147C30.5274 35.0147 29.4354 36.3827 27.8274 37.9187L20.1234 45.3347H33.0474ZM46.7738 33.1667C48.4298 33.1667 49.9058 33.4787 51.2018 34.1027C52.5218 34.7267 53.5538 35.6267 54.2978 36.8027C55.0418 37.9547 55.4138 39.2867 55.4138 40.7987C55.4138 42.3827 55.0178 43.7747 54.2258 44.9747C53.4578 46.1747 52.3898 47.1107 51.0218 47.7827C49.6778 48.4307 48.1658 48.7547 46.4858 48.7547C43.1018 48.7547 40.4858 47.6627 38.6378 45.4787C36.8138 43.2947 35.9018 40.1987 35.9018 36.1907C35.9018 33.3827 36.3938 30.9947 37.3778 29.0267C38.3858 27.0347 39.7778 25.5347 41.5538 24.5267C43.3538 23.4947 45.4418 22.9787 47.8178 22.9787C49.0418 22.9787 50.1938 23.1107 51.2738 23.3747C52.3538 23.6147 53.2898 23.9747 54.0818 24.4547L52.7138 27.2627C51.5138 26.4707 49.9058 26.0747 47.8898 26.0747C45.2738 26.0747 43.2218 26.8907 41.7338 28.5227C40.2458 30.1307 39.5018 32.4827 39.5018 35.5787C39.5018 35.9627 39.5138 36.2627 39.5378 36.4787C40.2578 35.3987 41.2418 34.5827 42.4898 34.0307C43.7618 33.4547 45.1898 33.1667 46.7738 33.1667ZM46.3418 45.8387C47.9978 45.8387 49.3418 45.3947 50.3738 44.5067C51.4058 43.6187 51.9218 42.4307 51.9218 40.9427C51.9218 39.4547 51.3938 38.2787 50.3378 37.4147C49.3058 36.5267 47.9138 36.0827 46.1618 36.0827C45.0338 36.0827 44.0258 36.2987 43.1378 36.7307C42.2738 37.1627 41.5898 37.7507 41.0858 38.4947C40.6058 39.2387 40.3658 40.0667 40.3658 40.9787C40.3658 41.8667 40.5938 42.6827 41.0498 43.4267C41.5298 44.1467 42.2138 44.7347 43.1018 45.1907C44.0138 45.6227 45.0938 45.8387 46.3418 45.8387Z" fill="url(#paint1_linear_1567_11024)"/>
<defs>
<linearGradient id="paint0_linear_1567_11024" x1="35" y1="0" x2="35" y2="71" gradientUnits="userSpaceOnUse">
<stop offset="0.171875" stop-color="#24E4F9"/>
<stop offset="0.682292" stop-color="#DA61E5"/>
</linearGradient>
<linearGradient id="paint1_linear_1567_11024" x1="35" y1="13.4667" x2="35" y2="57.4667" gradientUnits="userSpaceOnUse">
<stop offset="0.171875" stop-color="#24E4F9"/>
<stop offset="0.682292" stop-color="#DA61E5"/>
</linearGradient>
</defs>
</svg>
