<svg width="70" height="71" viewBox="0 0 70 71" fill="none" xmlns="http://www.w3.org/2000/svg">
<rect x="0.5" y="0.5" width="69" height="70" rx="11.5" stroke="url(#paint0_linear_1567_11028)"/>
<path d="M33.399 45.3347V48.4667H15.291V46.0187L25.551 36.1187C26.799 34.9187 27.639 33.8867 28.071 33.0227C28.503 32.1347 28.719 31.2467 28.719 30.3587C28.719 29.0387 28.251 28.0187 27.315 27.2987C26.403 26.5547 25.083 26.1827 23.355 26.1827C20.571 26.1827 18.423 27.0947 16.911 28.9187L14.463 26.7947C15.447 25.5947 16.731 24.6587 18.315 23.9867C19.923 23.3147 21.711 22.9787 23.679 22.9787C26.319 22.9787 28.419 23.6147 29.979 24.8867C31.539 26.1347 32.319 27.8387 32.319 29.9987C32.319 31.3427 32.031 32.6147 31.455 33.8147C30.879 35.0147 29.787 36.3827 28.179 37.9187L20.475 45.3347H33.399ZM54.6134 23.2667V25.7147L44.4254 48.4667H40.6094L50.5814 26.3987H39.0614V30.8987H35.6054V23.2667H54.6134Z" fill="url(#paint1_linear_1567_11028)"/>
<defs>
<linearGradient id="paint0_linear_1567_11028" x1="35" y1="0" x2="35" y2="71" gradientUnits="userSpaceOnUse">
<stop offset="0.171875" stop-color="#24E4F9"/>
<stop offset="0.682292" stop-color="#DA61E5"/>
</linearGradient>
<linearGradient id="paint1_linear_1567_11028" x1="35" y1="13.4667" x2="35" y2="57.4667" gradientUnits="userSpaceOnUse">
<stop offset="0.171875" stop-color="#24E4F9"/>
<stop offset="0.682292" stop-color="#DA61E5"/>
</linearGradient>
</defs>
</svg>
