<svg width="72" height="71" viewBox="0 0 72 71" fill="none" xmlns="http://www.w3.org/2000/svg">
<rect x="1.1875" y="0.893555" width="69.5714" height="69.5714" rx="11.5" stroke="url(#paint0_linear_1567_11059)"/>
<path d="M27.2939 23.8V49H23.7299V26.932H18.0419V23.8H27.2939ZM48.2141 35.788C49.6541 36.34 50.7581 37.132 51.5261 38.164C52.2941 39.196 52.6781 40.432 52.6781 41.872C52.6781 43.384 52.2701 44.704 51.4541 45.832C50.6381 46.936 49.4741 47.788 47.9621 48.388C46.4501 48.988 44.6741 49.288 42.6341 49.288C40.6181 49.288 38.8541 48.988 37.3421 48.388C35.8541 47.788 34.7021 46.936 33.8861 45.832C33.0701 44.704 32.6621 43.384 32.6621 41.872C32.6621 40.432 33.0341 39.196 33.7781 38.164C34.5461 37.132 35.6501 36.34 37.0901 35.788C35.9381 35.236 35.0621 34.504 34.4621 33.592C33.8621 32.68 33.5621 31.6 33.5621 30.352C33.5621 28.96 33.9341 27.748 34.6781 26.716C35.4461 25.684 36.5141 24.892 37.8821 24.34C39.2501 23.788 40.8341 23.512 42.6341 23.512C44.4581 23.512 46.0541 23.788 47.4221 24.34C48.8141 24.892 49.8821 25.684 50.6261 26.716C51.3941 27.748 51.7781 28.96 51.7781 30.352C51.7781 31.576 51.4661 32.656 50.8421 33.592C50.2421 34.504 49.3661 35.236 48.2141 35.788ZM42.6341 26.428C40.9301 26.428 39.5861 26.8 38.6021 27.544C37.6181 28.264 37.1261 29.248 37.1261 30.496C37.1261 31.744 37.6061 32.728 38.5661 33.448C39.5501 34.168 40.9061 34.528 42.6341 34.528C44.3861 34.528 45.7541 34.168 46.7381 33.448C47.7461 32.728 48.2501 31.744 48.2501 30.496C48.2501 29.248 47.7341 28.264 46.7021 27.544C45.6941 26.8 44.3381 26.428 42.6341 26.428ZM42.6341 46.372C44.6261 46.372 46.1981 45.964 47.3501 45.148C48.5021 44.308 49.0781 43.18 49.0781 41.764C49.0781 40.372 48.5021 39.28 47.3501 38.488C46.1981 37.672 44.6261 37.264 42.6341 37.264C40.6421 37.264 39.0821 37.672 37.9541 38.488C36.8261 39.28 36.2621 40.372 36.2621 41.764C36.2621 43.18 36.8261 44.308 37.9541 45.148C39.0821 45.964 40.6421 46.372 42.6341 46.372Z" fill="url(#paint1_linear_1567_11059)"/>
<defs>
<linearGradient id="paint0_linear_1567_11059" x1="35.9732" y1="0.393555" x2="35.9732" y2="70.965" gradientUnits="userSpaceOnUse">
<stop offset="0.171875" stop-color="#24E4F9"/>
<stop offset="0.682292" stop-color="#DA61E5"/>
</linearGradient>
<linearGradient id="paint1_linear_1567_11059" x1="36" y1="10" x2="36" y2="62" gradientUnits="userSpaceOnUse">
<stop offset="0.171875" stop-color="#24E4F9"/>
<stop offset="0.682292" stop-color="#DA61E5"/>
</linearGradient>
</defs>
</svg>
