<svg width="71" height="70" viewBox="0 0 71 70" fill="none" xmlns="http://www.w3.org/2000/svg">
<rect x="0.5" y="0.5" width="70" height="69" rx="11.5" stroke="url(#paint0_linear_1567_11025)"/>
<path d="M34.2689 44.2014V47.3334H16.1609V44.8854L26.4209 34.9854C27.6689 33.7854 28.5089 32.7534 28.9409 31.8894C29.3729 31.0014 29.5889 30.1134 29.5889 29.2254C29.5889 27.9054 29.1209 26.8854 28.1849 26.1654C27.2729 25.4214 25.9529 25.0494 24.2249 25.0494C21.4409 25.0494 19.2929 25.9614 17.7809 27.7854L15.3329 25.6614C16.3169 24.4614 17.6009 23.5254 19.1849 22.8534C20.7929 22.1814 22.5809 21.8454 24.5489 21.8454C27.1889 21.8454 29.2889 22.4814 30.8489 23.7534C32.4089 25.0014 33.1889 26.7054 33.1889 28.8654C33.1889 30.2094 32.9009 31.4814 32.3249 32.6814C31.7489 33.8814 30.6569 35.2494 29.0489 36.7854L21.3449 44.2014H34.2689ZM54.9408 44.2014V47.3334H36.8328V44.8854L47.0928 34.9854C48.3408 33.7854 49.1808 32.7534 49.6128 31.8894C50.0448 31.0014 50.2608 30.1134 50.2608 29.2254C50.2608 27.9054 49.7928 26.8854 48.8568 26.1654C47.9448 25.4214 46.6248 25.0494 44.8968 25.0494C42.1128 25.0494 39.9648 25.9614 38.4528 27.7854L36.0048 25.6614C36.9888 24.4614 38.2728 23.5254 39.8568 22.8534C41.4648 22.1814 43.2528 21.8454 45.2208 21.8454C47.8608 21.8454 49.9608 22.4814 51.5208 23.7534C53.0808 25.0014 53.8608 26.7054 53.8608 28.8654C53.8608 30.2094 53.5728 31.4814 52.9968 32.6814C52.4208 33.8814 51.3288 35.2494 49.7208 36.7854L42.0168 44.2014H54.9408Z" fill="url(#paint1_linear_1567_11025)"/>
<defs>
<linearGradient id="paint0_linear_1567_11025" x1="35.5" y1="0" x2="35.5" y2="70" gradientUnits="userSpaceOnUse">
<stop offset="0.171875" stop-color="#24E4F9"/>
<stop offset="0.682292" stop-color="#DA61E5"/>
</linearGradient>
<linearGradient id="paint1_linear_1567_11025" x1="35.5008" y1="12.3334" x2="35.5008" y2="56.3334" gradientUnits="userSpaceOnUse">
<stop offset="0.171875" stop-color="#24E4F9"/>
<stop offset="0.682292" stop-color="#DA61E5"/>
</linearGradient>
</defs>
</svg>
