<svg width="72" height="71" viewBox="0 0 72 71" fill="none" xmlns="http://www.w3.org/2000/svg">
<rect x="1.24219" y="0.925781" width="69.5714" height="69.5714" rx="11.5" stroke="url(#paint0_linear_1567_11039)"/>
<path d="M34.7681 45.868V49H16.6601V46.552L26.9201 36.652C28.1681 35.452 29.0081 34.42 29.4401 33.556C29.8721 32.668 30.0881 31.78 30.0881 30.892C30.0881 29.572 29.6201 28.552 28.6841 27.832C27.7721 27.088 26.4521 26.716 24.7241 26.716C21.9401 26.716 19.7921 27.628 18.2801 29.452L15.8321 27.328C16.8161 26.128 18.1001 25.192 19.6841 24.52C21.2921 23.848 23.0801 23.512 25.0481 23.512C27.6881 23.512 29.7881 24.148 31.3481 25.42C32.9081 26.668 33.6881 28.372 33.6881 30.532C33.6881 31.876 33.4001 33.148 32.8241 34.348C32.2481 35.548 31.1561 36.916 29.5481 38.452L21.8441 45.868H34.7681ZM44.928 33.844C48.528 33.844 51.168 34.528 52.848 35.896C54.552 37.24 55.404 39.088 55.404 41.44C55.404 42.928 55.044 44.272 54.324 45.472C53.628 46.648 52.56 47.584 51.12 48.28C49.704 48.952 47.952 49.288 45.864 49.288C44.088 49.288 42.372 49.024 40.716 48.496C39.06 47.944 37.692 47.188 36.612 46.228L38.268 43.384C39.132 44.2 40.236 44.86 41.58 45.364C42.924 45.844 44.34 46.084 45.828 46.084C47.724 46.084 49.188 45.688 50.22 44.896C51.276 44.08 51.804 42.976 51.804 41.584C51.804 40.072 51.228 38.932 50.076 38.164C48.924 37.372 46.956 36.976 44.172 36.976H38.448L39.78 23.8H54V26.932H42.804L42.12 33.844H44.928Z" fill="url(#paint1_linear_1567_11039)"/>
<defs>
<linearGradient id="paint0_linear_1567_11039" x1="36.0279" y1="0.425781" x2="36.0279" y2="70.9972" gradientUnits="userSpaceOnUse">
<stop offset="0.171875" stop-color="#24E4F9"/>
<stop offset="0.682292" stop-color="#DA61E5"/>
</linearGradient>
<linearGradient id="paint1_linear_1567_11039" x1="36" y1="10" x2="36" y2="62" gradientUnits="userSpaceOnUse">
<stop offset="0.171875" stop-color="#24E4F9"/>
<stop offset="0.682292" stop-color="#DA61E5"/>
</linearGradient>
</defs>
</svg>
