<svg width="71" height="71" viewBox="0 0 71 71" fill="none" xmlns="http://www.w3.org/2000/svg">
<rect x="0.558594" y="0.836426" width="69.5714" height="69.5714" rx="11.5" stroke="url(#paint0_linear_1567_11031)"/>
<path d="M28.0771 22.8V48H24.5131V25.932H18.8251V22.8H28.0771ZM43.2373 33.384C45.7093 33.624 47.5933 34.392 48.8893 35.688C50.1853 36.96 50.8333 38.592 50.8333 40.584C50.8333 42.024 50.4733 43.332 49.7533 44.508C49.0333 45.66 47.9533 46.584 46.5133 47.28C45.0973 47.952 43.3573 48.288 41.2933 48.288C39.4933 48.288 37.7653 48.024 36.1093 47.496C34.4533 46.944 33.0973 46.188 32.0413 45.228L33.6973 42.384C34.5613 43.2 35.6653 43.86 37.0093 44.364C38.3533 44.844 39.7813 45.084 41.2933 45.084C43.1653 45.084 44.6173 44.688 45.6493 43.896C46.7053 43.104 47.2333 42.012 47.2333 40.62C47.2333 39.228 46.7173 38.148 45.6853 37.38C44.6533 36.612 43.0933 36.228 41.0053 36.228H38.9893V33.708L45.3253 25.932H33.1933V22.8H49.8253V25.248L43.2373 33.384Z" fill="url(#paint1_linear_1567_11031)"/>
<defs>
<linearGradient id="paint0_linear_1567_11031" x1="35.3443" y1="0.336426" x2="35.3443" y2="70.9079" gradientUnits="userSpaceOnUse">
<stop offset="0.171875" stop-color="#24E4F9"/>
<stop offset="0.682292" stop-color="#DA61E5"/>
</linearGradient>
<linearGradient id="paint1_linear_1567_11031" x1="35.5" y1="10" x2="35.5" y2="61" gradientUnits="userSpaceOnUse">
<stop offset="0.171875" stop-color="#24E4F9"/>
<stop offset="0.682292" stop-color="#DA61E5"/>
</linearGradient>
</defs>
</svg>
