<svg width="71" height="71" viewBox="0 0 71 71" fill="none" xmlns="http://www.w3.org/2000/svg">
<rect x="0.5" y="0.5" width="70" height="70" rx="11.5" stroke="url(#paint0_linear_1567_11027)"/>
<path d="M27.2693 23.2667V48.4667H23.7053V26.3987H18.0173V23.2667H27.2693ZM40.9535 22.9787C44.3375 22.9787 46.9415 24.0707 48.7655 26.2547C50.6135 28.4387 51.5375 31.5347 51.5375 35.5427C51.5375 38.3507 51.0335 40.7507 50.0255 42.7427C49.0415 44.7107 47.6495 46.2107 45.8495 47.2427C44.0735 48.2507 41.9975 48.7547 39.6215 48.7547C38.3975 48.7547 37.2455 48.6347 36.1655 48.3947C35.0855 48.1307 34.1495 47.7587 33.3575 47.2787L34.7255 44.4707C35.9495 45.2627 37.5695 45.6587 39.5855 45.6587C42.2015 45.6587 44.2415 44.8547 45.7055 43.2467C47.1935 41.6147 47.9375 39.2507 47.9375 36.1547V35.2547C47.2175 36.3347 46.2215 37.1627 44.9495 37.7387C43.6775 38.2907 42.2495 38.5667 40.6655 38.5667C39.0095 38.5667 37.5215 38.2547 36.2015 37.6307C34.9055 37.0067 33.8855 36.1187 33.1415 34.9667C32.4215 33.7907 32.0615 32.4467 32.0615 30.9347C32.0615 29.3507 32.4455 27.9587 33.2135 26.7587C34.0055 25.5587 35.0735 24.6347 36.4175 23.9867C37.7615 23.3147 39.2735 22.9787 40.9535 22.9787ZM41.2775 35.6507C42.4055 35.6507 43.4135 35.4347 44.3015 35.0027C45.1895 34.5707 45.8735 33.9827 46.3535 33.2387C46.8575 32.4947 47.1095 31.6667 47.1095 30.7547C47.1095 29.8667 46.8695 29.0627 46.3895 28.3427C45.9335 27.5987 45.2495 27.0107 44.3375 26.5787C43.4495 26.1227 42.3695 25.8947 41.0975 25.8947C39.4415 25.8947 38.0975 26.3387 37.0655 27.2267C36.0575 28.1147 35.5535 29.3027 35.5535 30.7907C35.5535 32.2787 36.0695 33.4667 37.1015 34.3547C38.1335 35.2187 39.5255 35.6507 41.2775 35.6507Z" fill="url(#paint1_linear_1567_11027)"/>
<defs>
<linearGradient id="paint0_linear_1567_11027" x1="35.5" y1="0" x2="35.5" y2="71" gradientUnits="userSpaceOnUse">
<stop offset="0.171875" stop-color="#24E4F9"/>
<stop offset="0.682292" stop-color="#DA61E5"/>
</linearGradient>
<linearGradient id="paint1_linear_1567_11027" x1="35.5008" y1="13.4667" x2="35.5008" y2="57.4667" gradientUnits="userSpaceOnUse">
<stop offset="0.171875" stop-color="#24E4F9"/>
<stop offset="0.682292" stop-color="#DA61E5"/>
</linearGradient>
</defs>
</svg>
