<svg width="71" height="71" viewBox="0 0 71 71" fill="none" xmlns="http://www.w3.org/2000/svg">
<rect x="0.5" y="0.5" width="70" height="70" rx="11.5" stroke="url(#paint0_linear_1567_11012)"/>
<path d="M36.9914 33.1667C38.6474 33.1667 40.1234 33.4787 41.4194 34.1027C42.7394 34.7267 43.7714 35.6267 44.5154 36.8027C45.2594 37.9547 45.6314 39.2867 45.6314 40.7987C45.6314 42.3827 45.2354 43.7747 44.4434 44.9747C43.6754 46.1747 42.6074 47.1107 41.2394 47.7827C39.8954 48.4307 38.3834 48.7547 36.7034 48.7547C33.3194 48.7547 30.7034 47.6627 28.8554 45.4787C27.0314 43.2947 26.1194 40.1987 26.1194 36.1907C26.1194 33.3827 26.6114 30.9947 27.5954 29.0267C28.6034 27.0347 29.9954 25.5347 31.7714 24.5267C33.5714 23.4947 35.6594 22.9787 38.0354 22.9787C39.2594 22.9787 40.4114 23.1107 41.4914 23.3747C42.5714 23.6147 43.5074 23.9747 44.2994 24.4547L42.9314 27.2627C41.7314 26.4707 40.1234 26.0747 38.1074 26.0747C35.4914 26.0747 33.4394 26.8907 31.9514 28.5227C30.4634 30.1307 29.7194 32.4827 29.7194 35.5787C29.7194 35.9627 29.7314 36.2627 29.7554 36.4787C30.4754 35.3987 31.4594 34.5827 32.7074 34.0307C33.9794 33.4547 35.4074 33.1667 36.9914 33.1667ZM36.5594 45.8387C38.2154 45.8387 39.5594 45.3947 40.5914 44.5067C41.6234 43.6187 42.1394 42.4307 42.1394 40.9427C42.1394 39.4547 41.6114 38.2787 40.5554 37.4147C39.5234 36.5267 38.1314 36.0827 36.3794 36.0827C35.2514 36.0827 34.2434 36.2987 33.3554 36.7307C32.4914 37.1627 31.8074 37.7507 31.3034 38.4947C30.8234 39.2387 30.5834 40.0667 30.5834 40.9787C30.5834 41.8667 30.8114 42.6827 31.2674 43.4267C31.7474 44.1467 32.4314 44.7347 33.3194 45.1907C34.2314 45.6227 35.3114 45.8387 36.5594 45.8387Z" fill="url(#paint1_linear_1567_11012)"/>
<defs>
<linearGradient id="paint0_linear_1567_11012" x1="35.5" y1="0" x2="35.5" y2="71" gradientUnits="userSpaceOnUse">
<stop offset="0.171875" stop-color="#24E4F9"/>
<stop offset="0.682292" stop-color="#DA61E5"/>
</linearGradient>
<linearGradient id="paint1_linear_1567_11012" x1="35.5008" y1="13.4667" x2="35.5008" y2="57.4667" gradientUnits="userSpaceOnUse">
<stop offset="0.171875" stop-color="#24E4F9"/>
<stop offset="0.682292" stop-color="#DA61E5"/>
</linearGradient>
</defs>
</svg>
