<svg width="71" height="71" viewBox="0 0 71 71" fill="none" xmlns="http://www.w3.org/2000/svg">
<rect x="0.5" y="0.5" width="70" height="70" rx="11.5" stroke="url(#paint0_linear_1567_11023)"/>
<path d="M33.4955 45.3347V48.4667H15.3875V46.0187L25.6475 36.1187C26.8955 34.9187 27.7355 33.8867 28.1675 33.0227C28.5995 32.1347 28.8155 31.2467 28.8155 30.3587C28.8155 29.0387 28.3475 28.0187 27.4115 27.2987C26.4995 26.5547 25.1795 26.1827 23.4515 26.1827C20.6675 26.1827 18.5195 27.0947 17.0075 28.9187L14.5595 26.7947C15.5435 25.5947 16.8275 24.6587 18.4115 23.9867C20.0195 23.3147 21.8075 22.9787 23.7755 22.9787C26.4155 22.9787 28.5155 23.6147 30.0755 24.8867C31.6355 26.1347 32.4155 27.8387 32.4155 29.9987C32.4155 31.3427 32.1275 32.6147 31.5515 33.8147C30.9755 35.0147 29.8835 36.3827 28.2755 37.9187L20.5715 45.3347H33.4955ZM44.6273 22.9787C48.0113 22.9787 50.6153 24.0707 52.4393 26.2547C54.2873 28.4387 55.2113 31.5347 55.2113 35.5427C55.2113 38.3507 54.7073 40.7507 53.6993 42.7427C52.7153 44.7107 51.3233 46.2107 49.5233 47.2427C47.7473 48.2507 45.6713 48.7547 43.2953 48.7547C42.0713 48.7547 40.9193 48.6347 39.8393 48.3947C38.7593 48.1307 37.8233 47.7587 37.0313 47.2787L38.3993 44.4707C39.6233 45.2627 41.2433 45.6587 43.2593 45.6587C45.8753 45.6587 47.9153 44.8547 49.3793 43.2467C50.8673 41.6147 51.6113 39.2507 51.6113 36.1547V35.2547C50.8913 36.3347 49.8953 37.1627 48.6233 37.7387C47.3513 38.2907 45.9233 38.5667 44.3393 38.5667C42.6833 38.5667 41.1953 38.2547 39.8753 37.6307C38.5793 37.0067 37.5593 36.1187 36.8153 34.9667C36.0953 33.7907 35.7353 32.4467 35.7353 30.9347C35.7353 29.3507 36.1193 27.9587 36.8873 26.7587C37.6793 25.5587 38.7473 24.6347 40.0913 23.9867C41.4353 23.3147 42.9473 22.9787 44.6273 22.9787ZM44.9513 35.6507C46.0793 35.6507 47.0873 35.4347 47.9753 35.0027C48.8633 34.5707 49.5473 33.9827 50.0273 33.2387C50.5313 32.4947 50.7833 31.6667 50.7833 30.7547C50.7833 29.8667 50.5433 29.0627 50.0633 28.3427C49.6073 27.5987 48.9233 27.0107 48.0113 26.5787C47.1233 26.1227 46.0433 25.8947 44.7713 25.8947C43.1153 25.8947 41.7713 26.3387 40.7393 27.2267C39.7313 28.1147 39.2273 29.3027 39.2273 30.7907C39.2273 32.2787 39.7433 33.4667 40.7753 34.3547C41.8073 35.2187 43.1993 35.6507 44.9513 35.6507Z" fill="url(#paint1_linear_1567_11023)"/>
<defs>
<linearGradient id="paint0_linear_1567_11023" x1="35.5" y1="0" x2="35.5" y2="71" gradientUnits="userSpaceOnUse">
<stop offset="0.171875" stop-color="#24E4F9"/>
<stop offset="0.682292" stop-color="#DA61E5"/>
</linearGradient>
<linearGradient id="paint1_linear_1567_11023" x1="35.5008" y1="13.4667" x2="35.5008" y2="57.4667" gradientUnits="userSpaceOnUse">
<stop offset="0.171875" stop-color="#24E4F9"/>
<stop offset="0.682292" stop-color="#DA61E5"/>
</linearGradient>
</defs>
</svg>
