<svg width="70" height="70" viewBox="0 0 70 70" fill="none" xmlns="http://www.w3.org/2000/svg">
<rect x="0.5" y="0.5" width="69" height="69" rx="11.5" stroke="url(#paint0_linear_1567_11022)"/>
<path d="M32.1509 44.2014V47.3334H14.0429V44.8854L24.3029 34.9854C25.5509 33.7854 26.3909 32.7534 26.8229 31.8894C27.2549 31.0014 27.4709 30.1134 27.4709 29.2254C27.4709 27.9054 27.0029 26.8854 26.0669 26.1654C25.1549 25.4214 23.8349 25.0494 22.1069 25.0494C19.3229 25.0494 17.1749 25.9614 15.6629 27.7854L13.2149 25.6614C14.1989 24.4614 15.4829 23.5254 17.0669 22.8534C18.6749 22.1814 20.4629 21.8454 22.4309 21.8454C25.0709 21.8454 27.1709 22.4814 28.7309 23.7534C30.2909 25.0014 31.0709 26.7054 31.0709 28.8654C31.0709 30.2094 30.7829 31.4814 30.2069 32.6814C29.6309 33.8814 28.5389 35.2494 26.9309 36.7854L19.2269 44.2014H32.1509ZM45.3013 47.6214C43.3093 47.6214 41.5333 47.1174 39.9733 46.1094C38.4373 45.0774 37.2253 43.5894 36.3373 41.6454C35.4493 39.7014 35.0053 37.3974 35.0053 34.7334C35.0053 32.0694 35.4493 29.7654 36.3373 27.8214C37.2253 25.8774 38.4373 24.4014 39.9733 23.3934C41.5333 22.3614 43.3093 21.8454 45.3013 21.8454C47.2693 21.8454 49.0213 22.3614 50.5573 23.3934C52.1173 24.4014 53.3413 25.8774 54.2293 27.8214C55.1173 29.7654 55.5613 32.0694 55.5613 34.7334C55.5613 37.3974 55.1173 39.7014 54.2293 41.6454C53.3413 43.5894 52.1173 45.0774 50.5573 46.1094C49.0213 47.1174 47.2693 47.6214 45.3013 47.6214ZM45.3013 44.4174C47.3173 44.4174 48.9253 43.5894 50.1253 41.9334C51.3493 40.2774 51.9613 37.8774 51.9613 34.7334C51.9613 31.5894 51.3493 29.1894 50.1253 27.5334C48.9253 25.8774 47.3173 25.0494 45.3013 25.0494C43.2613 25.0494 41.6293 25.8774 40.4053 27.5334C39.2053 29.1894 38.6053 31.5894 38.6053 34.7334C38.6053 37.8774 39.2053 40.2774 40.4053 41.9334C41.6293 43.5894 43.2613 44.4174 45.3013 44.4174Z" fill="url(#paint1_linear_1567_11022)"/>
<defs>
<linearGradient id="paint0_linear_1567_11022" x1="35" y1="0" x2="35" y2="70" gradientUnits="userSpaceOnUse">
<stop offset="0.171875" stop-color="#24E4F9"/>
<stop offset="0.682292" stop-color="#DA61E5"/>
</linearGradient>
<linearGradient id="paint1_linear_1567_11022" x1="35" y1="12.3334" x2="35" y2="56.3334" gradientUnits="userSpaceOnUse">
<stop offset="0.171875" stop-color="#24E4F9"/>
<stop offset="0.682292" stop-color="#DA61E5"/>
</linearGradient>
</defs>
</svg>
