<svg width="71" height="71" viewBox="0 0 71 71" fill="none" xmlns="http://www.w3.org/2000/svg">
<rect x="0.558594" y="0.522217" width="69.5714" height="69.5714" rx="11.5" stroke="url(#paint0_linear_1567_11035)"/>
<path d="M28.042 22.8V48H24.478V25.932H18.79V22.8H28.042ZM40.7542 32.844C44.3542 32.844 46.9942 33.528 48.6742 34.896C50.3782 36.24 51.2302 38.088 51.2302 40.44C51.2302 41.928 50.8702 43.272 50.1502 44.472C49.4542 45.648 48.3862 46.584 46.9462 47.28C45.5302 47.952 43.7782 48.288 41.6902 48.288C39.9142 48.288 38.1982 48.024 36.5422 47.496C34.8862 46.944 33.5182 46.188 32.4382 45.228L34.0942 42.384C34.9582 43.2 36.0622 43.86 37.4062 44.364C38.7502 44.844 40.1662 45.084 41.6542 45.084C43.5502 45.084 45.0142 44.688 46.0462 43.896C47.1022 43.08 47.6302 41.976 47.6302 40.584C47.6302 39.072 47.0542 37.932 45.9022 37.164C44.7502 36.372 42.7822 35.976 39.9982 35.976H34.2742L35.6062 22.8H49.8262V25.932H38.6302L37.9462 32.844H40.7542Z" fill="url(#paint1_linear_1567_11035)"/>
<defs>
<linearGradient id="paint0_linear_1567_11035" x1="35.3443" y1="0.0222168" x2="35.3443" y2="70.5936" gradientUnits="userSpaceOnUse">
<stop offset="0.171875" stop-color="#24E4F9"/>
<stop offset="0.682292" stop-color="#DA61E5"/>
</linearGradient>
<linearGradient id="paint1_linear_1567_11035" x1="35.5" y1="9" x2="35.5" y2="61" gradientUnits="userSpaceOnUse">
<stop offset="0.171875" stop-color="#24E4F9"/>
<stop offset="0.682292" stop-color="#DA61E5"/>
</linearGradient>
</defs>
</svg>
