<svg width="70" height="70" viewBox="0 0 70 70" fill="none" xmlns="http://www.w3.org/2000/svg">
<rect x="0.5" y="0.5" width="69" height="69" rx="11.5" stroke="url(#paint0_linear_1567_11015)"/>
<path d="M27.542 22.1334V47.3334H23.978V25.2654H18.29V22.1334H27.542ZM50.7662 44.2014V47.3334H32.6582V44.8854L42.9182 34.9854C44.1662 33.7854 45.0062 32.7534 45.4382 31.8894C45.8702 31.0014 46.0862 30.1134 46.0862 29.2254C46.0862 27.9054 45.6182 26.8854 44.6822 26.1654C43.7702 25.4214 42.4502 25.0494 40.7222 25.0494C37.9382 25.0494 35.7902 25.9614 34.2782 27.7854L31.8302 25.6614C32.8142 24.4614 34.0982 23.5254 35.6822 22.8534C37.2902 22.1814 39.0782 21.8454 41.0462 21.8454C43.6862 21.8454 45.7862 22.4814 47.3462 23.7534C48.9062 25.0014 49.6862 26.7054 49.6862 28.8654C49.6862 30.2094 49.3982 31.4814 48.8222 32.6814C48.2462 33.8814 47.1542 35.2494 45.5462 36.7854L37.8422 44.2014H50.7662Z" fill="url(#paint1_linear_1567_11015)"/>
<defs>
<linearGradient id="paint0_linear_1567_11015" x1="35" y1="0" x2="35" y2="70" gradientUnits="userSpaceOnUse">
<stop offset="0.171875" stop-color="#24E4F9"/>
<stop offset="0.682292" stop-color="#DA61E5"/>
</linearGradient>
<linearGradient id="paint1_linear_1567_11015" x1="35" y1="12.3334" x2="35" y2="56.3334" gradientUnits="userSpaceOnUse">
<stop offset="0.171875" stop-color="#24E4F9"/>
<stop offset="0.682292" stop-color="#DA61E5"/>
</linearGradient>
</defs>
</svg>
