<svg width="71" height="70" viewBox="0 0 71 70" fill="none" xmlns="http://www.w3.org/2000/svg">
<rect x="0.5" y="0.5" width="70" height="69" rx="11.5" stroke="url(#paint0_linear_1567_11013)"/>
<path d="M34.2914 21.8454C37.6754 21.8454 40.2794 22.9374 42.1034 25.1214C43.9514 27.3054 44.8754 30.4014 44.8754 34.4094C44.8754 37.2174 44.3714 39.6174 43.3634 41.6094C42.3794 43.5774 40.9874 45.0774 39.1874 46.1094C37.4114 47.1174 35.3354 47.6214 32.9594 47.6214C31.7354 47.6214 30.5834 47.5014 29.5034 47.2614C28.4234 46.9974 27.4874 46.6254 26.6954 46.1454L28.0634 43.3374C29.2874 44.1294 30.9074 44.5254 32.9234 44.5254C35.5394 44.5254 37.5794 43.7214 39.0434 42.1134C40.5314 40.4814 41.2754 38.1174 41.2754 35.0214V34.1214C40.5554 35.2014 39.5594 36.0294 38.2874 36.6054C37.0154 37.1574 35.5874 37.4334 34.0034 37.4334C32.3474 37.4334 30.8594 37.1214 29.5394 36.4974C28.2434 35.8734 27.2234 34.9854 26.4794 33.8334C25.7594 32.6574 25.3994 31.3134 25.3994 29.8014C25.3994 28.2174 25.7834 26.8254 26.5514 25.6254C27.3434 24.4254 28.4114 23.5014 29.7554 22.8534C31.0994 22.1814 32.6114 21.8454 34.2914 21.8454ZM34.6154 34.5174C35.7434 34.5174 36.7514 34.3014 37.6394 33.8694C38.5274 33.4374 39.2114 32.8494 39.6914 32.1054C40.1954 31.3614 40.4474 30.5334 40.4474 29.6214C40.4474 28.7334 40.2074 27.9294 39.7274 27.2094C39.2714 26.4654 38.5874 25.8774 37.6754 25.4454C36.7874 24.9894 35.7074 24.7614 34.4354 24.7614C32.7794 24.7614 31.4354 25.2054 30.4034 26.0934C29.3954 26.9814 28.8914 28.1694 28.8914 29.6574C28.8914 31.1454 29.4074 32.3334 30.4394 33.2214C31.4714 34.0854 32.8634 34.5174 34.6154 34.5174Z" fill="url(#paint1_linear_1567_11013)"/>
<defs>
<linearGradient id="paint0_linear_1567_11013" x1="35.5" y1="0" x2="35.5" y2="70" gradientUnits="userSpaceOnUse">
<stop offset="0.171875" stop-color="#24E4F9"/>
<stop offset="0.682292" stop-color="#DA61E5"/>
</linearGradient>
<linearGradient id="paint1_linear_1567_11013" x1="35.5008" y1="12.3334" x2="35.5008" y2="56.3334" gradientUnits="userSpaceOnUse">
<stop offset="0.171875" stop-color="#24E4F9"/>
<stop offset="0.682292" stop-color="#DA61E5"/>
</linearGradient>
</defs>
</svg>
