<svg width="71" height="71" viewBox="0 0 71 71" fill="none" xmlns="http://www.w3.org/2000/svg">
<rect x="0.5" y="0.5" width="70" height="70" rx="11.5" stroke="url(#paint0_linear_1567_11020)"/>
<path d="M44.6048 45.3347V48.4667H26.4968V46.0187L36.7568 36.1187C38.0048 34.9187 38.8448 33.8867 39.2768 33.0227C39.7088 32.1347 39.9248 31.2467 39.9248 30.3587C39.9248 29.0387 39.4568 28.0187 38.5208 27.2987C37.6088 26.5547 36.2888 26.1827 34.5608 26.1827C31.7768 26.1827 29.6288 27.0947 28.1168 28.9187L25.6688 26.7947C26.6528 25.5947 27.9368 24.6587 29.5208 23.9867C31.1288 23.3147 32.9168 22.9787 34.8848 22.9787C37.5248 22.9787 39.6248 23.6147 41.1848 24.8867C42.7448 26.1347 43.5248 27.8387 43.5248 29.9987C43.5248 31.3427 43.2368 32.6147 42.6608 33.8147C42.0848 35.0147 40.9928 36.3827 39.3848 37.9187L31.6808 45.3347H44.6048Z" fill="url(#paint1_linear_1567_11020)"/>
<defs>
<linearGradient id="paint0_linear_1567_11020" x1="35.5" y1="0" x2="35.5" y2="71" gradientUnits="userSpaceOnUse">
<stop offset="0.171875" stop-color="#24E4F9"/>
<stop offset="0.682292" stop-color="#DA61E5"/>
</linearGradient>
<linearGradient id="paint1_linear_1567_11020" x1="35.5008" y1="13.4667" x2="35.5008" y2="57.4667" gradientUnits="userSpaceOnUse">
<stop offset="0.171875" stop-color="#24E4F9"/>
<stop offset="0.682292" stop-color="#DA61E5"/>
</linearGradient>
</defs>
</svg>
