<svg width="70" height="71" viewBox="0 0 70 71" fill="none" xmlns="http://www.w3.org/2000/svg">
<rect x="0.5" y="0.5" width="69" height="70" rx="11.5" stroke="url(#paint0_linear_1567_11010)"/>
<path d="M26.7685 23.2667V48.4667H23.2045V26.3987H17.5165V23.2667H26.7685ZM43.1527 33.1667C44.8087 33.1667 46.2847 33.4787 47.5807 34.1027C48.9007 34.7267 49.9327 35.6267 50.6767 36.8027C51.4207 37.9547 51.7927 39.2867 51.7927 40.7987C51.7927 42.3827 51.3967 43.7747 50.6047 44.9747C49.8367 46.1747 48.7687 47.1107 47.4007 47.7827C46.0567 48.4307 44.5447 48.7547 42.8647 48.7547C39.4807 48.7547 36.8647 47.6627 35.0167 45.4787C33.1927 43.2947 32.2807 40.1987 32.2807 36.1907C32.2807 33.3827 32.7727 30.9947 33.7567 29.0267C34.7647 27.0347 36.1567 25.5347 37.9327 24.5267C39.7327 23.4947 41.8207 22.9787 44.1967 22.9787C45.4207 22.9787 46.5727 23.1107 47.6527 23.3747C48.7327 23.6147 49.6687 23.9747 50.4607 24.4547L49.0927 27.2627C47.8927 26.4707 46.2847 26.0747 44.2687 26.0747C41.6527 26.0747 39.6007 26.8907 38.1127 28.5227C36.6247 30.1307 35.8807 32.4827 35.8807 35.5787C35.8807 35.9627 35.8927 36.2627 35.9167 36.4787C36.6367 35.3987 37.6207 34.5827 38.8687 34.0307C40.1407 33.4547 41.5687 33.1667 43.1527 33.1667ZM42.7207 45.8387C44.3767 45.8387 45.7207 45.3947 46.7527 44.5067C47.7847 43.6187 48.3007 42.4307 48.3007 40.9427C48.3007 39.4547 47.7727 38.2787 46.7167 37.4147C45.6847 36.5267 44.2927 36.0827 42.5407 36.0827C41.4127 36.0827 40.4047 36.2987 39.5167 36.7307C38.6527 37.1627 37.9687 37.7507 37.4647 38.4947C36.9847 39.2387 36.7447 40.0667 36.7447 40.9787C36.7447 41.8667 36.9727 42.6827 37.4287 43.4267C37.9087 44.1467 38.5927 44.7347 39.4807 45.1907C40.3927 45.6227 41.4727 45.8387 42.7207 45.8387Z" fill="url(#paint1_linear_1567_11010)"/>
<defs>
<linearGradient id="paint0_linear_1567_11010" x1="35" y1="0" x2="35" y2="71" gradientUnits="userSpaceOnUse">
<stop offset="0.171875" stop-color="#24E4F9"/>
<stop offset="0.682292" stop-color="#DA61E5"/>
</linearGradient>
<linearGradient id="paint1_linear_1567_11010" x1="35" y1="13.4667" x2="35" y2="57.4667" gradientUnits="userSpaceOnUse">
<stop offset="0.171875" stop-color="#24E4F9"/>
<stop offset="0.682292" stop-color="#DA61E5"/>
</linearGradient>
</defs>
</svg>
