<svg width="71" height="71" viewBox="0 0 71 71" fill="none" xmlns="http://www.w3.org/2000/svg">
<rect x="0.5" y="0.5" width="70" height="70" rx="11.5" stroke="url(#paint0_linear_1567_11011)"/>
<path d="M41.0528 35.2547C42.4928 35.8067 43.5968 36.5987 44.3648 37.6307C45.1328 38.6627 45.5168 39.8987 45.5168 41.3387C45.5168 42.8507 45.1088 44.1707 44.2928 45.2987C43.4768 46.4027 42.3128 47.2547 40.8008 47.8547C39.2888 48.4547 37.5128 48.7547 35.4728 48.7547C33.4568 48.7547 31.6928 48.4547 30.1808 47.8547C28.6928 47.2547 27.5408 46.4027 26.7248 45.2987C25.9088 44.1707 25.5008 42.8507 25.5008 41.3387C25.5008 39.8987 25.8728 38.6627 26.6168 37.6307C27.3848 36.5987 28.4888 35.8067 29.9288 35.2547C28.7768 34.7027 27.9008 33.9707 27.3008 33.0587C26.7008 32.1467 26.4008 31.0667 26.4008 29.8187C26.4008 28.4267 26.7728 27.2147 27.5168 26.1827C28.2848 25.1507 29.3528 24.3587 30.7208 23.8067C32.0888 23.2547 33.6728 22.9787 35.4728 22.9787C37.2968 22.9787 38.8928 23.2547 40.2608 23.8067C41.6528 24.3587 42.7208 25.1507 43.4648 26.1827C44.2328 27.2147 44.6168 28.4267 44.6168 29.8187C44.6168 31.0427 44.3048 32.1227 43.6808 33.0587C43.0808 33.9707 42.2048 34.7027 41.0528 35.2547ZM35.4728 25.8947C33.7688 25.8947 32.4248 26.2667 31.4408 27.0107C30.4568 27.7307 29.9648 28.7147 29.9648 29.9627C29.9648 31.2107 30.4448 32.1947 31.4048 32.9147C32.3888 33.6347 33.7448 33.9947 35.4728 33.9947C37.2248 33.9947 38.5928 33.6347 39.5768 32.9147C40.5848 32.1947 41.0888 31.2107 41.0888 29.9627C41.0888 28.7147 40.5728 27.7307 39.5408 27.0107C38.5328 26.2667 37.1768 25.8947 35.4728 25.8947ZM35.4728 45.8387C37.4648 45.8387 39.0368 45.4307 40.1888 44.6147C41.3408 43.7747 41.9168 42.6467 41.9168 41.2307C41.9168 39.8387 41.3408 38.7467 40.1888 37.9547C39.0368 37.1387 37.4648 36.7307 35.4728 36.7307C33.4808 36.7307 31.9208 37.1387 30.7928 37.9547C29.6648 38.7467 29.1008 39.8387 29.1008 41.2307C29.1008 42.6467 29.6648 43.7747 30.7928 44.6147C31.9208 45.4307 33.4808 45.8387 35.4728 45.8387Z" fill="url(#paint1_linear_1567_11011)"/>
<defs>
<linearGradient id="paint0_linear_1567_11011" x1="35.5" y1="0" x2="35.5" y2="71" gradientUnits="userSpaceOnUse">
<stop offset="0.171875" stop-color="#24E4F9"/>
<stop offset="0.682292" stop-color="#DA61E5"/>
</linearGradient>
<linearGradient id="paint1_linear_1567_11011" x1="35.5008" y1="13.4667" x2="35.5008" y2="57.4667" gradientUnits="userSpaceOnUse">
<stop offset="0.171875" stop-color="#24E4F9"/>
<stop offset="0.682292" stop-color="#DA61E5"/>
</linearGradient>
</defs>
</svg>
