<svg width="71" height="71" viewBox="0 0 71 71" fill="none" xmlns="http://www.w3.org/2000/svg">
<rect x="0.5" y="0.5" width="70" height="70" rx="11.5" stroke="url(#paint0_linear_1567_11014)"/>
<path d="M34.0928 33.3107C37.6928 33.3107 40.3328 33.9947 42.0128 35.3627C43.7168 36.7067 44.5688 38.5547 44.5688 40.9067C44.5688 42.3947 44.2088 43.7387 43.4888 44.9387C42.7928 46.1147 41.7248 47.0507 40.2848 47.7467C38.8688 48.4187 37.1168 48.7547 35.0288 48.7547C33.2528 48.7547 31.5368 48.4907 29.8808 47.9627C28.2248 47.4107 26.8568 46.6547 25.7768 45.6947L27.4328 42.8507C28.2968 43.6667 29.4008 44.3267 30.7448 44.8307C32.0888 45.3107 33.5048 45.5507 34.9928 45.5507C36.8888 45.5507 38.3528 45.1547 39.3848 44.3627C40.4408 43.5467 40.9688 42.4427 40.9688 41.0507C40.9688 39.5387 40.3928 38.3987 39.2408 37.6307C38.0888 36.8387 36.1208 36.4427 33.3368 36.4427H27.6128L28.9448 23.2667H43.1648V26.3987H31.9688L31.2848 33.3107H34.0928Z" fill="url(#paint1_linear_1567_11014)"/>
<defs>
<linearGradient id="paint0_linear_1567_11014" x1="35.5" y1="0" x2="35.5" y2="71" gradientUnits="userSpaceOnUse">
<stop offset="0.171875" stop-color="#24E4F9"/>
<stop offset="0.682292" stop-color="#DA61E5"/>
</linearGradient>
<linearGradient id="paint1_linear_1567_11014" x1="35.5008" y1="13.4667" x2="35.5008" y2="57.4667" gradientUnits="userSpaceOnUse">
<stop offset="0.171875" stop-color="#24E4F9"/>
<stop offset="0.682292" stop-color="#DA61E5"/>
</linearGradient>
</defs>
</svg>
