<svg width="49" height="49" viewBox="0 0 49 49" fill="none" xmlns="http://www.w3.org/2000/svg">
<g filter="url(#filter0_i_1487_9496)">
<path d="M40.3619 49V35.6767H42.2231C45.9602 35.6767 49 32.6553 49 28.9408C49 25.2269 45.9602 22.2055 42.2231 22.2055H40.3619V8.88221H26.9575V6.73588C26.9575 3.02138 23.9177 0 20.1806 0C16.4441 0 13.4044 3.02138 13.4044 6.73588V8.88221H0V22.2055H1.86186C5.14046 22.2055 7.88212 24.5315 8.50506 27.6106C8.77528 27.9861 8.93624 28.4447 8.93624 28.9408C8.93624 29.437 8.77528 29.8956 8.50506 30.2716C7.88212 33.3501 5.14046 35.6767 1.86186 35.6767H0V49H13.4044V46.8531C13.4044 43.1392 16.4441 40.1178 20.1806 40.1178C23.9177 40.1178 26.9575 43.1392 26.9575 46.8531V49H40.3619Z" fill="white"/>
</g>
<defs>
<filter id="filter0_i_1487_9496" x="-1" y="-2" width="50" height="51" filterUnits="userSpaceOnUse" color-interpolation-filters="sRGB">
<feFlood flood-opacity="0" result="BackgroundImageFix"/>
<feBlend mode="normal" in="SourceGraphic" in2="BackgroundImageFix" result="shape"/>
<feColorMatrix in="SourceAlpha" type="matrix" values="0 0 0 0 0 0 0 0 0 0 0 0 0 0 0 0 0 0 127 0" result="hardAlpha"/>
<feOffset dx="-1" dy="-2"/>
<feGaussianBlur stdDeviation="2"/>
<feComposite in2="hardAlpha" operator="arithmetic" k2="-1" k3="1"/>
<feColorMatrix type="matrix" values="0 0 0 0 0.741176 0 0 0 0 0.741176 0 0 0 0 0.741176 0 0 0 1 0"/>
<feBlend mode="normal" in2="shape" result="effect1_innerShadow_1487_9496"/>
</filter>
</defs>
</svg>
