<svg width="14" height="14" viewBox="0 0 14 14" fill="none" xmlns="http://www.w3.org/2000/svg">
<path d="M0.0580913 8.87951C-0.0193638 8.87951 -0.0193638 8.87951 0.0580913 8.87951C-0.0193638 8.65098 -0.174274 6.82272 1.68465 6.28948C2.84647 5.98477 4.08575 6.13713 5.17012 6.44184C6.02213 6.67037 6.87414 6.97508 7.72614 7.05126C8.50069 7.12743 9.50761 6.97508 10.2047 6.59419C10.9793 6.2133 11.2116 5.29918 11.1342 4.5374C11.0567 3.92798 10.9018 3.24239 10.3596 2.8615C9.97234 2.55679 9.50761 2.32826 9.04288 2.25208C8.34578 2.25208 7.8036 2.8615 7.57123 3.47092C7.33887 4.23269 7.88105 5.29918 9.73997 4.08034C9.73997 4.23269 9.89488 5.52771 8.11342 6.13713C7.95851 6.06095 5.63485 4.15651 4.78285 3.92798C4.93776 3.5471 6.40941 1.56648 8.19087 0.5C8.19087 0.5 12.0636 1.26177 13.148 4.08034C13.148 4.08034 14 6.44184 10.592 8.27009C10.592 8.27009 12.1411 8.80334 13.9225 5.90859H14C13.9225 6.51801 13.3029 9.71746 10.6694 10.3269C10.2047 10.4031 9.73997 10.5554 9.27524 10.4792C8.6556 10.4031 8.03596 10.0984 7.57123 9.71746C7.02905 9.33658 6.56431 8.72716 5.86722 8.49863C5.09267 8.19392 4.16321 8.27009 3.38866 8.42245C3.00138 8.49863 2.61411 8.5748 2.22683 8.72716C2.22683 8.72716 2.92393 7.43214 5.63485 7.66067C5.63485 7.66067 2.4592 5.83242 0.0580913 8.87951Z" fill="#54ADFF"/>
<path d="M13 11.1254C12.5385 11.4852 12.0769 11.6291 11.5385 11.7011C11 11.773 10.5385 11.773 10 11.7011C8.84615 11.6291 7.76923 11.2693 6.76923 10.6937C3.15385 8.60696 1.76923 9.68631 1 10.6937C1 10.6937 3.15385 9.47044 6.07692 10.9815C7.76923 11.845 8.23077 12.1328 8.23077 12.1328C8.07692 12.0609 8 11.9889 7.84615 11.9889C7.53846 11.845 7.23077 11.7011 6.92308 11.5572C6.46154 11.4133 6.07692 11.1974 5.61538 11.1254C5.15385 10.9815 4.69231 10.8376 4.15385 10.8376C3.69231 10.7657 3.23077 10.7657 2.84615 10.8376C2.46154 10.9096 2.07692 11.0535 1.84615 11.3413C1.61538 11.6291 1.53846 11.917 1.53846 12.2767C1.53846 12.4926 1.61538 12.7085 1.76923 12.9243C2 13.2122 2.30769 13.428 2.69231 13.5C3.07692 13.5 3.46154 13.428 3.69231 13.2122C4 12.9243 4.07692 12.5646 4 12.1328C4 12.1328 3.61538 13.1402 2.84615 12.7085C2.30769 12.4207 2.61538 11.773 3 11.4852C3.61538 11.1254 4.53846 11.4852 5.15385 11.7011C6.15385 12.1328 7.30769 12.9963 8.38462 13.0683C9.07692 13.1402 9.84615 12.9963 10.4615 12.7085C11.0769 12.4207 11.6154 12.0609 12.0769 11.6291C12.4615 11.5572 12.7692 11.3413 13 11.1254Z" fill="#54ADFF"/>
</svg>
