<svg width="14" height="14" viewBox="0 0 14 14" fill="none" xmlns="http://www.w3.org/2000/svg">
<path d="M7.57027 0L2.0625 5.64643V7.50278V7.58013L6.81058 10.2873H6.90554L10.9889 6.96135C10.9889 6.96135 10.9889 6.96135 10.9889 6.884V5.49173C10.9889 5.49173 10.9889 5.49173 10.9889 5.41438L8.51988 3.63537H8.42492L5.95592 5.56908V5.64643L6.90554 6.80665C7.09546 6.65195 7.19042 6.49726 7.38035 6.34256C7.47531 6.34256 7.47531 6.26521 7.57027 6.18786C7.38035 6.03317 7.19042 5.87847 7.09546 5.72377L8.235 5.10499L9.56446 6.03317V6.11052L7.09546 8.19892H7.0005L5.10127 6.96135C5.10127 6.96135 5.10127 6.96135 5.10127 6.884V5.10499C5.10127 5.10499 5.10127 5.10499 5.10127 5.02764L8.14004 2.62984C8.14004 2.62984 8.14004 2.62984 8.14004 2.55249L7.76019 0.0773483C7.76019 0 7.66523 0 7.57027 0Z" fill="white"/>
<path d="M1.01781 7.73474L0.922852 9.12701C1.11277 9.20436 1.20774 9.35906 1.39766 9.4364C1.68254 9.66845 1.96743 9.82315 2.25231 10.0552C2.34727 10.1325 2.34727 10.1325 2.44224 10.2099C2.44224 10.2099 2.63216 10.3646 2.63216 10.2872C2.63216 10.2099 2.72712 10.2099 2.72712 10.1325C2.82208 10.0552 2.91704 10.0552 2.91704 9.97784C3.01201 9.90049 3.10697 9.82315 3.10697 9.82315C3.67674 9.5911 4.15154 9.90049 4.53139 10.2099C4.72131 10.4419 4.91124 10.5966 5.0062 10.8287C5.19612 11.1381 5.10116 11.3701 4.91124 11.6795C4.91124 11.7569 4.81627 11.8342 4.72131 11.8342C4.62635 11.8342 4.62635 11.7569 4.62635 11.7569C4.53139 11.6022 4.43643 11.4475 4.34147 11.2928C4.05658 11.6795 4.15154 12.1436 4.43643 12.453C4.91124 13.0718 6.43062 12.0662 6.05077 10.674C6.05077 10.5193 5.86085 10.3646 5.76589 10.2872L1.01781 7.73474Z" fill="white"/>
<path d="M11.8431 7.19336C11.8431 7.19336 6.43031 11.1381 5.86054 12.5304C5.29077 13.9227 7.19 14 7.19 14C7.19 14 9.56404 13.768 8.32954 12.453C8.13961 12.221 7.66481 12.2983 7.56984 12.5304C7.37992 12.8398 7.75977 13.1492 8.13961 12.9945C8.23457 13.1492 8.04465 13.3039 7.85473 13.3812C7.56984 13.4586 7.09504 13.4586 6.90511 13.2265C6.81015 13.0718 6.81015 12.8398 6.90511 12.6851C7.09504 12.1437 7.47488 11.6796 7.94969 11.2155C8.23457 10.9061 8.61442 10.442 8.99427 10.2873C9.37411 10.1326 9.659 10.5193 9.94388 10.5193C10.0388 10.5193 10.2288 10.3646 10.3237 10.2873C10.7036 10.0552 11.0834 9.8232 11.3683 9.59116C11.9381 9.20441 12.5078 8.81767 13.0776 8.50828L11.8431 7.19336Z" fill="white"/>
</svg>
