<svg width="24" height="24" viewBox="0 0 24 24" fill="none" xmlns="http://www.w3.org/2000/svg">
<path d="M2.66584 2.67184L2.6659 2.6719L2.67233 2.66535L4.168 1.14199C4.45005 0.854708 4.83575 0.692871 5.23834 0.692871H21.8075C22.6359 0.692871 23.3075 1.36444 23.3075 2.19287V18.762C23.3075 19.1646 23.1457 19.5503 22.8584 19.8324L21.335 21.3281L21.335 21.328L21.3285 21.3345L19.8329 22.8579C19.5508 23.1452 19.1651 23.307 18.7625 23.307H2.19336C1.36493 23.307 0.693359 22.6354 0.693359 21.807V5.23785C0.693359 4.83526 0.855196 4.44956 1.14247 4.16751L2.66584 2.67184Z" stroke="white" stroke-miterlimit="10"/>
<g clip-path="url(#clip0_155_3239)">
<path d="M8.04053 12.121C7.68966 11.9299 7.226 11.5478 7.23853 10.758V10.7452C7.27612 10.0573 7.67713 9.54778 8.31622 9.36944C8.47913 9.31848 8.64204 9.30575 8.83001 9.30575C9.38139 9.30575 9.88264 9.52231 10.1709 9.73887C10.5343 10.0064 10.835 10.3631 11.1358 10.707C11.1608 10.7325 11.1734 10.758 11.1984 10.7835C11.0481 10.4905 10.9102 10.1975 10.7974 9.86626C10.6596 9.45861 10.5343 9.00001 10.6846 8.38855C10.8476 7.73887 11.1859 7.29301 11.6496 7.10192C12.0255 6.94906 12.439 6.9618 12.8275 7.14014H12.84C13.4917 7.48409 13.6295 7.99364 13.6671 8.40129C13.9177 8.2102 14.2185 8.0446 14.5944 8.0446C14.7949 8.0446 15.008 8.09555 15.221 8.18473H15.2335C15.835 8.5032 16.1358 9.06371 16.0481 9.72613C15.9603 10.4268 15.4466 11.0255 14.9954 11.3057C14.607 11.535 14.1684 11.6879 13.7423 11.8153C13.7172 11.8153 13.7047 11.828 13.6796 11.828C13.9303 11.8026 14.1934 11.7898 14.4691 11.7898C14.5067 11.7898 14.5568 11.7898 14.5944 11.7898C15.0205 11.8026 15.4841 11.8535 15.9854 12.2229C16.4741 12.6433 16.7623 13.1274 16.7623 13.6242C16.7623 13.9172 16.6872 14.3376 16.2987 14.7198C15.9979 14.9873 15.6846 15.1147 15.3338 15.1147C15.1583 15.1147 14.9954 15.0764 14.845 15.0382C14.9578 15.4331 15.0205 16.0319 14.4566 16.5796C14.1684 16.8471 13.8175 16.9873 13.4666 16.9873C13.216 16.9873 12.9653 16.9236 12.7398 16.7835C12.1383 16.4395 11.7749 15.7389 11.6872 15.2038C11.637 14.8981 11.637 14.5796 11.6496 14.2612C11.0982 15.7261 9.97036 16.5669 8.95532 16.8726C8.91773 16.8854 8.8676 16.8854 8.83001 16.8854C8.64204 16.8854 8.4666 16.758 8.40394 16.5669C8.32876 16.3249 8.4666 16.0828 8.7047 16.0064C9.51923 15.7643 10.434 15.0637 10.8601 13.8153C10.7473 13.9427 10.622 14.0701 10.4967 14.1975C10.1834 14.4905 9.81998 14.7962 9.20595 14.8854C9.0681 14.9108 8.93026 14.9236 8.79241 14.9236C8.32876 14.9236 7.92775 14.7835 7.65206 14.5032C7.47663 14.3121 7.23853 13.9554 7.23853 13.3949V13.3822C7.28866 12.6561 7.70219 12.3249 8.04053 12.121Z" fill="#4EFFBF"/>
</g>
<defs>
<clipPath id="clip0_155_3239">
<rect width="9.52381" height="10" fill="white" transform="translate(7.23828 7)"/>
</clipPath>
</defs>
</svg>
