<svg width="16" height="14" viewBox="0 0 16 14" fill="none" xmlns="http://www.w3.org/2000/svg">
<path d="M3.09654 14C3.09654 14 -1.16783 9.82609 2.45286 5.04348C4.22297 2.69565 7.19998 2.86957 8.48734 2.86957C9.85516 2.95652 13.9586 3.04348 14.9241 0C14.9241 0 15.3264 3.47826 11.7057 4.69565C8.08504 5.91304 -0.202315 6.17391 3.09654 14Z" fill="white"/>
<path d="M15.0049 4.17383C15.0049 4.17383 14.2003 6.4347 9.29222 6.69557C8.729 6.69557 8.16578 6.78252 7.60257 6.86948C4.1428 7.826 2.37268 11.3043 3.41866 13.2173C3.41866 13.2173 3.09682 10.4347 6.55659 9.30426C7.03935 9.13035 7.60257 9.04339 8.08533 8.95644C9.85544 8.69557 15.0853 7.73905 15.0049 4.17383Z" fill="white"/>
<path d="M4.14258 12.4347C4.14258 12.4347 4.7058 10.8695 7.60235 10.0869C8.48741 9.82603 9.37246 9.73907 10.2575 9.73907C11.3035 9.65212 12.1081 9.73907 13.2345 8.86951C13.2345 8.86951 12.7518 10.6956 9.21154 11.913C9.13108 11.913 8.40695 9.4782 4.14258 12.4347Z" fill="white"/>
</svg>
