<svg width="16" height="16" viewBox="0 0 16 16" fill="none" xmlns="http://www.w3.org/2000/svg">
<g clip-path="url(#clip0_175_2753)">
<path d="M3.32727 7.95154L3.61818 8.7273C3.61818 8.7273 3.71515 9.60002 3.2303 10.1818C3.03636 10.3758 2.93939 10.5697 2.84242 10.7637L2.74545 11.0546C2.74545 11.0546 2.16364 11.2485 1.87273 11.1515L2.45455 11.7334C2.45455 11.7334 2.35758 12.6061 2.26061 12.7031C2.16364 12.897 1.48485 13.9637 1 14.2546C1 14.2546 2.74545 13.7697 2.93939 13.8667C3.13333 13.9637 3.52121 14.2546 3.81212 14.4485C3.90909 14.4485 3.90909 14.5455 3.90909 14.5455L3.71515 15.1273L4.39394 14.5455C4.49091 14.5455 4.58788 14.5455 4.68485 14.5455C4.87879 14.5455 5.1697 14.6424 5.36364 14.5455C5.36364 14.5455 6.13939 15.7091 6.23636 16V14.7394C6.23636 14.7394 6.23636 14.5455 6.52727 14.3515C6.72121 14.2546 8.17576 12.897 7.98182 10.9576L8.85455 9.9879L7.20606 10.1818C7.20606 10.1818 4.97576 9.21214 4.2 10.8606C4.2 10.8606 5.1697 9.79396 6.4303 10.2788C6.4303 10.2788 6.33333 10.3758 6.04242 10.3758C5.94545 10.3758 8.56364 11.4424 6.13939 13.7697C6.13939 13.7697 6.72121 13.0909 6.62424 12.6061C6.62424 12.6061 6.33333 13.2849 5.94545 13.4788C5.55758 13.6727 4.00606 14.3515 3.03636 12.2182C2.93939 9.21214 5.94545 9.50305 5.94545 9.50305C5.94545 9.50305 5.46061 9.30911 4.58788 9.40608C4.58788 9.40608 4.10303 9.21214 3.32727 7.95154Z" fill="white"/>
<path d="M9.82437 7.27276C9.82437 7.27276 9.43649 7.75761 9.33952 8.33943L8.4668 9.01822C8.4668 9.01822 8.95165 9.01822 9.14558 9.01822C9.24255 9.01822 9.43649 9.21216 9.43649 9.21216C9.43649 9.21216 9.43649 9.11519 9.53346 9.21216C9.63043 9.30913 9.7274 9.98792 10.5032 10.2788C10.5032 10.2788 11.1819 10.6667 10.891 10.9576C10.891 10.9576 11.1819 11.0546 11.3759 10.5697C11.3759 10.5697 11.8607 10.4728 12.3456 10.1819C12.3456 10.1819 12.8304 10.1819 12.7335 10.6667C12.7335 10.6667 12.9274 10.4728 12.9274 10.1819C12.9274 9.89094 12.8304 9.50307 12.8304 9.50307C12.8304 9.50307 13.2183 9.01822 13.2183 8.33943C13.2183 8.33943 13.8001 8.04852 14.188 8.53337C14.188 8.53337 14.188 8.14549 13.8971 7.95155C13.6062 7.75761 13.2183 7.56367 13.1213 7.56367C13.1213 7.56367 12.6365 6.69095 12.0547 6.59398C12.0547 6.59398 11.8607 6.10913 12.2486 6.01216C12.2486 6.01216 11.9577 5.91519 11.6668 6.10913C11.085 6.40004 10.7941 6.78791 10.7941 6.78791C10.7941 6.78791 10.4062 6.78791 10.2123 6.88488C10.2123 6.88488 10.0183 6.78791 10.1153 6.49701C10.0183 6.49701 9.7274 6.59398 9.82437 7.27276ZM13.0244 8.53337C13.0244 8.72731 12.9274 9.01822 12.9274 9.01822C12.8304 9.60004 12.1516 9.89094 12.1516 9.89094C12.3456 9.69701 12.5395 9.21216 12.5395 9.21216C12.8304 8.53337 13.0244 8.53337 13.0244 8.53337ZM12.1516 6.98185C12.4426 7.17579 12.7335 7.56367 12.7335 7.56367C12.6365 7.56367 12.3456 7.56367 12.3456 7.56367C12.1516 7.17579 11.4729 6.88488 11.4729 6.88488C11.4729 6.88488 11.8607 6.78791 12.1516 6.98185ZM11.2789 7.36973C12.4426 7.75761 12.4426 9.79397 11.085 10.0849C9.7274 10.3758 9.53346 9.21216 9.53346 9.21216C9.82437 8.92125 10.6001 8.53337 10.6001 8.53337H9.63043L9.53346 8.4364H9.43649C9.63043 7.66064 10.1153 7.07882 11.2789 7.36973Z" fill="white"/>
<path d="M3.52107 5.23636L3.81198 5.62424C3.81198 5.62424 3.4241 4.75152 4.29683 3.58788C5.16956 2.42424 6.43016 3.2 6.43016 3.2C6.23622 2.52121 5.75138 2.52121 5.75138 2.52121C6.6241 2.32727 7.30289 3.49091 7.30289 3.49091C7.49683 3.29697 7.10895 2.32727 7.10895 2.32727L6.6241 2.03636L6.52713 1.16364L6.04228 1.84242C5.84835 1.74545 5.26653 1.84242 5.26653 1.84242C4.58774 1.55152 3.61804 0 3.61804 0C4.29683 1.55152 3.90895 2.52121 3.90895 2.52121C3.71501 2.61818 3.52107 2.90909 3.52107 2.90909L2.84229 2.81212C3.13319 2.90909 3.32713 3.29697 3.23016 3.49091C3.13319 3.68485 2.93925 4.26667 2.93925 4.46061C2.93925 4.65455 3.52107 5.23636 3.52107 5.23636Z" fill="white"/>
<path d="M4.3937 4.46057C4.00582 4.65451 3.90885 5.91512 4.29673 6.20603C4.68461 6.49694 5.16946 6.69087 5.16946 6.69087C5.16946 6.69087 5.6543 7.27269 6.72097 6.69087C7.98158 5.91512 7.98158 4.94542 7.98158 4.94542C5.07249 7.95148 4.3937 4.46057 4.3937 4.46057ZM5.36339 6.5939C5.36339 6.5939 6.52703 6.69087 6.81794 6.49693C6.81794 6.49693 6.13915 7.07875 5.36339 6.5939Z" fill="white"/>
<path d="M7.49693 3.29692C7.88481 5.23632 6.23633 5.33329 6.23633 5.33329C6.91512 5.81813 7.98178 5.13935 8.07875 4.36359C8.07875 2.90904 7.30299 2.42419 7.30299 2.42419C7.98178 3.10298 7.88481 3.87874 7.78784 3.6848C7.69087 3.49086 7.49693 3.29692 7.49693 3.29692Z" fill="white"/>
</g>
<defs>
<clipPath id="clip0_175_2753">
<rect width="13.0909" height="16" fill="white" transform="translate(1)"/>
</clipPath>
</defs>
</svg>
