<svg width="24" height="24" viewBox="0 0 24 24" fill="none" xmlns="http://www.w3.org/2000/svg">
<path d="M2.66584 2.6719L2.6659 2.67196L2.67233 2.66541L4.168 1.14205C4.45005 0.854769 4.83575 0.692932 5.23834 0.692932H21.8075C22.6359 0.692932 23.3075 1.3645 23.3075 2.19293V18.7621C23.3075 19.1647 23.1457 19.5504 22.8584 19.8324L21.335 21.3281L21.335 21.3281L21.3285 21.3346L19.8329 22.858C19.5508 23.1452 19.1651 23.3071 18.7625 23.3071H2.19336C1.36493 23.3071 0.693359 22.6355 0.693359 21.8071V5.23792C0.693359 4.83532 0.855196 4.44962 1.14247 4.16757L2.66584 2.6719Z" stroke="white" stroke-miterlimit="10"/>
<path d="M16.4229 14.0822L12.8259 17.1743C12.6385 17.3355 12.3615 17.3355 12.1741 17.1743L8.57712 14.0822C7.57505 13.223 7 11.9547 7 10.6163C7 7.61219 10.7008 6.30883 12.5 8.67591C14.2992 6.30883 18 7.61219 18 10.6163C18 11.9547 17.4193 13.223 16.4229 14.0822Z" fill="#7AD76A"/>
</svg>
