<svg width="24" height="24" viewBox="0 0 24 24" fill="none" xmlns="http://www.w3.org/2000/svg">
<path d="M2.66584 2.6719L2.6659 2.67196L2.67233 2.66541L4.168 1.14205C4.45005 0.854769 4.83575 0.692932 5.23834 0.692932H21.8075C22.6359 0.692932 23.3075 1.3645 23.3075 2.19293V18.7621C23.3075 19.1647 23.1457 19.5504 22.8584 19.8324L21.335 21.3281L21.335 21.3281L21.3285 21.3346L19.8329 22.858C19.5508 23.1452 19.1651 23.3071 18.7625 23.3071H2.19336C1.36493 23.3071 0.693359 22.6355 0.693359 21.8071V5.23792C0.693359 4.83532 0.855197 4.44962 1.14247 4.16757L2.66584 2.6719Z" stroke="white" stroke-miterlimit="10"/>
<g clip-path="url(#clip0_155_3171)">
<path d="M12.8098 18.0299L15.422 18.5C15.5435 18.5204 15.6649 18.4182 15.6245 18.2956L15.1587 15.6588C15.1385 15.5157 15.0777 15.3931 14.9765 15.2909L11.0282 11.3054C10.95 11.2264 10.8223 11.2264 10.744 11.3054L9.87183 12.1858C9.79443 12.2639 9.79464 12.3899 9.8723 12.4678L12.7896 15.3931C12.8503 15.4544 12.8503 15.5566 12.7896 15.6383C12.7288 15.6997 12.6276 15.6997 12.5466 15.6383L9.65126 12.6962C9.57309 12.6168 9.44507 12.6166 9.36663 12.6958L8.49442 13.5762C8.4172 13.6542 8.4172 13.7798 8.49442 13.8577L12.4453 17.8459C12.5466 17.9481 12.6681 18.0094 12.8098 18.0299Z" fill="#54ADFF"/>
<path d="M6.71471 12.6132L9.83309 9.4654C9.97484 9.32232 10.1976 9.32232 10.3393 9.4654L10.9468 10.0786C11.0885 10.2217 11.0885 10.4465 10.9468 10.5896L7.84867 13.7579C7.70693 13.9009 7.48418 13.9009 7.34244 13.7579L6.73496 13.1447C6.59322 13.0016 6.59322 12.7563 6.71471 12.6132Z" fill="#54ADFF"/>
<path d="M5.70231 9.05659L6.26929 8.48427C6.53253 8.21854 6.95776 8.21854 7.221 8.48427L8.64075 9.91741C8.71798 9.99536 8.71798 10.121 8.64075 10.1989L7.40359 11.4478C7.32533 11.5268 7.19767 11.5268 7.11942 11.4478L5.70231 10.0173C5.43907 9.75156 5.43907 9.32232 5.70231 9.05659Z" fill="#54ADFF"/>
<path d="M12.9268 12.1375C12.8545 12.222 12.7259 12.2217 12.6477 12.1427L12.2205 11.7115C12.1433 11.6336 12.1436 11.5083 12.2165 11.4263C12.8757 10.6848 13.4713 9.44757 13.0733 8.58649C13.6325 9.81281 13.7877 11.1318 12.9268 12.1375Z" fill="#54ADFF"/>
<path d="M14.7723 13.9795C14.697 14.0613 14.5687 14.0614 14.4905 13.9824L14.0633 13.5511C13.986 13.4732 13.9863 13.3479 14.0603 13.2669C15.599 11.5837 16.172 8.65661 14.7945 6.84906C16.4747 9.06385 16.6305 11.9604 14.7723 13.9795Z" fill="#54ADFF"/>
<path d="M16.5956 15.8195C16.5195 15.9005 16.391 15.901 16.3127 15.822L15.885 15.3902C15.808 15.3125 15.808 15.1874 15.8824 15.1072C18.3097 12.4898 18.6155 8.04894 16.0903 5.5C18.9989 8.43602 19.3987 12.8361 16.5956 15.8195Z" fill="#54ADFF"/>
</g>
<defs>
<clipPath id="clip0_155_3171">
<rect width="13" height="13" fill="white" transform="translate(5.5 5.5)"/>
</clipPath>
</defs>
</svg>
