<svg width="14" height="16" viewBox="0 0 14 16" fill="none" xmlns="http://www.w3.org/2000/svg">
<g clip-path="url(#clip0_174_2646)">
<path d="M2.32727 7.95154L2.61818 8.7273C2.61818 8.7273 2.71515 9.60002 2.2303 10.1818C2.03636 10.3758 1.93939 10.5697 1.84242 10.7637L1.74545 11.0546C1.74545 11.0546 1.16364 11.2485 0.872727 11.1515L1.45455 11.7334C1.45455 11.7334 1.35758 12.6061 1.26061 12.7031C1.16364 12.897 0.484848 13.9637 0 14.2546C0 14.2546 1.74545 13.7697 1.93939 13.8667C2.13333 13.9637 2.52121 14.2546 2.81212 14.4485C2.90909 14.4485 2.90909 14.5455 2.90909 14.5455L2.71515 15.1273L3.39394 14.5455C3.49091 14.5455 3.58788 14.5455 3.68485 14.5455C3.87879 14.5455 4.1697 14.6424 4.36364 14.5455C4.36364 14.5455 5.13939 15.7091 5.23636 16V14.7394C5.23636 14.7394 5.23636 14.5455 5.52727 14.3515C5.72121 14.2546 7.17576 12.897 6.98182 10.9576L7.85455 9.9879L6.20606 10.1818C6.20606 10.1818 3.97576 9.21214 3.2 10.8606C3.2 10.8606 4.1697 9.79396 5.4303 10.2788C5.4303 10.2788 5.33333 10.3758 5.04242 10.3758C4.94545 10.3758 7.56364 11.4424 5.13939 13.7697C5.13939 13.7697 5.72121 13.0909 5.62424 12.6061C5.62424 12.6061 5.33333 13.2849 4.94545 13.4788C4.55758 13.6727 3.00606 14.3515 2.03636 12.2182C1.93939 9.21214 4.94545 9.50305 4.94545 9.50305C4.94545 9.50305 4.46061 9.30911 3.58788 9.40608C3.58788 9.40608 3.10303 9.21214 2.32727 7.95154Z" fill="#9A4BFF"/>
<path d="M8.82437 7.27276C8.82437 7.27276 8.43649 7.75761 8.33952 8.33943L7.4668 9.01822C7.4668 9.01822 7.95165 9.01822 8.14558 9.01822C8.24255 9.01822 8.43649 9.21216 8.43649 9.21216C8.43649 9.21216 8.43649 9.11519 8.53346 9.21216C8.63043 9.30913 8.7274 9.98792 9.50316 10.2788C9.50316 10.2788 10.1819 10.6667 9.89104 10.9576C9.89104 10.9576 10.1819 11.0546 10.3759 10.5697C10.3759 10.5697 10.8607 10.4728 11.3456 10.1819C11.3456 10.1819 11.8304 10.1819 11.7335 10.6667C11.7335 10.6667 11.9274 10.4728 11.9274 10.1819C11.9274 9.89094 11.8304 9.50307 11.8304 9.50307C11.8304 9.50307 12.2183 9.01822 12.2183 8.33943C12.2183 8.33943 12.8001 8.04852 13.188 8.53337C13.188 8.53337 13.188 8.14549 12.8971 7.95155C12.6062 7.75761 12.2183 7.56367 12.1213 7.56367C12.1213 7.56367 11.6365 6.69095 11.0547 6.59398C11.0547 6.59398 10.8607 6.10913 11.2486 6.01216C11.2486 6.01216 10.9577 5.91519 10.6668 6.10913C10.085 6.40004 9.79407 6.78791 9.79407 6.78791C9.79407 6.78791 9.40619 6.78791 9.21225 6.88488C9.21225 6.88488 9.01831 6.78791 9.11528 6.49701C9.01831 6.49701 8.7274 6.59398 8.82437 7.27276ZM12.0244 8.53337C12.0244 8.72731 11.9274 9.01822 11.9274 9.01822C11.8304 9.60004 11.1516 9.89094 11.1516 9.89094C11.3456 9.69701 11.5395 9.21216 11.5395 9.21216C11.8304 8.53337 12.0244 8.53337 12.0244 8.53337ZM11.1516 6.98185C11.4426 7.17579 11.7335 7.56367 11.7335 7.56367C11.6365 7.56367 11.3456 7.56367 11.3456 7.56367C11.1516 7.17579 10.4729 6.88488 10.4729 6.88488C10.4729 6.88488 10.8607 6.78791 11.1516 6.98185ZM10.2789 7.36973C11.4426 7.75761 11.4426 9.79397 10.085 10.0849C8.7274 10.3758 8.53346 9.21216 8.53346 9.21216C8.82437 8.92125 9.60013 8.53337 9.60013 8.53337H8.63043L8.53346 8.4364H8.43649C8.63043 7.66064 9.11528 7.07882 10.2789 7.36973Z" fill="#9A4BFF"/>
<path d="M2.52107 5.23636L2.81198 5.62424C2.81198 5.62424 2.4241 4.75152 3.29683 3.58788C4.16956 2.42424 5.43016 3.2 5.43016 3.2C5.23622 2.52121 4.75138 2.52121 4.75138 2.52121C5.6241 2.32727 6.30289 3.49091 6.30289 3.49091C6.49683 3.29697 6.10895 2.32727 6.10895 2.32727L5.6241 2.03636L5.52713 1.16364L5.04228 1.84242C4.84835 1.74545 4.26653 1.84242 4.26653 1.84242C3.58774 1.55152 2.61804 0 2.61804 0C3.29683 1.55152 2.90895 2.52121 2.90895 2.52121C2.71501 2.61818 2.52107 2.90909 2.52107 2.90909L1.84229 2.81212C2.13319 2.90909 2.32713 3.29697 2.23016 3.49091C2.13319 3.68485 1.93925 4.26667 1.93925 4.46061C1.93925 4.65455 2.52107 5.23636 2.52107 5.23636Z" fill="#9A4BFF"/>
<path d="M3.3937 4.46057C3.00582 4.65451 2.90885 5.91512 3.29673 6.20603C3.68461 6.49694 4.16946 6.69087 4.16946 6.69087C4.16946 6.69087 4.6543 7.27269 5.72097 6.69087C6.98158 5.91512 6.98158 4.94542 6.98158 4.94542C4.07249 7.95148 3.3937 4.46057 3.3937 4.46057ZM4.36339 6.5939C4.36339 6.5939 5.52703 6.69087 5.81794 6.49693C5.81794 6.49693 5.13915 7.07875 4.36339 6.5939Z" fill="#9A4BFF"/>
<path d="M6.49693 3.29692C6.88481 5.23632 5.23633 5.33329 5.23633 5.33329C5.91512 5.81813 6.98178 5.13935 7.07875 4.36359C7.07875 2.90904 6.30299 2.42419 6.30299 2.42419C6.98178 3.10298 6.88481 3.87874 6.78784 3.6848C6.69087 3.49086 6.49693 3.29692 6.49693 3.29692Z" fill="#9A4BFF"/>
</g>
<defs>
<clipPath id="clip0_174_2646">
<rect width="13.0909" height="16" fill="white"/>
</clipPath>
</defs>
</svg>
