<svg width="24" height="24" viewBox="0 0 24 24" fill="none" xmlns="http://www.w3.org/2000/svg">
<path d="M2.66584 2.6719L2.6659 2.67196L2.67233 2.66541L4.168 1.14205C4.45005 0.854769 4.83575 0.692932 5.23834 0.692932H21.8075C22.6359 0.692932 23.3075 1.3645 23.3075 2.19293V18.7621C23.3075 19.1647 23.1457 19.5504 22.8584 19.8324L21.335 21.3281L21.335 21.3281L21.3285 21.3346L19.8329 22.858C19.5508 23.1452 19.1651 23.3071 18.7625 23.3071H2.19336C1.36493 23.3071 0.693359 22.6355 0.693359 21.8071V5.23792C0.693359 4.83532 0.855196 4.44962 1.14247 4.16757L2.66584 2.6719Z" stroke="white" stroke-miterlimit="10"/>
<g clip-path="url(#clip0_155_3214)">
<path d="M13.271 9.93555L14.9339 7.45898C15.0714 7.25586 14.9051 7 14.6368 7H10.6546C10.5104 7 10.384 7.08594 10.3486 7.21094L9.00933 11.9277C8.96055 12.1035 9.1091 12.2734 9.31531 12.2734H10.8386L9.03372 16.5918C8.94946 16.7891 9.11576 17 9.35744 17C9.455 17 9.54591 16.959 9.60134 16.8906L14.9339 10.418C15.1002 10.2168 14.9362 9.93555 14.6546 9.93555H13.271Z" fill="#FFBE40"/>
</g>
<defs>
<clipPath id="clip0_155_3214">
<rect width="6" height="10" fill="white" transform="translate(9 7)"/>
</clipPath>
</defs>
</svg>
