<svg width="24" height="24" viewBox="0 0 24 24" fill="none" xmlns="http://www.w3.org/2000/svg">
<path d="M2.66584 2.6719L2.6659 2.67196L2.67233 2.66541L4.168 1.14205C4.45005 0.854769 4.83575 0.692932 5.23834 0.692932H21.8075C22.6359 0.692932 23.3075 1.3645 23.3075 2.19293V18.7621C23.3075 19.1647 23.1457 19.5504 22.8584 19.8324L21.335 21.3281L21.335 21.3281L21.3285 21.3346L19.8329 22.858C19.5508 23.1452 19.1651 23.3071 18.7625 23.3071H2.19336C1.36493 23.3071 0.693359 22.6355 0.693359 21.8071V5.23792C0.693359 4.83532 0.855196 4.44962 1.14247 4.16757L2.66584 2.6719Z" stroke="white" stroke-miterlimit="10"/>
<g clip-path="url(#clip0_155_3159)">
<path d="M16.5398 9.79999L16.9998 7.21999C17.0198 7.09999 16.9198 6.97999 16.7998 7.01999L14.1998 7.45999C14.0598 7.47999 13.9398 7.53999 13.8398 7.63999L9.7998 11.68L10.9398 12.82L13.9598 9.79999C14.0198 9.73999 14.1198 9.73999 14.1998 9.79999C14.2598 9.85999 14.2598 9.95999 14.1998 10.04L11.1798 13.06L12.3198 14.2L16.3598 10.16C16.4398 10.06 16.5198 9.91999 16.5398 9.79999Z" fill="#FF463A"/>
<path d="M11.2402 15.8L8.1802 12.72C8.0402 12.58 8.0402 12.36 8.1802 12.22L8.7802 11.62C8.9202 11.48 9.1402 11.48 9.2802 11.62L12.3602 14.7C12.5002 14.84 12.5002 15.06 12.3602 15.2L11.7602 15.8C11.6002 15.94 11.3802 15.94 11.2402 15.8Z" fill="#FF463A"/>
<path d="M7.75988 16.82L7.19988 16.24C6.93988 15.98 6.93988 15.56 7.19988 15.3L8.73988 13.76L10.2399 15.26L8.69988 16.8C8.43988 17.08 8.01988 17.08 7.75988 16.82Z" fill="#FF463A"/>
</g>
<defs>
<clipPath id="clip0_155_3159">
<rect x="7" y="7" width="10" height="10" fill="white"/>
</clipPath>
</defs>
</svg>
