<svg width="24" height="24" viewBox="0 0 24 24" fill="none" xmlns="http://www.w3.org/2000/svg">
<g clip-path="url(#clip0_155_3167)">
<path d="M12.2169 16.8992C12.0856 16.9652 11.9308 16.9652 11.7995 16.8992C9.3729 15.6787 7.83398 13.1856 7.83398 10.4493V9.43912C7.83398 9.25132 7.93922 9.07935 8.10646 8.99389L11.7807 7.11627C11.9236 7.04325 12.0928 7.04325 12.2357 7.11627L15.9099 8.99389C16.0771 9.07935 16.1824 9.25132 16.1824 9.43912V10.4493C16.1677 13.1856 14.6427 15.6787 12.2169 16.8992Z" fill="#9A4BFF"/>
</g>
<path d="M2.66584 2.6719L2.6659 2.67196L2.67233 2.66541L4.168 1.14205C4.45005 0.854769 4.83575 0.692932 5.23834 0.692932H21.8075C22.6359 0.692932 23.3075 1.3645 23.3075 2.19293V18.7621C23.3075 19.1647 23.1457 19.5504 22.8584 19.8324L21.335 21.3281L21.335 21.3281L21.3285 21.3346L19.8329 22.858C19.5508 23.1452 19.1651 23.3071 18.7625 23.3071H2.19336C1.36493 23.3071 0.693359 22.6355 0.693359 21.8071V5.23792C0.693359 4.83532 0.855196 4.44962 1.14247 4.16757L2.66584 2.6719Z" stroke="white" stroke-miterlimit="10"/>
<defs>
<clipPath id="clip0_155_3167">
<rect width="8.33333" height="10" fill="white" transform="translate(7.83398 7)"/>
</clipPath>
</defs>
</svg>
