<svg width="14" height="16" viewBox="0 0 14 16" fill="none" xmlns="http://www.w3.org/2000/svg">
<path d="M4.88967 10.7062C4.88967 10.7062 6.91565 9.77835 4.88967 9.31444C4.88967 9.31444 2.52604 10.3196 3.79227 11.7887C3.79227 11.7887 8.09747 13.799 9.61695 11.5567C10.1234 10.7835 9.95461 9.93299 9.3637 9.23712C8.01305 7.53609 3.79227 4.55479 4.59471 0.755735C4.59471 0.755735 5.96343 3.65634 8.51066 5.37305C11.0579 7.08976 11.3297 7.62103 11.8962 8.15464C13.4156 9.93299 14.6819 12.5619 11.6429 13.7217L7.50656 15.3454C7.42214 15.4227 7.25331 15.4227 7.08448 15.3454L2.94812 14.1083C2.35721 13.9536 1.85071 13.567 1.59747 13.0258L0.500063 11.3247C0.500063 11.3247 0.415648 5.6031 6.40915 7.30413C8.85721 8.30928 7.67539 11.2474 4.88967 10.7062Z" fill="#FF463A"/>
<path d="M12.0041 7.14787C12.0041 7.14787 11.695 5.78042 10.2494 4.91741C8.89557 4.12276 7.48915 3.64436 8.37704 1.53313C8.37704 1.53313 8.99854 2.63558 10.2291 3.05418C11.4598 3.47279 12.3959 5.16493 12.2302 6.03674C12.1407 6.82307 12.0041 7.14787 12.0041 7.14787Z" fill="#FF463A"/>
</svg>
